G04 #@! TF.GenerationSoftware,KiCad,Pcbnew,(5.1.2)-1*
G04 #@! TF.CreationDate,2021-01-06T23:16:40+09:00*
G04 #@! TF.ProjectId,ssl,73736c2e-6b69-4636-9164-5f7063625858,v1.3*
G04 #@! TF.SameCoordinates,Original*
G04 #@! TF.FileFunction,Soldermask,Top*
G04 #@! TF.FilePolarity,Negative*
%FSLAX46Y46*%
G04 Gerber Fmt 4.6, Leading zero omitted, Abs format (unit mm)*
G04 Created by KiCad (PCBNEW (5.1.2)-1) date 2021-01-06 23:16:40*
%MOMM*%
%LPD*%
G04 APERTURE LIST*
%ADD10C,0.100000*%
G04 APERTURE END LIST*
D10*
G36*
X99576000Y-117053906D02*
G01*
X99578402Y-117078292D01*
X99585515Y-117101741D01*
X99597066Y-117123352D01*
X99612611Y-117142294D01*
X99631553Y-117157839D01*
X99653164Y-117169390D01*
X99676613Y-117176503D01*
X99700999Y-117178905D01*
X99725385Y-117176503D01*
X99747375Y-117169832D01*
X99914951Y-117136500D01*
X100085049Y-117136500D01*
X100252625Y-117169832D01*
X100274615Y-117176503D01*
X100299001Y-117178905D01*
X100323387Y-117176503D01*
X100346836Y-117169390D01*
X100368447Y-117157839D01*
X100387389Y-117142294D01*
X100402934Y-117123352D01*
X100414485Y-117101741D01*
X100421598Y-117078292D01*
X100424000Y-117053906D01*
X100424000Y-115614000D01*
X101251000Y-115614000D01*
X101251000Y-117060000D01*
X100559516Y-117060000D01*
X100535130Y-117062402D01*
X100511681Y-117069515D01*
X100490070Y-117081066D01*
X100471128Y-117096611D01*
X100455583Y-117115553D01*
X100444032Y-117137164D01*
X100436919Y-117160613D01*
X100434517Y-117184999D01*
X100436919Y-117209385D01*
X100444032Y-117232834D01*
X100455583Y-117254445D01*
X100471128Y-117273387D01*
X100490070Y-117288931D01*
X100550444Y-117329272D01*
X100550446Y-117329274D01*
X100550449Y-117329276D01*
X100670724Y-117449551D01*
X100670725Y-117449553D01*
X100765225Y-117590981D01*
X100830317Y-117748126D01*
X100863500Y-117914951D01*
X100863500Y-118085049D01*
X100830317Y-118251874D01*
X100765225Y-118409019D01*
X100765224Y-118409021D01*
X100670724Y-118550449D01*
X100550449Y-118670724D01*
X100409021Y-118765224D01*
X100409020Y-118765225D01*
X100409019Y-118765225D01*
X100251874Y-118830317D01*
X100085049Y-118863500D01*
X99914951Y-118863500D01*
X99748126Y-118830317D01*
X99590981Y-118765225D01*
X99590980Y-118765225D01*
X99590979Y-118765224D01*
X99449551Y-118670724D01*
X99329276Y-118550449D01*
X99234776Y-118409021D01*
X99234775Y-118409019D01*
X99169683Y-118251874D01*
X99136500Y-118085049D01*
X99136500Y-117914951D01*
X99169683Y-117748126D01*
X99234775Y-117590981D01*
X99329275Y-117449553D01*
X99329276Y-117449551D01*
X99449551Y-117329276D01*
X99449554Y-117329274D01*
X99449556Y-117329272D01*
X99509930Y-117288931D01*
X99528872Y-117273386D01*
X99544417Y-117254444D01*
X99555968Y-117232833D01*
X99563081Y-117209384D01*
X99565483Y-117184998D01*
X99563081Y-117160612D01*
X99555968Y-117137163D01*
X99544416Y-117115553D01*
X99528871Y-117096611D01*
X99509929Y-117081066D01*
X99488318Y-117069515D01*
X99464869Y-117062402D01*
X99440484Y-117060000D01*
X98749000Y-117060000D01*
X98749000Y-115614000D01*
X99576000Y-115614000D01*
X99576000Y-117053906D01*
X99576000Y-117053906D01*
G37*
G36*
X97679591Y-117003085D02*
G01*
X97713569Y-117013393D01*
X97744890Y-117030134D01*
X97772339Y-117052661D01*
X97794866Y-117080110D01*
X97811607Y-117111431D01*
X97821915Y-117145409D01*
X97826000Y-117186890D01*
X97826000Y-117788110D01*
X97821915Y-117829591D01*
X97811607Y-117863569D01*
X97794866Y-117894890D01*
X97772339Y-117922339D01*
X97744890Y-117944866D01*
X97713569Y-117961607D01*
X97679591Y-117971915D01*
X97638110Y-117976000D01*
X96961890Y-117976000D01*
X96920409Y-117971915D01*
X96886431Y-117961607D01*
X96855110Y-117944866D01*
X96827661Y-117922339D01*
X96805134Y-117894890D01*
X96788393Y-117863569D01*
X96778085Y-117829591D01*
X96774000Y-117788110D01*
X96774000Y-117186890D01*
X96778085Y-117145409D01*
X96788393Y-117111431D01*
X96805134Y-117080110D01*
X96827661Y-117052661D01*
X96855110Y-117030134D01*
X96886431Y-117013393D01*
X96920409Y-117003085D01*
X96961890Y-116999000D01*
X97638110Y-116999000D01*
X97679591Y-117003085D01*
X97679591Y-117003085D01*
G37*
G36*
X103079591Y-116991085D02*
G01*
X103113569Y-117001393D01*
X103144890Y-117018134D01*
X103172339Y-117040661D01*
X103194866Y-117068110D01*
X103211607Y-117099431D01*
X103221915Y-117133409D01*
X103226000Y-117174890D01*
X103226000Y-117776110D01*
X103221915Y-117817591D01*
X103211607Y-117851569D01*
X103194866Y-117882890D01*
X103172339Y-117910339D01*
X103144890Y-117932866D01*
X103113569Y-117949607D01*
X103079591Y-117959915D01*
X103038110Y-117964000D01*
X102361890Y-117964000D01*
X102320409Y-117959915D01*
X102286431Y-117949607D01*
X102255110Y-117932866D01*
X102227661Y-117910339D01*
X102205134Y-117882890D01*
X102188393Y-117851569D01*
X102178085Y-117817591D01*
X102174000Y-117776110D01*
X102174000Y-117174890D01*
X102178085Y-117133409D01*
X102188393Y-117099431D01*
X102205134Y-117068110D01*
X102227661Y-117040661D01*
X102255110Y-117018134D01*
X102286431Y-117001393D01*
X102320409Y-116991085D01*
X102361890Y-116987000D01*
X103038110Y-116987000D01*
X103079591Y-116991085D01*
X103079591Y-116991085D01*
G37*
G36*
X97679591Y-115428085D02*
G01*
X97713569Y-115438393D01*
X97744890Y-115455134D01*
X97772339Y-115477661D01*
X97794866Y-115505110D01*
X97811607Y-115536431D01*
X97821915Y-115570409D01*
X97826000Y-115611890D01*
X97826000Y-116213110D01*
X97821915Y-116254591D01*
X97811607Y-116288569D01*
X97794866Y-116319890D01*
X97772339Y-116347339D01*
X97744890Y-116369866D01*
X97713569Y-116386607D01*
X97679591Y-116396915D01*
X97638110Y-116401000D01*
X96961890Y-116401000D01*
X96920409Y-116396915D01*
X96886431Y-116386607D01*
X96855110Y-116369866D01*
X96827661Y-116347339D01*
X96805134Y-116319890D01*
X96788393Y-116288569D01*
X96778085Y-116254591D01*
X96774000Y-116213110D01*
X96774000Y-115611890D01*
X96778085Y-115570409D01*
X96788393Y-115536431D01*
X96805134Y-115505110D01*
X96827661Y-115477661D01*
X96855110Y-115455134D01*
X96886431Y-115438393D01*
X96920409Y-115428085D01*
X96961890Y-115424000D01*
X97638110Y-115424000D01*
X97679591Y-115428085D01*
X97679591Y-115428085D01*
G37*
G36*
X103079591Y-115416085D02*
G01*
X103113569Y-115426393D01*
X103144890Y-115443134D01*
X103172339Y-115465661D01*
X103194866Y-115493110D01*
X103211607Y-115524431D01*
X103221915Y-115558409D01*
X103226000Y-115599890D01*
X103226000Y-116201110D01*
X103221915Y-116242591D01*
X103211607Y-116276569D01*
X103194866Y-116307890D01*
X103172339Y-116335339D01*
X103144890Y-116357866D01*
X103113569Y-116374607D01*
X103079591Y-116384915D01*
X103038110Y-116389000D01*
X102361890Y-116389000D01*
X102320409Y-116384915D01*
X102286431Y-116374607D01*
X102255110Y-116357866D01*
X102227661Y-116335339D01*
X102205134Y-116307890D01*
X102188393Y-116276569D01*
X102178085Y-116242591D01*
X102174000Y-116201110D01*
X102174000Y-115599890D01*
X102178085Y-115558409D01*
X102188393Y-115524431D01*
X102205134Y-115493110D01*
X102227661Y-115465661D01*
X102255110Y-115443134D01*
X102286431Y-115426393D01*
X102320409Y-115416085D01*
X102361890Y-115412000D01*
X103038110Y-115412000D01*
X103079591Y-115416085D01*
X103079591Y-115416085D01*
G37*
G36*
X95642091Y-113678085D02*
G01*
X95676069Y-113688393D01*
X95707390Y-113705134D01*
X95734839Y-113727661D01*
X95757366Y-113755110D01*
X95774107Y-113786431D01*
X95784415Y-113820409D01*
X95788500Y-113861890D01*
X95788500Y-114538110D01*
X95784415Y-114579591D01*
X95774107Y-114613569D01*
X95757366Y-114644890D01*
X95734839Y-114672339D01*
X95707390Y-114694866D01*
X95676069Y-114711607D01*
X95642091Y-114721915D01*
X95600610Y-114726000D01*
X94999390Y-114726000D01*
X94957909Y-114721915D01*
X94923931Y-114711607D01*
X94892610Y-114694866D01*
X94865161Y-114672339D01*
X94842634Y-114644890D01*
X94825893Y-114613569D01*
X94815585Y-114579591D01*
X94811500Y-114538110D01*
X94811500Y-113861890D01*
X94815585Y-113820409D01*
X94825893Y-113786431D01*
X94842634Y-113755110D01*
X94865161Y-113727661D01*
X94892610Y-113705134D01*
X94923931Y-113688393D01*
X94957909Y-113678085D01*
X94999390Y-113674000D01*
X95600610Y-113674000D01*
X95642091Y-113678085D01*
X95642091Y-113678085D01*
G37*
G36*
X97217091Y-113678085D02*
G01*
X97251069Y-113688393D01*
X97282390Y-113705134D01*
X97309839Y-113727661D01*
X97332366Y-113755110D01*
X97349107Y-113786431D01*
X97359415Y-113820409D01*
X97363500Y-113861890D01*
X97363500Y-114538110D01*
X97359415Y-114579591D01*
X97349107Y-114613569D01*
X97332366Y-114644890D01*
X97309839Y-114672339D01*
X97282390Y-114694866D01*
X97251069Y-114711607D01*
X97217091Y-114721915D01*
X97175610Y-114726000D01*
X96574390Y-114726000D01*
X96532909Y-114721915D01*
X96498931Y-114711607D01*
X96467610Y-114694866D01*
X96440161Y-114672339D01*
X96417634Y-114644890D01*
X96400893Y-114613569D01*
X96390585Y-114579591D01*
X96386500Y-114538110D01*
X96386500Y-113861890D01*
X96390585Y-113820409D01*
X96400893Y-113786431D01*
X96417634Y-113755110D01*
X96440161Y-113727661D01*
X96467610Y-113705134D01*
X96498931Y-113688393D01*
X96532909Y-113678085D01*
X96574390Y-113674000D01*
X97175610Y-113674000D01*
X97217091Y-113678085D01*
X97217091Y-113678085D01*
G37*
G36*
X102284468Y-112365565D02*
G01*
X102323138Y-112377296D01*
X102358777Y-112396346D01*
X102390017Y-112421983D01*
X102415654Y-112453223D01*
X102434704Y-112488862D01*
X102446435Y-112527532D01*
X102451000Y-112573888D01*
X102451000Y-113225112D01*
X102446435Y-113271468D01*
X102434704Y-113310138D01*
X102415654Y-113345777D01*
X102390017Y-113377017D01*
X102358777Y-113402654D01*
X102323138Y-113421704D01*
X102284468Y-113433435D01*
X102238112Y-113438000D01*
X101161888Y-113438000D01*
X101115532Y-113433435D01*
X101076862Y-113421704D01*
X101041223Y-113402654D01*
X101009983Y-113377017D01*
X100984346Y-113345777D01*
X100965296Y-113310138D01*
X100953565Y-113271468D01*
X100949000Y-113225112D01*
X100949000Y-112573888D01*
X100953565Y-112527532D01*
X100965296Y-112488862D01*
X100984346Y-112453223D01*
X101009983Y-112421983D01*
X101041223Y-112396346D01*
X101076862Y-112377296D01*
X101115532Y-112365565D01*
X101161888Y-112361000D01*
X102238112Y-112361000D01*
X102284468Y-112365565D01*
X102284468Y-112365565D01*
G37*
G36*
X112424549Y-111071116D02*
G01*
X112535734Y-111093232D01*
X112745203Y-111179997D01*
X112933720Y-111305960D01*
X113094040Y-111466280D01*
X113158666Y-111563000D01*
X113220004Y-111654799D01*
X113306768Y-111864267D01*
X113351000Y-112086635D01*
X113351000Y-112313365D01*
X113338283Y-112377296D01*
X113306768Y-112535734D01*
X113220003Y-112745203D01*
X113094040Y-112933720D01*
X112933720Y-113094040D01*
X112745203Y-113220003D01*
X112535734Y-113306768D01*
X112424549Y-113328884D01*
X112313365Y-113351000D01*
X112086635Y-113351000D01*
X111975451Y-113328884D01*
X111864266Y-113306768D01*
X111654797Y-113220003D01*
X111466280Y-113094040D01*
X111305960Y-112933720D01*
X111179997Y-112745203D01*
X111093232Y-112535734D01*
X111061717Y-112377296D01*
X111049000Y-112313365D01*
X111049000Y-112086635D01*
X111093232Y-111864267D01*
X111179996Y-111654799D01*
X111241334Y-111563000D01*
X111305960Y-111466280D01*
X111466280Y-111305960D01*
X111654797Y-111179997D01*
X111864266Y-111093232D01*
X111975451Y-111071116D01*
X112086635Y-111049000D01*
X112313365Y-111049000D01*
X112424549Y-111071116D01*
X112424549Y-111071116D01*
G37*
G36*
X88124549Y-111071116D02*
G01*
X88235734Y-111093232D01*
X88445203Y-111179997D01*
X88633720Y-111305960D01*
X88794040Y-111466280D01*
X88858666Y-111563000D01*
X88920004Y-111654799D01*
X89006768Y-111864267D01*
X89051000Y-112086635D01*
X89051000Y-112313365D01*
X89038283Y-112377296D01*
X89006768Y-112535734D01*
X88920003Y-112745203D01*
X88794040Y-112933720D01*
X88633720Y-113094040D01*
X88445203Y-113220003D01*
X88235734Y-113306768D01*
X88124549Y-113328884D01*
X88013365Y-113351000D01*
X87786635Y-113351000D01*
X87675451Y-113328884D01*
X87564266Y-113306768D01*
X87354797Y-113220003D01*
X87166280Y-113094040D01*
X87005960Y-112933720D01*
X86879997Y-112745203D01*
X86793232Y-112535734D01*
X86761717Y-112377296D01*
X86749000Y-112313365D01*
X86749000Y-112086635D01*
X86793232Y-111864267D01*
X86879996Y-111654799D01*
X86941334Y-111563000D01*
X87005960Y-111466280D01*
X87166280Y-111305960D01*
X87354797Y-111179997D01*
X87564266Y-111093232D01*
X87675451Y-111071116D01*
X87786635Y-111049000D01*
X88013365Y-111049000D01*
X88124549Y-111071116D01*
X88124549Y-111071116D01*
G37*
G36*
X95654591Y-112078085D02*
G01*
X95688569Y-112088393D01*
X95719890Y-112105134D01*
X95747339Y-112127661D01*
X95769866Y-112155110D01*
X95786607Y-112186431D01*
X95796915Y-112220409D01*
X95801000Y-112261890D01*
X95801000Y-112938110D01*
X95796915Y-112979591D01*
X95786607Y-113013569D01*
X95769866Y-113044890D01*
X95747339Y-113072339D01*
X95719890Y-113094866D01*
X95688569Y-113111607D01*
X95654591Y-113121915D01*
X95613110Y-113126000D01*
X95011890Y-113126000D01*
X94970409Y-113121915D01*
X94936431Y-113111607D01*
X94905110Y-113094866D01*
X94877661Y-113072339D01*
X94855134Y-113044890D01*
X94838393Y-113013569D01*
X94828085Y-112979591D01*
X94824000Y-112938110D01*
X94824000Y-112261890D01*
X94828085Y-112220409D01*
X94838393Y-112186431D01*
X94855134Y-112155110D01*
X94877661Y-112127661D01*
X94905110Y-112105134D01*
X94936431Y-112088393D01*
X94970409Y-112078085D01*
X95011890Y-112074000D01*
X95613110Y-112074000D01*
X95654591Y-112078085D01*
X95654591Y-112078085D01*
G37*
G36*
X97229591Y-112078085D02*
G01*
X97263569Y-112088393D01*
X97294890Y-112105134D01*
X97322339Y-112127661D01*
X97344866Y-112155110D01*
X97361607Y-112186431D01*
X97371915Y-112220409D01*
X97376000Y-112261890D01*
X97376000Y-112938110D01*
X97371915Y-112979591D01*
X97361607Y-113013569D01*
X97344866Y-113044890D01*
X97322339Y-113072339D01*
X97294890Y-113094866D01*
X97263569Y-113111607D01*
X97229591Y-113121915D01*
X97188110Y-113126000D01*
X96586890Y-113126000D01*
X96545409Y-113121915D01*
X96511431Y-113111607D01*
X96480110Y-113094866D01*
X96452661Y-113072339D01*
X96430134Y-113044890D01*
X96413393Y-113013569D01*
X96403085Y-112979591D01*
X96399000Y-112938110D01*
X96399000Y-112261890D01*
X96403085Y-112220409D01*
X96413393Y-112186431D01*
X96430134Y-112155110D01*
X96452661Y-112127661D01*
X96480110Y-112105134D01*
X96511431Y-112088393D01*
X96545409Y-112078085D01*
X96586890Y-112074000D01*
X97188110Y-112074000D01*
X97229591Y-112078085D01*
X97229591Y-112078085D01*
G37*
G36*
X104279591Y-112091085D02*
G01*
X104313569Y-112101393D01*
X104344890Y-112118134D01*
X104372339Y-112140661D01*
X104394866Y-112168110D01*
X104411607Y-112199431D01*
X104421915Y-112233409D01*
X104426000Y-112274890D01*
X104426000Y-112876110D01*
X104421915Y-112917591D01*
X104411607Y-112951569D01*
X104394866Y-112982890D01*
X104372339Y-113010339D01*
X104344890Y-113032866D01*
X104313569Y-113049607D01*
X104279591Y-113059915D01*
X104238110Y-113064000D01*
X103561890Y-113064000D01*
X103520409Y-113059915D01*
X103486431Y-113049607D01*
X103455110Y-113032866D01*
X103427661Y-113010339D01*
X103405134Y-112982890D01*
X103388393Y-112951569D01*
X103378085Y-112917591D01*
X103374000Y-112876110D01*
X103374000Y-112274890D01*
X103378085Y-112233409D01*
X103388393Y-112199431D01*
X103405134Y-112168110D01*
X103427661Y-112140661D01*
X103455110Y-112118134D01*
X103486431Y-112101393D01*
X103520409Y-112091085D01*
X103561890Y-112087000D01*
X104238110Y-112087000D01*
X104279591Y-112091085D01*
X104279591Y-112091085D01*
G37*
G36*
X102284468Y-110490565D02*
G01*
X102323138Y-110502296D01*
X102358777Y-110521346D01*
X102390017Y-110546983D01*
X102415654Y-110578223D01*
X102434704Y-110613862D01*
X102446435Y-110652532D01*
X102451000Y-110698888D01*
X102451000Y-111350112D01*
X102446435Y-111396468D01*
X102434704Y-111435138D01*
X102415654Y-111470777D01*
X102390017Y-111502017D01*
X102358777Y-111527654D01*
X102323138Y-111546704D01*
X102284468Y-111558435D01*
X102238112Y-111563000D01*
X101161888Y-111563000D01*
X101115532Y-111558435D01*
X101076862Y-111546704D01*
X101041223Y-111527654D01*
X101009983Y-111502017D01*
X100984346Y-111470777D01*
X100965296Y-111435138D01*
X100953565Y-111396468D01*
X100949000Y-111350112D01*
X100949000Y-110698888D01*
X100953565Y-110652532D01*
X100965296Y-110613862D01*
X100984346Y-110578223D01*
X101009983Y-110546983D01*
X101041223Y-110521346D01*
X101076862Y-110502296D01*
X101115532Y-110490565D01*
X101161888Y-110486000D01*
X102238112Y-110486000D01*
X102284468Y-110490565D01*
X102284468Y-110490565D01*
G37*
G36*
X108617591Y-110478085D02*
G01*
X108651569Y-110488393D01*
X108682890Y-110505134D01*
X108710339Y-110527661D01*
X108732866Y-110555110D01*
X108749607Y-110586431D01*
X108759915Y-110620409D01*
X108764000Y-110661890D01*
X108764000Y-111338110D01*
X108759915Y-111379591D01*
X108749607Y-111413569D01*
X108732866Y-111444890D01*
X108710339Y-111472339D01*
X108682890Y-111494866D01*
X108651569Y-111511607D01*
X108617591Y-111521915D01*
X108576110Y-111526000D01*
X107974890Y-111526000D01*
X107933409Y-111521915D01*
X107899431Y-111511607D01*
X107868110Y-111494866D01*
X107840661Y-111472339D01*
X107818134Y-111444890D01*
X107801393Y-111413569D01*
X107791085Y-111379591D01*
X107787000Y-111338110D01*
X107787000Y-110661890D01*
X107791085Y-110620409D01*
X107801393Y-110586431D01*
X107818134Y-110555110D01*
X107840661Y-110527661D01*
X107868110Y-110505134D01*
X107899431Y-110488393D01*
X107933409Y-110478085D01*
X107974890Y-110474000D01*
X108576110Y-110474000D01*
X108617591Y-110478085D01*
X108617591Y-110478085D01*
G37*
G36*
X107042591Y-110478085D02*
G01*
X107076569Y-110488393D01*
X107107890Y-110505134D01*
X107135339Y-110527661D01*
X107157866Y-110555110D01*
X107174607Y-110586431D01*
X107184915Y-110620409D01*
X107189000Y-110661890D01*
X107189000Y-111338110D01*
X107184915Y-111379591D01*
X107174607Y-111413569D01*
X107157866Y-111444890D01*
X107135339Y-111472339D01*
X107107890Y-111494866D01*
X107076569Y-111511607D01*
X107042591Y-111521915D01*
X107001110Y-111526000D01*
X106399890Y-111526000D01*
X106358409Y-111521915D01*
X106324431Y-111511607D01*
X106293110Y-111494866D01*
X106265661Y-111472339D01*
X106243134Y-111444890D01*
X106226393Y-111413569D01*
X106216085Y-111379591D01*
X106212000Y-111338110D01*
X106212000Y-110661890D01*
X106216085Y-110620409D01*
X106226393Y-110586431D01*
X106243134Y-110555110D01*
X106265661Y-110527661D01*
X106293110Y-110505134D01*
X106324431Y-110488393D01*
X106358409Y-110478085D01*
X106399890Y-110474000D01*
X107001110Y-110474000D01*
X107042591Y-110478085D01*
X107042591Y-110478085D01*
G37*
G36*
X104279591Y-110516085D02*
G01*
X104313569Y-110526393D01*
X104344890Y-110543134D01*
X104372339Y-110565661D01*
X104394866Y-110593110D01*
X104411607Y-110624431D01*
X104421915Y-110658409D01*
X104426000Y-110699890D01*
X104426000Y-111301110D01*
X104421915Y-111342591D01*
X104411607Y-111376569D01*
X104394866Y-111407890D01*
X104372339Y-111435339D01*
X104344890Y-111457866D01*
X104313569Y-111474607D01*
X104279591Y-111484915D01*
X104238110Y-111489000D01*
X103561890Y-111489000D01*
X103520409Y-111484915D01*
X103486431Y-111474607D01*
X103455110Y-111457866D01*
X103427661Y-111435339D01*
X103405134Y-111407890D01*
X103388393Y-111376569D01*
X103378085Y-111342591D01*
X103374000Y-111301110D01*
X103374000Y-110699890D01*
X103378085Y-110658409D01*
X103388393Y-110624431D01*
X103405134Y-110593110D01*
X103427661Y-110565661D01*
X103455110Y-110543134D01*
X103486431Y-110526393D01*
X103520409Y-110516085D01*
X103561890Y-110512000D01*
X104238110Y-110512000D01*
X104279591Y-110516085D01*
X104279591Y-110516085D01*
G37*
G36*
X97217091Y-110428085D02*
G01*
X97251069Y-110438393D01*
X97282390Y-110455134D01*
X97309839Y-110477661D01*
X97332366Y-110505110D01*
X97349107Y-110536431D01*
X97359415Y-110570409D01*
X97363500Y-110611890D01*
X97363500Y-111288110D01*
X97359415Y-111329591D01*
X97349107Y-111363569D01*
X97332366Y-111394890D01*
X97309839Y-111422339D01*
X97282390Y-111444866D01*
X97251069Y-111461607D01*
X97217091Y-111471915D01*
X97175610Y-111476000D01*
X96574390Y-111476000D01*
X96532909Y-111471915D01*
X96498931Y-111461607D01*
X96467610Y-111444866D01*
X96440161Y-111422339D01*
X96417634Y-111394890D01*
X96400893Y-111363569D01*
X96390585Y-111329591D01*
X96386500Y-111288110D01*
X96386500Y-110611890D01*
X96390585Y-110570409D01*
X96400893Y-110536431D01*
X96417634Y-110505110D01*
X96440161Y-110477661D01*
X96467610Y-110455134D01*
X96498931Y-110438393D01*
X96532909Y-110428085D01*
X96574390Y-110424000D01*
X97175610Y-110424000D01*
X97217091Y-110428085D01*
X97217091Y-110428085D01*
G37*
G36*
X95642091Y-110428085D02*
G01*
X95676069Y-110438393D01*
X95707390Y-110455134D01*
X95734839Y-110477661D01*
X95757366Y-110505110D01*
X95774107Y-110536431D01*
X95784415Y-110570409D01*
X95788500Y-110611890D01*
X95788500Y-111288110D01*
X95784415Y-111329591D01*
X95774107Y-111363569D01*
X95757366Y-111394890D01*
X95734839Y-111422339D01*
X95707390Y-111444866D01*
X95676069Y-111461607D01*
X95642091Y-111471915D01*
X95600610Y-111476000D01*
X94999390Y-111476000D01*
X94957909Y-111471915D01*
X94923931Y-111461607D01*
X94892610Y-111444866D01*
X94865161Y-111422339D01*
X94842634Y-111394890D01*
X94825893Y-111363569D01*
X94815585Y-111329591D01*
X94811500Y-111288110D01*
X94811500Y-110611890D01*
X94815585Y-110570409D01*
X94825893Y-110536431D01*
X94842634Y-110505110D01*
X94865161Y-110477661D01*
X94892610Y-110455134D01*
X94923931Y-110438393D01*
X94957909Y-110428085D01*
X94999390Y-110424000D01*
X95600610Y-110424000D01*
X95642091Y-110428085D01*
X95642091Y-110428085D01*
G37*
G36*
X97020295Y-106900323D02*
G01*
X97027309Y-106902451D01*
X97041077Y-106909810D01*
X97063716Y-106919187D01*
X97087749Y-106923967D01*
X97112253Y-106923967D01*
X97136286Y-106919186D01*
X97158923Y-106909810D01*
X97172691Y-106902451D01*
X97179705Y-106900323D01*
X97193140Y-106899000D01*
X97506860Y-106899000D01*
X97520295Y-106900323D01*
X97527309Y-106902451D01*
X97541077Y-106909810D01*
X97563716Y-106919187D01*
X97587749Y-106923967D01*
X97612253Y-106923967D01*
X97636286Y-106919186D01*
X97658923Y-106909810D01*
X97672691Y-106902451D01*
X97679705Y-106900323D01*
X97693140Y-106899000D01*
X98006860Y-106899000D01*
X98020295Y-106900323D01*
X98027309Y-106902451D01*
X98041077Y-106909810D01*
X98063716Y-106919187D01*
X98087749Y-106923967D01*
X98112253Y-106923967D01*
X98136286Y-106919186D01*
X98158923Y-106909810D01*
X98172691Y-106902451D01*
X98179705Y-106900323D01*
X98193140Y-106899000D01*
X98506860Y-106899000D01*
X98520295Y-106900323D01*
X98527309Y-106902451D01*
X98541077Y-106909810D01*
X98563716Y-106919187D01*
X98587749Y-106923967D01*
X98612253Y-106923967D01*
X98636286Y-106919186D01*
X98658923Y-106909810D01*
X98672691Y-106902451D01*
X98679705Y-106900323D01*
X98693140Y-106899000D01*
X99006860Y-106899000D01*
X99020295Y-106900323D01*
X99027309Y-106902451D01*
X99041077Y-106909810D01*
X99063716Y-106919187D01*
X99087749Y-106923967D01*
X99112253Y-106923967D01*
X99136286Y-106919186D01*
X99158923Y-106909810D01*
X99172691Y-106902451D01*
X99179705Y-106900323D01*
X99193140Y-106899000D01*
X99506860Y-106899000D01*
X99520295Y-106900323D01*
X99527309Y-106902451D01*
X99541077Y-106909810D01*
X99563716Y-106919187D01*
X99587749Y-106923967D01*
X99612253Y-106923967D01*
X99636286Y-106919186D01*
X99658923Y-106909810D01*
X99672691Y-106902451D01*
X99679705Y-106900323D01*
X99693140Y-106899000D01*
X100006860Y-106899000D01*
X100020295Y-106900323D01*
X100027309Y-106902451D01*
X100041077Y-106909810D01*
X100063716Y-106919187D01*
X100087749Y-106923967D01*
X100112253Y-106923967D01*
X100136286Y-106919186D01*
X100158923Y-106909810D01*
X100172691Y-106902451D01*
X100179705Y-106900323D01*
X100193140Y-106899000D01*
X100506860Y-106899000D01*
X100520295Y-106900323D01*
X100527309Y-106902451D01*
X100541077Y-106909810D01*
X100563716Y-106919187D01*
X100587749Y-106923967D01*
X100612253Y-106923967D01*
X100636286Y-106919186D01*
X100658923Y-106909810D01*
X100672691Y-106902451D01*
X100679705Y-106900323D01*
X100693140Y-106899000D01*
X101006860Y-106899000D01*
X101020295Y-106900323D01*
X101027309Y-106902451D01*
X101041077Y-106909810D01*
X101063716Y-106919187D01*
X101087749Y-106923967D01*
X101112253Y-106923967D01*
X101136286Y-106919186D01*
X101158923Y-106909810D01*
X101172691Y-106902451D01*
X101179705Y-106900323D01*
X101193140Y-106899000D01*
X101506860Y-106899000D01*
X101520295Y-106900323D01*
X101527309Y-106902451D01*
X101541077Y-106909810D01*
X101563716Y-106919187D01*
X101587749Y-106923967D01*
X101612253Y-106923967D01*
X101636286Y-106919186D01*
X101658923Y-106909810D01*
X101672691Y-106902451D01*
X101679705Y-106900323D01*
X101693140Y-106899000D01*
X102006860Y-106899000D01*
X102020295Y-106900323D01*
X102027309Y-106902451D01*
X102041077Y-106909810D01*
X102063716Y-106919187D01*
X102087749Y-106923967D01*
X102112253Y-106923967D01*
X102136286Y-106919186D01*
X102158923Y-106909810D01*
X102172691Y-106902451D01*
X102179705Y-106900323D01*
X102193140Y-106899000D01*
X102506860Y-106899000D01*
X102520295Y-106900323D01*
X102527309Y-106902451D01*
X102541077Y-106909810D01*
X102563716Y-106919187D01*
X102587749Y-106923967D01*
X102612253Y-106923967D01*
X102636286Y-106919186D01*
X102658923Y-106909810D01*
X102672691Y-106902451D01*
X102679705Y-106900323D01*
X102693140Y-106899000D01*
X103006860Y-106899000D01*
X103020295Y-106900323D01*
X103027309Y-106902451D01*
X103041077Y-106909810D01*
X103063716Y-106919187D01*
X103087749Y-106923967D01*
X103112253Y-106923967D01*
X103136286Y-106919186D01*
X103158923Y-106909810D01*
X103172691Y-106902451D01*
X103179705Y-106900323D01*
X103193140Y-106899000D01*
X103506860Y-106899000D01*
X103520295Y-106900323D01*
X103527309Y-106902451D01*
X103541077Y-106909810D01*
X103563716Y-106919187D01*
X103587749Y-106923967D01*
X103612253Y-106923967D01*
X103636286Y-106919186D01*
X103658923Y-106909810D01*
X103672691Y-106902451D01*
X103679705Y-106900323D01*
X103693140Y-106899000D01*
X104006860Y-106899000D01*
X104020295Y-106900323D01*
X104027309Y-106902451D01*
X104041077Y-106909810D01*
X104063716Y-106919187D01*
X104087749Y-106923967D01*
X104112253Y-106923967D01*
X104136286Y-106919186D01*
X104158923Y-106909810D01*
X104172691Y-106902451D01*
X104179705Y-106900323D01*
X104193140Y-106899000D01*
X104506860Y-106899000D01*
X104520295Y-106900323D01*
X104527310Y-106902451D01*
X104533776Y-106905908D01*
X104539442Y-106910558D01*
X104544092Y-106916224D01*
X104547549Y-106922690D01*
X104549677Y-106929705D01*
X104551000Y-106943140D01*
X104551000Y-108506860D01*
X104549677Y-108520295D01*
X104547549Y-108527310D01*
X104544092Y-108533776D01*
X104539442Y-108539442D01*
X104533776Y-108544092D01*
X104527310Y-108547549D01*
X104520295Y-108549677D01*
X104506860Y-108551000D01*
X104193140Y-108551000D01*
X104179705Y-108549677D01*
X104172691Y-108547549D01*
X104158923Y-108540190D01*
X104136284Y-108530813D01*
X104112251Y-108526033D01*
X104087747Y-108526033D01*
X104063714Y-108530814D01*
X104041077Y-108540190D01*
X104027309Y-108547549D01*
X104020295Y-108549677D01*
X104006860Y-108551000D01*
X103693140Y-108551000D01*
X103679705Y-108549677D01*
X103672691Y-108547549D01*
X103658923Y-108540190D01*
X103636284Y-108530813D01*
X103612251Y-108526033D01*
X103587747Y-108526033D01*
X103563714Y-108530814D01*
X103541077Y-108540190D01*
X103527309Y-108547549D01*
X103520295Y-108549677D01*
X103506860Y-108551000D01*
X103193140Y-108551000D01*
X103179705Y-108549677D01*
X103172691Y-108547549D01*
X103158923Y-108540190D01*
X103136284Y-108530813D01*
X103112251Y-108526033D01*
X103087747Y-108526033D01*
X103063714Y-108530814D01*
X103041077Y-108540190D01*
X103027309Y-108547549D01*
X103020295Y-108549677D01*
X103006860Y-108551000D01*
X102693140Y-108551000D01*
X102679705Y-108549677D01*
X102672691Y-108547549D01*
X102658923Y-108540190D01*
X102636284Y-108530813D01*
X102612251Y-108526033D01*
X102587747Y-108526033D01*
X102563714Y-108530814D01*
X102541077Y-108540190D01*
X102527309Y-108547549D01*
X102520295Y-108549677D01*
X102506860Y-108551000D01*
X102193140Y-108551000D01*
X102179705Y-108549677D01*
X102172691Y-108547549D01*
X102158923Y-108540190D01*
X102136284Y-108530813D01*
X102112251Y-108526033D01*
X102087747Y-108526033D01*
X102063714Y-108530814D01*
X102041077Y-108540190D01*
X102027309Y-108547549D01*
X102020295Y-108549677D01*
X102006860Y-108551000D01*
X101693140Y-108551000D01*
X101679705Y-108549677D01*
X101672691Y-108547549D01*
X101658923Y-108540190D01*
X101636284Y-108530813D01*
X101612251Y-108526033D01*
X101587747Y-108526033D01*
X101563714Y-108530814D01*
X101541077Y-108540190D01*
X101527309Y-108547549D01*
X101520295Y-108549677D01*
X101506860Y-108551000D01*
X101193140Y-108551000D01*
X101179705Y-108549677D01*
X101172691Y-108547549D01*
X101158923Y-108540190D01*
X101136284Y-108530813D01*
X101112251Y-108526033D01*
X101087747Y-108526033D01*
X101063714Y-108530814D01*
X101041077Y-108540190D01*
X101027309Y-108547549D01*
X101020295Y-108549677D01*
X101006860Y-108551000D01*
X100693140Y-108551000D01*
X100679705Y-108549677D01*
X100672691Y-108547549D01*
X100658923Y-108540190D01*
X100636284Y-108530813D01*
X100612251Y-108526033D01*
X100587747Y-108526033D01*
X100563714Y-108530814D01*
X100541077Y-108540190D01*
X100527309Y-108547549D01*
X100520295Y-108549677D01*
X100506860Y-108551000D01*
X100193140Y-108551000D01*
X100179705Y-108549677D01*
X100172691Y-108547549D01*
X100158923Y-108540190D01*
X100136284Y-108530813D01*
X100112251Y-108526033D01*
X100087747Y-108526033D01*
X100063714Y-108530814D01*
X100041077Y-108540190D01*
X100027309Y-108547549D01*
X100020295Y-108549677D01*
X100006860Y-108551000D01*
X99693140Y-108551000D01*
X99679705Y-108549677D01*
X99672691Y-108547549D01*
X99658923Y-108540190D01*
X99636284Y-108530813D01*
X99612251Y-108526033D01*
X99587747Y-108526033D01*
X99563714Y-108530814D01*
X99541077Y-108540190D01*
X99527309Y-108547549D01*
X99520295Y-108549677D01*
X99506860Y-108551000D01*
X99193140Y-108551000D01*
X99179705Y-108549677D01*
X99172691Y-108547549D01*
X99158923Y-108540190D01*
X99136284Y-108530813D01*
X99112251Y-108526033D01*
X99087747Y-108526033D01*
X99063714Y-108530814D01*
X99041077Y-108540190D01*
X99027309Y-108547549D01*
X99020295Y-108549677D01*
X99006860Y-108551000D01*
X98693140Y-108551000D01*
X98679705Y-108549677D01*
X98672691Y-108547549D01*
X98658923Y-108540190D01*
X98636284Y-108530813D01*
X98612251Y-108526033D01*
X98587747Y-108526033D01*
X98563714Y-108530814D01*
X98541077Y-108540190D01*
X98527309Y-108547549D01*
X98520295Y-108549677D01*
X98506860Y-108551000D01*
X98193140Y-108551000D01*
X98179705Y-108549677D01*
X98172691Y-108547549D01*
X98158923Y-108540190D01*
X98136284Y-108530813D01*
X98112251Y-108526033D01*
X98087747Y-108526033D01*
X98063714Y-108530814D01*
X98041077Y-108540190D01*
X98027309Y-108547549D01*
X98020295Y-108549677D01*
X98006860Y-108551000D01*
X97693140Y-108551000D01*
X97679705Y-108549677D01*
X97672691Y-108547549D01*
X97658923Y-108540190D01*
X97636284Y-108530813D01*
X97612251Y-108526033D01*
X97587747Y-108526033D01*
X97563714Y-108530814D01*
X97541077Y-108540190D01*
X97527309Y-108547549D01*
X97520295Y-108549677D01*
X97506860Y-108551000D01*
X97193140Y-108551000D01*
X97179705Y-108549677D01*
X97172691Y-108547549D01*
X97158923Y-108540190D01*
X97136284Y-108530813D01*
X97112251Y-108526033D01*
X97087747Y-108526033D01*
X97063714Y-108530814D01*
X97041077Y-108540190D01*
X97027309Y-108547549D01*
X97020295Y-108549677D01*
X97006860Y-108551000D01*
X96693140Y-108551000D01*
X96679705Y-108549677D01*
X96672690Y-108547549D01*
X96666224Y-108544092D01*
X96660558Y-108539442D01*
X96655908Y-108533776D01*
X96652451Y-108527310D01*
X96650323Y-108520295D01*
X96649000Y-108506860D01*
X96649000Y-106943140D01*
X96650323Y-106929705D01*
X96652451Y-106922690D01*
X96655908Y-106916224D01*
X96660558Y-106910558D01*
X96666224Y-106905908D01*
X96672690Y-106902451D01*
X96679705Y-106900323D01*
X96693140Y-106899000D01*
X97006860Y-106899000D01*
X97020295Y-106900323D01*
X97020295Y-106900323D01*
G37*
G36*
X87142091Y-105278085D02*
G01*
X87176069Y-105288393D01*
X87207390Y-105305134D01*
X87234839Y-105327661D01*
X87257366Y-105355110D01*
X87274107Y-105386431D01*
X87284415Y-105420409D01*
X87288500Y-105461890D01*
X87288500Y-106138110D01*
X87284415Y-106179591D01*
X87274107Y-106213569D01*
X87257366Y-106244890D01*
X87234839Y-106272339D01*
X87207390Y-106294866D01*
X87176069Y-106311607D01*
X87142091Y-106321915D01*
X87100610Y-106326000D01*
X86499390Y-106326000D01*
X86457909Y-106321915D01*
X86423931Y-106311607D01*
X86392610Y-106294866D01*
X86365161Y-106272339D01*
X86342634Y-106244890D01*
X86325893Y-106213569D01*
X86315585Y-106179591D01*
X86311500Y-106138110D01*
X86311500Y-105461890D01*
X86315585Y-105420409D01*
X86325893Y-105386431D01*
X86342634Y-105355110D01*
X86365161Y-105327661D01*
X86392610Y-105305134D01*
X86423931Y-105288393D01*
X86457909Y-105278085D01*
X86499390Y-105274000D01*
X87100610Y-105274000D01*
X87142091Y-105278085D01*
X87142091Y-105278085D01*
G37*
G36*
X85567091Y-105278085D02*
G01*
X85601069Y-105288393D01*
X85632390Y-105305134D01*
X85659839Y-105327661D01*
X85682366Y-105355110D01*
X85699107Y-105386431D01*
X85709415Y-105420409D01*
X85713500Y-105461890D01*
X85713500Y-106138110D01*
X85709415Y-106179591D01*
X85699107Y-106213569D01*
X85682366Y-106244890D01*
X85659839Y-106272339D01*
X85632390Y-106294866D01*
X85601069Y-106311607D01*
X85567091Y-106321915D01*
X85525610Y-106326000D01*
X84924390Y-106326000D01*
X84882909Y-106321915D01*
X84848931Y-106311607D01*
X84817610Y-106294866D01*
X84790161Y-106272339D01*
X84767634Y-106244890D01*
X84750893Y-106213569D01*
X84740585Y-106179591D01*
X84736500Y-106138110D01*
X84736500Y-105461890D01*
X84740585Y-105420409D01*
X84750893Y-105386431D01*
X84767634Y-105355110D01*
X84790161Y-105327661D01*
X84817610Y-105305134D01*
X84848931Y-105288393D01*
X84882909Y-105278085D01*
X84924390Y-105274000D01*
X85525610Y-105274000D01*
X85567091Y-105278085D01*
X85567091Y-105278085D01*
G37*
G36*
X107070295Y-98100323D02*
G01*
X107077310Y-98102451D01*
X107083776Y-98105908D01*
X107089442Y-98110558D01*
X107094092Y-98116224D01*
X107097549Y-98122690D01*
X107099677Y-98129705D01*
X107101000Y-98143140D01*
X107101000Y-98456860D01*
X107099677Y-98470295D01*
X107097549Y-98477309D01*
X107090190Y-98491077D01*
X107080813Y-98513716D01*
X107076033Y-98537749D01*
X107076033Y-98562253D01*
X107080814Y-98586286D01*
X107090190Y-98608923D01*
X107097549Y-98622691D01*
X107099677Y-98629705D01*
X107101000Y-98643140D01*
X107101000Y-98956860D01*
X107099677Y-98970295D01*
X107097549Y-98977309D01*
X107090190Y-98991077D01*
X107080813Y-99013716D01*
X107076033Y-99037749D01*
X107076033Y-99062253D01*
X107080814Y-99086286D01*
X107090190Y-99108923D01*
X107097549Y-99122691D01*
X107099677Y-99129705D01*
X107101000Y-99143140D01*
X107101000Y-99456860D01*
X107099677Y-99470295D01*
X107097549Y-99477309D01*
X107090190Y-99491077D01*
X107080813Y-99513716D01*
X107076033Y-99537749D01*
X107076033Y-99562253D01*
X107080814Y-99586286D01*
X107090190Y-99608923D01*
X107097549Y-99622691D01*
X107099677Y-99629705D01*
X107101000Y-99643140D01*
X107101000Y-99956860D01*
X107099677Y-99970295D01*
X107097549Y-99977309D01*
X107090190Y-99991077D01*
X107080813Y-100013716D01*
X107076033Y-100037749D01*
X107076033Y-100062253D01*
X107080814Y-100086286D01*
X107090190Y-100108923D01*
X107097549Y-100122691D01*
X107099677Y-100129705D01*
X107101000Y-100143140D01*
X107101000Y-100456860D01*
X107099677Y-100470295D01*
X107097549Y-100477309D01*
X107090190Y-100491077D01*
X107080813Y-100513716D01*
X107076033Y-100537749D01*
X107076033Y-100562253D01*
X107080814Y-100586286D01*
X107090190Y-100608923D01*
X107097549Y-100622691D01*
X107099677Y-100629705D01*
X107101000Y-100643140D01*
X107101000Y-100956860D01*
X107099677Y-100970295D01*
X107097549Y-100977309D01*
X107090190Y-100991077D01*
X107080813Y-101013716D01*
X107076033Y-101037749D01*
X107076033Y-101062253D01*
X107080814Y-101086286D01*
X107090190Y-101108923D01*
X107097549Y-101122691D01*
X107099677Y-101129705D01*
X107101000Y-101143140D01*
X107101000Y-101456860D01*
X107099677Y-101470295D01*
X107097549Y-101477309D01*
X107090190Y-101491077D01*
X107080813Y-101513716D01*
X107076033Y-101537749D01*
X107076033Y-101562253D01*
X107080814Y-101586286D01*
X107090190Y-101608923D01*
X107097549Y-101622691D01*
X107099677Y-101629705D01*
X107101000Y-101643140D01*
X107101000Y-101956860D01*
X107099677Y-101970295D01*
X107097549Y-101977309D01*
X107090190Y-101991077D01*
X107080813Y-102013716D01*
X107076033Y-102037749D01*
X107076033Y-102062253D01*
X107080814Y-102086286D01*
X107090190Y-102108923D01*
X107097549Y-102122691D01*
X107099677Y-102129705D01*
X107101000Y-102143140D01*
X107101000Y-102456860D01*
X107099677Y-102470295D01*
X107097549Y-102477309D01*
X107090190Y-102491077D01*
X107080813Y-102513716D01*
X107076033Y-102537749D01*
X107076033Y-102562253D01*
X107080814Y-102586286D01*
X107090190Y-102608923D01*
X107097549Y-102622691D01*
X107099677Y-102629705D01*
X107101000Y-102643140D01*
X107101000Y-102956860D01*
X107099677Y-102970295D01*
X107097549Y-102977309D01*
X107090190Y-102991077D01*
X107080813Y-103013716D01*
X107076033Y-103037749D01*
X107076033Y-103062253D01*
X107080814Y-103086286D01*
X107090190Y-103108923D01*
X107097549Y-103122691D01*
X107099677Y-103129705D01*
X107101000Y-103143140D01*
X107101000Y-103456860D01*
X107099677Y-103470295D01*
X107097549Y-103477309D01*
X107090190Y-103491077D01*
X107080813Y-103513716D01*
X107076033Y-103537749D01*
X107076033Y-103562253D01*
X107080814Y-103586286D01*
X107090190Y-103608923D01*
X107097549Y-103622691D01*
X107099677Y-103629705D01*
X107101000Y-103643140D01*
X107101000Y-103956860D01*
X107099677Y-103970295D01*
X107097549Y-103977309D01*
X107090190Y-103991077D01*
X107080813Y-104013716D01*
X107076033Y-104037749D01*
X107076033Y-104062253D01*
X107080814Y-104086286D01*
X107090190Y-104108923D01*
X107097549Y-104122691D01*
X107099677Y-104129705D01*
X107101000Y-104143140D01*
X107101000Y-104456860D01*
X107099677Y-104470295D01*
X107097549Y-104477309D01*
X107090190Y-104491077D01*
X107080813Y-104513716D01*
X107076033Y-104537749D01*
X107076033Y-104562253D01*
X107080814Y-104586286D01*
X107090190Y-104608923D01*
X107097549Y-104622691D01*
X107099677Y-104629705D01*
X107101000Y-104643140D01*
X107101000Y-104956860D01*
X107099677Y-104970295D01*
X107097549Y-104977309D01*
X107090190Y-104991077D01*
X107080813Y-105013716D01*
X107076033Y-105037749D01*
X107076033Y-105062253D01*
X107080814Y-105086286D01*
X107090190Y-105108923D01*
X107097549Y-105122691D01*
X107099677Y-105129705D01*
X107101000Y-105143140D01*
X107101000Y-105456860D01*
X107099677Y-105470295D01*
X107097549Y-105477309D01*
X107090190Y-105491077D01*
X107080813Y-105513716D01*
X107076033Y-105537749D01*
X107076033Y-105562253D01*
X107080814Y-105586286D01*
X107090190Y-105608923D01*
X107097549Y-105622691D01*
X107099677Y-105629705D01*
X107101000Y-105643140D01*
X107101000Y-105956860D01*
X107099677Y-105970295D01*
X107097549Y-105977310D01*
X107094092Y-105983776D01*
X107089442Y-105989442D01*
X107083776Y-105994092D01*
X107077310Y-105997549D01*
X107070295Y-105999677D01*
X107056860Y-106001000D01*
X105493140Y-106001000D01*
X105479705Y-105999677D01*
X105472690Y-105997549D01*
X105466224Y-105994092D01*
X105460558Y-105989442D01*
X105455908Y-105983776D01*
X105452451Y-105977310D01*
X105450323Y-105970295D01*
X105449000Y-105956860D01*
X105449000Y-105643140D01*
X105450323Y-105629705D01*
X105452451Y-105622691D01*
X105459810Y-105608923D01*
X105469187Y-105586284D01*
X105473967Y-105562251D01*
X105473967Y-105537747D01*
X105469186Y-105513714D01*
X105459810Y-105491077D01*
X105452451Y-105477309D01*
X105450323Y-105470295D01*
X105449000Y-105456860D01*
X105449000Y-105143140D01*
X105450323Y-105129705D01*
X105452451Y-105122691D01*
X105459810Y-105108923D01*
X105469187Y-105086284D01*
X105473967Y-105062251D01*
X105473967Y-105037747D01*
X105469186Y-105013714D01*
X105459810Y-104991077D01*
X105452451Y-104977309D01*
X105450323Y-104970295D01*
X105449000Y-104956860D01*
X105449000Y-104643140D01*
X105450323Y-104629705D01*
X105452451Y-104622691D01*
X105459810Y-104608923D01*
X105469187Y-104586284D01*
X105473967Y-104562251D01*
X105473967Y-104537747D01*
X105469186Y-104513714D01*
X105459810Y-104491077D01*
X105452451Y-104477309D01*
X105450323Y-104470295D01*
X105449000Y-104456860D01*
X105449000Y-104143140D01*
X105450323Y-104129705D01*
X105452451Y-104122691D01*
X105459810Y-104108923D01*
X105469187Y-104086284D01*
X105473967Y-104062251D01*
X105473967Y-104037747D01*
X105469186Y-104013714D01*
X105459810Y-103991077D01*
X105452451Y-103977309D01*
X105450323Y-103970295D01*
X105449000Y-103956860D01*
X105449000Y-103643140D01*
X105450323Y-103629705D01*
X105452451Y-103622691D01*
X105459810Y-103608923D01*
X105469187Y-103586284D01*
X105473967Y-103562251D01*
X105473967Y-103537747D01*
X105469186Y-103513714D01*
X105459810Y-103491077D01*
X105452451Y-103477309D01*
X105450323Y-103470295D01*
X105449000Y-103456860D01*
X105449000Y-103143140D01*
X105450323Y-103129705D01*
X105452451Y-103122691D01*
X105459810Y-103108923D01*
X105469187Y-103086284D01*
X105473967Y-103062251D01*
X105473967Y-103037747D01*
X105469186Y-103013714D01*
X105459810Y-102991077D01*
X105452451Y-102977309D01*
X105450323Y-102970295D01*
X105449000Y-102956860D01*
X105449000Y-102643140D01*
X105450323Y-102629705D01*
X105452451Y-102622691D01*
X105459810Y-102608923D01*
X105469187Y-102586284D01*
X105473967Y-102562251D01*
X105473967Y-102537747D01*
X105469186Y-102513714D01*
X105459810Y-102491077D01*
X105452451Y-102477309D01*
X105450323Y-102470295D01*
X105449000Y-102456860D01*
X105449000Y-102143140D01*
X105450323Y-102129705D01*
X105452451Y-102122691D01*
X105459810Y-102108923D01*
X105469187Y-102086284D01*
X105473967Y-102062251D01*
X105473967Y-102037747D01*
X105469186Y-102013714D01*
X105459810Y-101991077D01*
X105452451Y-101977309D01*
X105450323Y-101970295D01*
X105449000Y-101956860D01*
X105449000Y-101643140D01*
X105450323Y-101629705D01*
X105452451Y-101622691D01*
X105459810Y-101608923D01*
X105469187Y-101586284D01*
X105473967Y-101562251D01*
X105473967Y-101537747D01*
X105469186Y-101513714D01*
X105459810Y-101491077D01*
X105452451Y-101477309D01*
X105450323Y-101470295D01*
X105449000Y-101456860D01*
X105449000Y-101143140D01*
X105450323Y-101129705D01*
X105452451Y-101122691D01*
X105459810Y-101108923D01*
X105469187Y-101086284D01*
X105473967Y-101062251D01*
X105473967Y-101037747D01*
X105469186Y-101013714D01*
X105459810Y-100991077D01*
X105452451Y-100977309D01*
X105450323Y-100970295D01*
X105449000Y-100956860D01*
X105449000Y-100643140D01*
X105450323Y-100629705D01*
X105452451Y-100622691D01*
X105459810Y-100608923D01*
X105469187Y-100586284D01*
X105473967Y-100562251D01*
X105473967Y-100537747D01*
X105469186Y-100513714D01*
X105459810Y-100491077D01*
X105452451Y-100477309D01*
X105450323Y-100470295D01*
X105449000Y-100456860D01*
X105449000Y-100143140D01*
X105450323Y-100129705D01*
X105452451Y-100122691D01*
X105459810Y-100108923D01*
X105469187Y-100086284D01*
X105473967Y-100062251D01*
X105473967Y-100037747D01*
X105469186Y-100013714D01*
X105459810Y-99991077D01*
X105452451Y-99977309D01*
X105450323Y-99970295D01*
X105449000Y-99956860D01*
X105449000Y-99643140D01*
X105450323Y-99629705D01*
X105452451Y-99622691D01*
X105459810Y-99608923D01*
X105469187Y-99586284D01*
X105473967Y-99562251D01*
X105473967Y-99537747D01*
X105469186Y-99513714D01*
X105459810Y-99491077D01*
X105452451Y-99477309D01*
X105450323Y-99470295D01*
X105449000Y-99456860D01*
X105449000Y-99143140D01*
X105450323Y-99129705D01*
X105452451Y-99122691D01*
X105459810Y-99108923D01*
X105469187Y-99086284D01*
X105473967Y-99062251D01*
X105473967Y-99037747D01*
X105469186Y-99013714D01*
X105459810Y-98991077D01*
X105452451Y-98977309D01*
X105450323Y-98970295D01*
X105449000Y-98956860D01*
X105449000Y-98643140D01*
X105450323Y-98629705D01*
X105452451Y-98622691D01*
X105459810Y-98608923D01*
X105469187Y-98586284D01*
X105473967Y-98562251D01*
X105473967Y-98537747D01*
X105469186Y-98513714D01*
X105459810Y-98491077D01*
X105452451Y-98477309D01*
X105450323Y-98470295D01*
X105449000Y-98456860D01*
X105449000Y-98143140D01*
X105450323Y-98129705D01*
X105452451Y-98122690D01*
X105455908Y-98116224D01*
X105460558Y-98110558D01*
X105466224Y-98105908D01*
X105472690Y-98102451D01*
X105479705Y-98100323D01*
X105493140Y-98099000D01*
X107056860Y-98099000D01*
X107070295Y-98100323D01*
X107070295Y-98100323D01*
G37*
G36*
X95720295Y-98100323D02*
G01*
X95727310Y-98102451D01*
X95733776Y-98105908D01*
X95739442Y-98110558D01*
X95744092Y-98116224D01*
X95747549Y-98122690D01*
X95749677Y-98129705D01*
X95751000Y-98143140D01*
X95751000Y-98456860D01*
X95749677Y-98470295D01*
X95747549Y-98477309D01*
X95740190Y-98491077D01*
X95730813Y-98513716D01*
X95726033Y-98537749D01*
X95726033Y-98562253D01*
X95730814Y-98586286D01*
X95740190Y-98608923D01*
X95747549Y-98622691D01*
X95749677Y-98629705D01*
X95751000Y-98643140D01*
X95751000Y-98956860D01*
X95749677Y-98970295D01*
X95747549Y-98977309D01*
X95740190Y-98991077D01*
X95730813Y-99013716D01*
X95726033Y-99037749D01*
X95726033Y-99062253D01*
X95730814Y-99086286D01*
X95740190Y-99108923D01*
X95747549Y-99122691D01*
X95749677Y-99129705D01*
X95751000Y-99143140D01*
X95751000Y-99456860D01*
X95749677Y-99470295D01*
X95747549Y-99477309D01*
X95740190Y-99491077D01*
X95730813Y-99513716D01*
X95726033Y-99537749D01*
X95726033Y-99562253D01*
X95730814Y-99586286D01*
X95740190Y-99608923D01*
X95747549Y-99622691D01*
X95749677Y-99629705D01*
X95751000Y-99643140D01*
X95751000Y-99956860D01*
X95749677Y-99970295D01*
X95747549Y-99977309D01*
X95740190Y-99991077D01*
X95730813Y-100013716D01*
X95726033Y-100037749D01*
X95726033Y-100062253D01*
X95730814Y-100086286D01*
X95740190Y-100108923D01*
X95747549Y-100122691D01*
X95749677Y-100129705D01*
X95751000Y-100143140D01*
X95751000Y-100456860D01*
X95749677Y-100470295D01*
X95747549Y-100477309D01*
X95740190Y-100491077D01*
X95730813Y-100513716D01*
X95726033Y-100537749D01*
X95726033Y-100562253D01*
X95730814Y-100586286D01*
X95740190Y-100608923D01*
X95747549Y-100622691D01*
X95749677Y-100629705D01*
X95751000Y-100643140D01*
X95751000Y-100956860D01*
X95749677Y-100970295D01*
X95747549Y-100977309D01*
X95740190Y-100991077D01*
X95730813Y-101013716D01*
X95726033Y-101037749D01*
X95726033Y-101062253D01*
X95730814Y-101086286D01*
X95740190Y-101108923D01*
X95747549Y-101122691D01*
X95749677Y-101129705D01*
X95751000Y-101143140D01*
X95751000Y-101456860D01*
X95749677Y-101470295D01*
X95747549Y-101477309D01*
X95740190Y-101491077D01*
X95730813Y-101513716D01*
X95726033Y-101537749D01*
X95726033Y-101562253D01*
X95730814Y-101586286D01*
X95740190Y-101608923D01*
X95747549Y-101622691D01*
X95749677Y-101629705D01*
X95751000Y-101643140D01*
X95751000Y-101956860D01*
X95749677Y-101970295D01*
X95747549Y-101977309D01*
X95740190Y-101991077D01*
X95730813Y-102013716D01*
X95726033Y-102037749D01*
X95726033Y-102062253D01*
X95730814Y-102086286D01*
X95740190Y-102108923D01*
X95747549Y-102122691D01*
X95749677Y-102129705D01*
X95751000Y-102143140D01*
X95751000Y-102456860D01*
X95749677Y-102470295D01*
X95747549Y-102477309D01*
X95740190Y-102491077D01*
X95730813Y-102513716D01*
X95726033Y-102537749D01*
X95726033Y-102562253D01*
X95730814Y-102586286D01*
X95740190Y-102608923D01*
X95747549Y-102622691D01*
X95749677Y-102629705D01*
X95751000Y-102643140D01*
X95751000Y-102956860D01*
X95749677Y-102970295D01*
X95747549Y-102977309D01*
X95740190Y-102991077D01*
X95730813Y-103013716D01*
X95726033Y-103037749D01*
X95726033Y-103062253D01*
X95730814Y-103086286D01*
X95740190Y-103108923D01*
X95747549Y-103122691D01*
X95749677Y-103129705D01*
X95751000Y-103143140D01*
X95751000Y-103456860D01*
X95749677Y-103470295D01*
X95747549Y-103477309D01*
X95740190Y-103491077D01*
X95730813Y-103513716D01*
X95726033Y-103537749D01*
X95726033Y-103562253D01*
X95730814Y-103586286D01*
X95740190Y-103608923D01*
X95747549Y-103622691D01*
X95749677Y-103629705D01*
X95751000Y-103643140D01*
X95751000Y-103956860D01*
X95749677Y-103970295D01*
X95747549Y-103977309D01*
X95740190Y-103991077D01*
X95730813Y-104013716D01*
X95726033Y-104037749D01*
X95726033Y-104062253D01*
X95730814Y-104086286D01*
X95740190Y-104108923D01*
X95747549Y-104122691D01*
X95749677Y-104129705D01*
X95751000Y-104143140D01*
X95751000Y-104456860D01*
X95749677Y-104470295D01*
X95747549Y-104477309D01*
X95740190Y-104491077D01*
X95730813Y-104513716D01*
X95726033Y-104537749D01*
X95726033Y-104562253D01*
X95730814Y-104586286D01*
X95740190Y-104608923D01*
X95747549Y-104622691D01*
X95749677Y-104629705D01*
X95751000Y-104643140D01*
X95751000Y-104956860D01*
X95749677Y-104970295D01*
X95747549Y-104977309D01*
X95740190Y-104991077D01*
X95730813Y-105013716D01*
X95726033Y-105037749D01*
X95726033Y-105062253D01*
X95730814Y-105086286D01*
X95740190Y-105108923D01*
X95747549Y-105122691D01*
X95749677Y-105129705D01*
X95751000Y-105143140D01*
X95751000Y-105456860D01*
X95749677Y-105470295D01*
X95747549Y-105477309D01*
X95740190Y-105491077D01*
X95730813Y-105513716D01*
X95726033Y-105537749D01*
X95726033Y-105562253D01*
X95730814Y-105586286D01*
X95740190Y-105608923D01*
X95747549Y-105622691D01*
X95749677Y-105629705D01*
X95751000Y-105643140D01*
X95751000Y-105956860D01*
X95749677Y-105970295D01*
X95747549Y-105977310D01*
X95744092Y-105983776D01*
X95739442Y-105989442D01*
X95733776Y-105994092D01*
X95727310Y-105997549D01*
X95720295Y-105999677D01*
X95706860Y-106001000D01*
X94143140Y-106001000D01*
X94129705Y-105999677D01*
X94122690Y-105997549D01*
X94116224Y-105994092D01*
X94110558Y-105989442D01*
X94105908Y-105983776D01*
X94102451Y-105977310D01*
X94100323Y-105970295D01*
X94099000Y-105956860D01*
X94099000Y-105643140D01*
X94100323Y-105629705D01*
X94102451Y-105622691D01*
X94109810Y-105608923D01*
X94119187Y-105586284D01*
X94123967Y-105562251D01*
X94123967Y-105537747D01*
X94119186Y-105513714D01*
X94109810Y-105491077D01*
X94102451Y-105477309D01*
X94100323Y-105470295D01*
X94099000Y-105456860D01*
X94099000Y-105143140D01*
X94100323Y-105129705D01*
X94102451Y-105122691D01*
X94109810Y-105108923D01*
X94119187Y-105086284D01*
X94123967Y-105062251D01*
X94123967Y-105037747D01*
X94119186Y-105013714D01*
X94109810Y-104991077D01*
X94102451Y-104977309D01*
X94100323Y-104970295D01*
X94099000Y-104956860D01*
X94099000Y-104643140D01*
X94100323Y-104629705D01*
X94102451Y-104622691D01*
X94109810Y-104608923D01*
X94119187Y-104586284D01*
X94123967Y-104562251D01*
X94123967Y-104537747D01*
X94119186Y-104513714D01*
X94109810Y-104491077D01*
X94102451Y-104477309D01*
X94100323Y-104470295D01*
X94099000Y-104456860D01*
X94099000Y-104143140D01*
X94100323Y-104129705D01*
X94102451Y-104122691D01*
X94109810Y-104108923D01*
X94119187Y-104086284D01*
X94123967Y-104062251D01*
X94123967Y-104037747D01*
X94119186Y-104013714D01*
X94109810Y-103991077D01*
X94102451Y-103977309D01*
X94100323Y-103970295D01*
X94099000Y-103956860D01*
X94099000Y-103643140D01*
X94100323Y-103629705D01*
X94102451Y-103622691D01*
X94109810Y-103608923D01*
X94119187Y-103586284D01*
X94123967Y-103562251D01*
X94123967Y-103537747D01*
X94119186Y-103513714D01*
X94109810Y-103491077D01*
X94102451Y-103477309D01*
X94100323Y-103470295D01*
X94099000Y-103456860D01*
X94099000Y-103143140D01*
X94100323Y-103129705D01*
X94102451Y-103122691D01*
X94109810Y-103108923D01*
X94119187Y-103086284D01*
X94123967Y-103062251D01*
X94123967Y-103037747D01*
X94119186Y-103013714D01*
X94109810Y-102991077D01*
X94102451Y-102977309D01*
X94100323Y-102970295D01*
X94099000Y-102956860D01*
X94099000Y-102643140D01*
X94100323Y-102629705D01*
X94102451Y-102622691D01*
X94109810Y-102608923D01*
X94119187Y-102586284D01*
X94123967Y-102562251D01*
X94123967Y-102537747D01*
X94119186Y-102513714D01*
X94109810Y-102491077D01*
X94102451Y-102477309D01*
X94100323Y-102470295D01*
X94099000Y-102456860D01*
X94099000Y-102143140D01*
X94100323Y-102129705D01*
X94102451Y-102122691D01*
X94109810Y-102108923D01*
X94119187Y-102086284D01*
X94123967Y-102062251D01*
X94123967Y-102037747D01*
X94119186Y-102013714D01*
X94109810Y-101991077D01*
X94102451Y-101977309D01*
X94100323Y-101970295D01*
X94099000Y-101956860D01*
X94099000Y-101643140D01*
X94100323Y-101629705D01*
X94102451Y-101622691D01*
X94109810Y-101608923D01*
X94119187Y-101586284D01*
X94123967Y-101562251D01*
X94123967Y-101537747D01*
X94119186Y-101513714D01*
X94109810Y-101491077D01*
X94102451Y-101477309D01*
X94100323Y-101470295D01*
X94099000Y-101456860D01*
X94099000Y-101143140D01*
X94100323Y-101129705D01*
X94102451Y-101122691D01*
X94109810Y-101108923D01*
X94119187Y-101086284D01*
X94123967Y-101062251D01*
X94123967Y-101037747D01*
X94119186Y-101013714D01*
X94109810Y-100991077D01*
X94102451Y-100977309D01*
X94100323Y-100970295D01*
X94099000Y-100956860D01*
X94099000Y-100643140D01*
X94100323Y-100629705D01*
X94102451Y-100622691D01*
X94109810Y-100608923D01*
X94119187Y-100586284D01*
X94123967Y-100562251D01*
X94123967Y-100537747D01*
X94119186Y-100513714D01*
X94109810Y-100491077D01*
X94102451Y-100477309D01*
X94100323Y-100470295D01*
X94099000Y-100456860D01*
X94099000Y-100143140D01*
X94100323Y-100129705D01*
X94102451Y-100122691D01*
X94109810Y-100108923D01*
X94119187Y-100086284D01*
X94123967Y-100062251D01*
X94123967Y-100037747D01*
X94119186Y-100013714D01*
X94109810Y-99991077D01*
X94102451Y-99977309D01*
X94100323Y-99970295D01*
X94099000Y-99956860D01*
X94099000Y-99643140D01*
X94100323Y-99629705D01*
X94102451Y-99622691D01*
X94109810Y-99608923D01*
X94119187Y-99586284D01*
X94123967Y-99562251D01*
X94123967Y-99537747D01*
X94119186Y-99513714D01*
X94109810Y-99491077D01*
X94102451Y-99477309D01*
X94100323Y-99470295D01*
X94099000Y-99456860D01*
X94099000Y-99143140D01*
X94100323Y-99129705D01*
X94102451Y-99122691D01*
X94109810Y-99108923D01*
X94119187Y-99086284D01*
X94123967Y-99062251D01*
X94123967Y-99037747D01*
X94119186Y-99013714D01*
X94109810Y-98991077D01*
X94102451Y-98977309D01*
X94100323Y-98970295D01*
X94099000Y-98956860D01*
X94099000Y-98643140D01*
X94100323Y-98629705D01*
X94102451Y-98622691D01*
X94109810Y-98608923D01*
X94119187Y-98586284D01*
X94123967Y-98562251D01*
X94123967Y-98537747D01*
X94119186Y-98513714D01*
X94109810Y-98491077D01*
X94102451Y-98477309D01*
X94100323Y-98470295D01*
X94099000Y-98456860D01*
X94099000Y-98143140D01*
X94100323Y-98129705D01*
X94102451Y-98122690D01*
X94105908Y-98116224D01*
X94110558Y-98110558D01*
X94116224Y-98105908D01*
X94122690Y-98102451D01*
X94129705Y-98100323D01*
X94143140Y-98099000D01*
X95706860Y-98099000D01*
X95720295Y-98100323D01*
X95720295Y-98100323D01*
G37*
G36*
X113479591Y-103715085D02*
G01*
X113513569Y-103725393D01*
X113544890Y-103742134D01*
X113572339Y-103764661D01*
X113594866Y-103792110D01*
X113611607Y-103823431D01*
X113621915Y-103857409D01*
X113626000Y-103898890D01*
X113626000Y-104500110D01*
X113621915Y-104541591D01*
X113611607Y-104575569D01*
X113594866Y-104606890D01*
X113572339Y-104634339D01*
X113544890Y-104656866D01*
X113513569Y-104673607D01*
X113479591Y-104683915D01*
X113438110Y-104688000D01*
X112761890Y-104688000D01*
X112720409Y-104683915D01*
X112686431Y-104673607D01*
X112655110Y-104656866D01*
X112627661Y-104634339D01*
X112605134Y-104606890D01*
X112588393Y-104575569D01*
X112578085Y-104541591D01*
X112574000Y-104500110D01*
X112574000Y-103898890D01*
X112578085Y-103857409D01*
X112588393Y-103823431D01*
X112605134Y-103792110D01*
X112627661Y-103764661D01*
X112655110Y-103742134D01*
X112686431Y-103725393D01*
X112720409Y-103715085D01*
X112761890Y-103711000D01*
X113438110Y-103711000D01*
X113479591Y-103715085D01*
X113479591Y-103715085D01*
G37*
G36*
X110810443Y-102825519D02*
G01*
X110876627Y-102832037D01*
X111046466Y-102883557D01*
X111202991Y-102967222D01*
X111232058Y-102991077D01*
X111340186Y-103079814D01*
X111422070Y-103179591D01*
X111452778Y-103217009D01*
X111536443Y-103373534D01*
X111587963Y-103543373D01*
X111605359Y-103720000D01*
X111587963Y-103896627D01*
X111536443Y-104066466D01*
X111452778Y-104222991D01*
X111447361Y-104229591D01*
X111340186Y-104360186D01*
X111244198Y-104438960D01*
X111202991Y-104472778D01*
X111202989Y-104472779D01*
X111081444Y-104537747D01*
X111046466Y-104556443D01*
X110876627Y-104607963D01*
X110810442Y-104614482D01*
X110744260Y-104621000D01*
X110655740Y-104621000D01*
X110589558Y-104614482D01*
X110523373Y-104607963D01*
X110353534Y-104556443D01*
X110318557Y-104537747D01*
X110197011Y-104472779D01*
X110197009Y-104472778D01*
X110155802Y-104438960D01*
X110059814Y-104360186D01*
X109952639Y-104229591D01*
X109947222Y-104222991D01*
X109863557Y-104066466D01*
X109812037Y-103896627D01*
X109794641Y-103720000D01*
X109812037Y-103543373D01*
X109863557Y-103373534D01*
X109947222Y-103217009D01*
X109977930Y-103179591D01*
X110059814Y-103079814D01*
X110167942Y-102991077D01*
X110197009Y-102967222D01*
X110353534Y-102883557D01*
X110523373Y-102832037D01*
X110589558Y-102825518D01*
X110655740Y-102819000D01*
X110744260Y-102819000D01*
X110810443Y-102825519D01*
X110810443Y-102825519D01*
G37*
G36*
X92379591Y-103403085D02*
G01*
X92413569Y-103413393D01*
X92444890Y-103430134D01*
X92472339Y-103452661D01*
X92494866Y-103480110D01*
X92511607Y-103511431D01*
X92521915Y-103545409D01*
X92526000Y-103586890D01*
X92526000Y-104188110D01*
X92521915Y-104229591D01*
X92511607Y-104263569D01*
X92494866Y-104294890D01*
X92472339Y-104322339D01*
X92444890Y-104344866D01*
X92413569Y-104361607D01*
X92379591Y-104371915D01*
X92338110Y-104376000D01*
X91661890Y-104376000D01*
X91620409Y-104371915D01*
X91586431Y-104361607D01*
X91555110Y-104344866D01*
X91527661Y-104322339D01*
X91505134Y-104294890D01*
X91488393Y-104263569D01*
X91478085Y-104229591D01*
X91474000Y-104188110D01*
X91474000Y-103586890D01*
X91478085Y-103545409D01*
X91488393Y-103511431D01*
X91505134Y-103480110D01*
X91527661Y-103452661D01*
X91555110Y-103430134D01*
X91586431Y-103413393D01*
X91620409Y-103403085D01*
X91661890Y-103399000D01*
X92338110Y-103399000D01*
X92379591Y-103403085D01*
X92379591Y-103403085D01*
G37*
G36*
X89410442Y-101885518D02*
G01*
X89476627Y-101892037D01*
X89646466Y-101943557D01*
X89802991Y-102027222D01*
X89815818Y-102037749D01*
X89940186Y-102139814D01*
X90002023Y-102215164D01*
X90052778Y-102277009D01*
X90052779Y-102277011D01*
X90129428Y-102420409D01*
X90136443Y-102433534D01*
X90187963Y-102603373D01*
X90205359Y-102780000D01*
X90187963Y-102956627D01*
X90137588Y-103122691D01*
X90136442Y-103126468D01*
X90127250Y-103143665D01*
X90052778Y-103282991D01*
X90043032Y-103294866D01*
X89940186Y-103420186D01*
X89851034Y-103493350D01*
X89802991Y-103532778D01*
X89646466Y-103616443D01*
X89476627Y-103667963D01*
X89410442Y-103674482D01*
X89344260Y-103681000D01*
X89255740Y-103681000D01*
X89189558Y-103674482D01*
X89123373Y-103667963D01*
X88953534Y-103616443D01*
X88797009Y-103532778D01*
X88748966Y-103493350D01*
X88659814Y-103420186D01*
X88556968Y-103294866D01*
X88547222Y-103282991D01*
X88472750Y-103143665D01*
X88463558Y-103126468D01*
X88462412Y-103122691D01*
X88412037Y-102956627D01*
X88394641Y-102780000D01*
X88412037Y-102603373D01*
X88463557Y-102433534D01*
X88470573Y-102420409D01*
X88547221Y-102277011D01*
X88547222Y-102277009D01*
X88597977Y-102215164D01*
X88659814Y-102139814D01*
X88784182Y-102037749D01*
X88797009Y-102027222D01*
X88953534Y-101943557D01*
X89123373Y-101892037D01*
X89189558Y-101885518D01*
X89255740Y-101879000D01*
X89344260Y-101879000D01*
X89410442Y-101885518D01*
X89410442Y-101885518D01*
G37*
G36*
X116254591Y-102278085D02*
G01*
X116288569Y-102288393D01*
X116319890Y-102305134D01*
X116347339Y-102327661D01*
X116369866Y-102355110D01*
X116386607Y-102386431D01*
X116396915Y-102420409D01*
X116401000Y-102461890D01*
X116401000Y-103138110D01*
X116396915Y-103179591D01*
X116386607Y-103213569D01*
X116369866Y-103244890D01*
X116347339Y-103272339D01*
X116319890Y-103294866D01*
X116288569Y-103311607D01*
X116254591Y-103321915D01*
X116213110Y-103326000D01*
X115611890Y-103326000D01*
X115570409Y-103321915D01*
X115536431Y-103311607D01*
X115505110Y-103294866D01*
X115477661Y-103272339D01*
X115455134Y-103244890D01*
X115438393Y-103213569D01*
X115428085Y-103179591D01*
X115424000Y-103138110D01*
X115424000Y-102461890D01*
X115428085Y-102420409D01*
X115438393Y-102386431D01*
X115455134Y-102355110D01*
X115477661Y-102327661D01*
X115505110Y-102305134D01*
X115536431Y-102288393D01*
X115570409Y-102278085D01*
X115611890Y-102274000D01*
X116213110Y-102274000D01*
X116254591Y-102278085D01*
X116254591Y-102278085D01*
G37*
G36*
X117829591Y-102278085D02*
G01*
X117863569Y-102288393D01*
X117894890Y-102305134D01*
X117922339Y-102327661D01*
X117944866Y-102355110D01*
X117961607Y-102386431D01*
X117971915Y-102420409D01*
X117976000Y-102461890D01*
X117976000Y-103138110D01*
X117971915Y-103179591D01*
X117961607Y-103213569D01*
X117944866Y-103244890D01*
X117922339Y-103272339D01*
X117894890Y-103294866D01*
X117863569Y-103311607D01*
X117829591Y-103321915D01*
X117788110Y-103326000D01*
X117186890Y-103326000D01*
X117145409Y-103321915D01*
X117111431Y-103311607D01*
X117080110Y-103294866D01*
X117052661Y-103272339D01*
X117030134Y-103244890D01*
X117013393Y-103213569D01*
X117003085Y-103179591D01*
X116999000Y-103138110D01*
X116999000Y-102461890D01*
X117003085Y-102420409D01*
X117013393Y-102386431D01*
X117030134Y-102355110D01*
X117052661Y-102327661D01*
X117080110Y-102305134D01*
X117111431Y-102288393D01*
X117145409Y-102278085D01*
X117186890Y-102274000D01*
X117788110Y-102274000D01*
X117829591Y-102278085D01*
X117829591Y-102278085D01*
G37*
G36*
X84429591Y-102178085D02*
G01*
X84463569Y-102188393D01*
X84494890Y-102205134D01*
X84522339Y-102227661D01*
X84544866Y-102255110D01*
X84561607Y-102286431D01*
X84571915Y-102320409D01*
X84576000Y-102361890D01*
X84576000Y-103038110D01*
X84571915Y-103079591D01*
X84561607Y-103113569D01*
X84544866Y-103144890D01*
X84522339Y-103172339D01*
X84494890Y-103194866D01*
X84463569Y-103211607D01*
X84429591Y-103221915D01*
X84388110Y-103226000D01*
X83786890Y-103226000D01*
X83745409Y-103221915D01*
X83711431Y-103211607D01*
X83680110Y-103194866D01*
X83652661Y-103172339D01*
X83630134Y-103144890D01*
X83613393Y-103113569D01*
X83603085Y-103079591D01*
X83599000Y-103038110D01*
X83599000Y-102361890D01*
X83603085Y-102320409D01*
X83613393Y-102286431D01*
X83630134Y-102255110D01*
X83652661Y-102227661D01*
X83680110Y-102205134D01*
X83711431Y-102188393D01*
X83745409Y-102178085D01*
X83786890Y-102174000D01*
X84388110Y-102174000D01*
X84429591Y-102178085D01*
X84429591Y-102178085D01*
G37*
G36*
X82854591Y-102178085D02*
G01*
X82888569Y-102188393D01*
X82919890Y-102205134D01*
X82947339Y-102227661D01*
X82969866Y-102255110D01*
X82986607Y-102286431D01*
X82996915Y-102320409D01*
X83001000Y-102361890D01*
X83001000Y-103038110D01*
X82996915Y-103079591D01*
X82986607Y-103113569D01*
X82969866Y-103144890D01*
X82947339Y-103172339D01*
X82919890Y-103194866D01*
X82888569Y-103211607D01*
X82854591Y-103221915D01*
X82813110Y-103226000D01*
X82211890Y-103226000D01*
X82170409Y-103221915D01*
X82136431Y-103211607D01*
X82105110Y-103194866D01*
X82077661Y-103172339D01*
X82055134Y-103144890D01*
X82038393Y-103113569D01*
X82028085Y-103079591D01*
X82024000Y-103038110D01*
X82024000Y-102361890D01*
X82028085Y-102320409D01*
X82038393Y-102286431D01*
X82055134Y-102255110D01*
X82077661Y-102227661D01*
X82105110Y-102205134D01*
X82136431Y-102188393D01*
X82170409Y-102178085D01*
X82211890Y-102174000D01*
X82813110Y-102174000D01*
X82854591Y-102178085D01*
X82854591Y-102178085D01*
G37*
G36*
X113479591Y-102140085D02*
G01*
X113513569Y-102150393D01*
X113544890Y-102167134D01*
X113572339Y-102189661D01*
X113594866Y-102217110D01*
X113611607Y-102248431D01*
X113621915Y-102282409D01*
X113626000Y-102323890D01*
X113626000Y-102925110D01*
X113621915Y-102966591D01*
X113611607Y-103000569D01*
X113594866Y-103031890D01*
X113572339Y-103059339D01*
X113544890Y-103081866D01*
X113513569Y-103098607D01*
X113479591Y-103108915D01*
X113438110Y-103113000D01*
X112761890Y-103113000D01*
X112720409Y-103108915D01*
X112686431Y-103098607D01*
X112655110Y-103081866D01*
X112627661Y-103059339D01*
X112605134Y-103031890D01*
X112588393Y-103000569D01*
X112578085Y-102966591D01*
X112574000Y-102925110D01*
X112574000Y-102323890D01*
X112578085Y-102282409D01*
X112588393Y-102248431D01*
X112605134Y-102217110D01*
X112627661Y-102189661D01*
X112655110Y-102167134D01*
X112686431Y-102150393D01*
X112720409Y-102140085D01*
X112761890Y-102136000D01*
X113438110Y-102136000D01*
X113479591Y-102140085D01*
X113479591Y-102140085D01*
G37*
G36*
X92379591Y-101828085D02*
G01*
X92413569Y-101838393D01*
X92444890Y-101855134D01*
X92472339Y-101877661D01*
X92494866Y-101905110D01*
X92511607Y-101936431D01*
X92521915Y-101970409D01*
X92526000Y-102011890D01*
X92526000Y-102613110D01*
X92521915Y-102654591D01*
X92511607Y-102688569D01*
X92494866Y-102719890D01*
X92472339Y-102747339D01*
X92444890Y-102769866D01*
X92413569Y-102786607D01*
X92379591Y-102796915D01*
X92338110Y-102801000D01*
X91661890Y-102801000D01*
X91620409Y-102796915D01*
X91586431Y-102786607D01*
X91555110Y-102769866D01*
X91527661Y-102747339D01*
X91505134Y-102719890D01*
X91488393Y-102688569D01*
X91478085Y-102654591D01*
X91474000Y-102613110D01*
X91474000Y-102011890D01*
X91478085Y-101970409D01*
X91488393Y-101936431D01*
X91505134Y-101905110D01*
X91527661Y-101877661D01*
X91555110Y-101855134D01*
X91586431Y-101838393D01*
X91620409Y-101828085D01*
X91661890Y-101824000D01*
X92338110Y-101824000D01*
X92379591Y-101828085D01*
X92379591Y-101828085D01*
G37*
G36*
X110810443Y-100285519D02*
G01*
X110876627Y-100292037D01*
X111046466Y-100343557D01*
X111202991Y-100427222D01*
X111223474Y-100444032D01*
X111340186Y-100539814D01*
X111423448Y-100641271D01*
X111452778Y-100677009D01*
X111464800Y-100699500D01*
X111534724Y-100830317D01*
X111536443Y-100833534D01*
X111587963Y-101003373D01*
X111605359Y-101180000D01*
X111587963Y-101356627D01*
X111536443Y-101526466D01*
X111452778Y-101682991D01*
X111439229Y-101699500D01*
X111340186Y-101820186D01*
X111252634Y-101892037D01*
X111202991Y-101932778D01*
X111046466Y-102016443D01*
X110876627Y-102067963D01*
X110810443Y-102074481D01*
X110744260Y-102081000D01*
X110655740Y-102081000D01*
X110589558Y-102074482D01*
X110523373Y-102067963D01*
X110353534Y-102016443D01*
X110197009Y-101932778D01*
X110147366Y-101892037D01*
X110059814Y-101820186D01*
X109960771Y-101699500D01*
X109947222Y-101682991D01*
X109863557Y-101526466D01*
X109812037Y-101356627D01*
X109794641Y-101180000D01*
X109812037Y-101003373D01*
X109863557Y-100833534D01*
X109865277Y-100830317D01*
X109935200Y-100699500D01*
X109947222Y-100677009D01*
X109976552Y-100641271D01*
X110059814Y-100539814D01*
X110176526Y-100444032D01*
X110197009Y-100427222D01*
X110353534Y-100343557D01*
X110523373Y-100292037D01*
X110589557Y-100285519D01*
X110655740Y-100279000D01*
X110744260Y-100279000D01*
X110810443Y-100285519D01*
X110810443Y-100285519D01*
G37*
G36*
X84386000Y-99576000D02*
G01*
X82946094Y-99576000D01*
X82921708Y-99578402D01*
X82898259Y-99585515D01*
X82876648Y-99597066D01*
X82857706Y-99612611D01*
X82842161Y-99631553D01*
X82830610Y-99653164D01*
X82823497Y-99676613D01*
X82821095Y-99700999D01*
X82823497Y-99725385D01*
X82830168Y-99747375D01*
X82863500Y-99914951D01*
X82863500Y-100085049D01*
X82830168Y-100252625D01*
X82823497Y-100274615D01*
X82821095Y-100299001D01*
X82823497Y-100323387D01*
X82830610Y-100346836D01*
X82842161Y-100368447D01*
X82857706Y-100387389D01*
X82876648Y-100402934D01*
X82898259Y-100414485D01*
X82921708Y-100421598D01*
X82946094Y-100424000D01*
X84386000Y-100424000D01*
X84386000Y-101251000D01*
X82940000Y-101251000D01*
X82940000Y-100559516D01*
X82937598Y-100535130D01*
X82930485Y-100511681D01*
X82918934Y-100490070D01*
X82903389Y-100471128D01*
X82884447Y-100455583D01*
X82862836Y-100444032D01*
X82839387Y-100436919D01*
X82815001Y-100434517D01*
X82790615Y-100436919D01*
X82767166Y-100444032D01*
X82745555Y-100455583D01*
X82726613Y-100471128D01*
X82711069Y-100490070D01*
X82670728Y-100550444D01*
X82670726Y-100550446D01*
X82670724Y-100550449D01*
X82550449Y-100670724D01*
X82409021Y-100765224D01*
X82409020Y-100765225D01*
X82409019Y-100765225D01*
X82251874Y-100830317D01*
X82085049Y-100863500D01*
X81914951Y-100863500D01*
X81748126Y-100830317D01*
X81590981Y-100765225D01*
X81590980Y-100765225D01*
X81590979Y-100765224D01*
X81449551Y-100670724D01*
X81329276Y-100550449D01*
X81234776Y-100409021D01*
X81234775Y-100409019D01*
X81169683Y-100251874D01*
X81136500Y-100085049D01*
X81136500Y-99914951D01*
X81169683Y-99748126D01*
X81234775Y-99590981D01*
X81253417Y-99563081D01*
X81329276Y-99449551D01*
X81449551Y-99329276D01*
X81590979Y-99234776D01*
X81590981Y-99234775D01*
X81748126Y-99169683D01*
X81914951Y-99136500D01*
X82085049Y-99136500D01*
X82251874Y-99169683D01*
X82409019Y-99234775D01*
X82409021Y-99234776D01*
X82550449Y-99329276D01*
X82670724Y-99449551D01*
X82670725Y-99449553D01*
X82670728Y-99449556D01*
X82711069Y-99509930D01*
X82726614Y-99528872D01*
X82745556Y-99544417D01*
X82767167Y-99555968D01*
X82790616Y-99563081D01*
X82815002Y-99565483D01*
X82839388Y-99563081D01*
X82862837Y-99555968D01*
X82884447Y-99544416D01*
X82903389Y-99528871D01*
X82918934Y-99509929D01*
X82930485Y-99488318D01*
X82937598Y-99464869D01*
X82940000Y-99440484D01*
X82940000Y-98749000D01*
X84386000Y-98749000D01*
X84386000Y-99576000D01*
X84386000Y-99576000D01*
G37*
G36*
X117060000Y-99440484D02*
G01*
X117062402Y-99464870D01*
X117069515Y-99488319D01*
X117081066Y-99509930D01*
X117096611Y-99528872D01*
X117115553Y-99544417D01*
X117137164Y-99555968D01*
X117160613Y-99563081D01*
X117184999Y-99565483D01*
X117209385Y-99563081D01*
X117232834Y-99555968D01*
X117254445Y-99544417D01*
X117273387Y-99528872D01*
X117288931Y-99509930D01*
X117329272Y-99449556D01*
X117329275Y-99449553D01*
X117329276Y-99449551D01*
X117449551Y-99329276D01*
X117590979Y-99234776D01*
X117590981Y-99234775D01*
X117748126Y-99169683D01*
X117914951Y-99136500D01*
X118085049Y-99136500D01*
X118251874Y-99169683D01*
X118409019Y-99234775D01*
X118409021Y-99234776D01*
X118550449Y-99329276D01*
X118670724Y-99449551D01*
X118746583Y-99563081D01*
X118765225Y-99590981D01*
X118830317Y-99748126D01*
X118863500Y-99914951D01*
X118863500Y-100085049D01*
X118830317Y-100251874D01*
X118765225Y-100409019D01*
X118765224Y-100409021D01*
X118670724Y-100550449D01*
X118550449Y-100670724D01*
X118409021Y-100765224D01*
X118409020Y-100765225D01*
X118409019Y-100765225D01*
X118251874Y-100830317D01*
X118085049Y-100863500D01*
X117914951Y-100863500D01*
X117748126Y-100830317D01*
X117590981Y-100765225D01*
X117590980Y-100765225D01*
X117590979Y-100765224D01*
X117449551Y-100670724D01*
X117329276Y-100550449D01*
X117329274Y-100550446D01*
X117329272Y-100550444D01*
X117288931Y-100490070D01*
X117273386Y-100471128D01*
X117254444Y-100455583D01*
X117232833Y-100444032D01*
X117209384Y-100436919D01*
X117184998Y-100434517D01*
X117160612Y-100436919D01*
X117137163Y-100444032D01*
X117115553Y-100455584D01*
X117096611Y-100471129D01*
X117081066Y-100490071D01*
X117069515Y-100511682D01*
X117062402Y-100535131D01*
X117060000Y-100559516D01*
X117060000Y-101251000D01*
X115614000Y-101251000D01*
X115614000Y-100424000D01*
X117053906Y-100424000D01*
X117078292Y-100421598D01*
X117101741Y-100414485D01*
X117123352Y-100402934D01*
X117142294Y-100387389D01*
X117157839Y-100368447D01*
X117169390Y-100346836D01*
X117176503Y-100323387D01*
X117178905Y-100299001D01*
X117176503Y-100274615D01*
X117169832Y-100252625D01*
X117136500Y-100085049D01*
X117136500Y-99914951D01*
X117169832Y-99747375D01*
X117176503Y-99725385D01*
X117178905Y-99700999D01*
X117176503Y-99676613D01*
X117169390Y-99653164D01*
X117157839Y-99631553D01*
X117142294Y-99612611D01*
X117123352Y-99597066D01*
X117101741Y-99585515D01*
X117078292Y-99578402D01*
X117053906Y-99576000D01*
X115614000Y-99576000D01*
X115614000Y-98749000D01*
X117060000Y-98749000D01*
X117060000Y-99440484D01*
X117060000Y-99440484D01*
G37*
G36*
X89410443Y-99345519D02*
G01*
X89476627Y-99352037D01*
X89646466Y-99403557D01*
X89802991Y-99487222D01*
X89835271Y-99513714D01*
X89940186Y-99599814D01*
X90003212Y-99676613D01*
X90052778Y-99737009D01*
X90136443Y-99893534D01*
X90187963Y-100063373D01*
X90205359Y-100240000D01*
X90187963Y-100416627D01*
X90136443Y-100586466D01*
X90052778Y-100742991D01*
X90034531Y-100765225D01*
X89940186Y-100880186D01*
X89847397Y-100956335D01*
X89802991Y-100992778D01*
X89763823Y-101013714D01*
X89673014Y-101062253D01*
X89646466Y-101076443D01*
X89476627Y-101127963D01*
X89410443Y-101134481D01*
X89344260Y-101141000D01*
X89255740Y-101141000D01*
X89189557Y-101134481D01*
X89123373Y-101127963D01*
X88953534Y-101076443D01*
X88926987Y-101062253D01*
X88836177Y-101013714D01*
X88797009Y-100992778D01*
X88752603Y-100956335D01*
X88659814Y-100880186D01*
X88565469Y-100765225D01*
X88547222Y-100742991D01*
X88463557Y-100586466D01*
X88412037Y-100416627D01*
X88394641Y-100240000D01*
X88412037Y-100063373D01*
X88463557Y-99893534D01*
X88547222Y-99737009D01*
X88596788Y-99676613D01*
X88659814Y-99599814D01*
X88764729Y-99513714D01*
X88797009Y-99487222D01*
X88953534Y-99403557D01*
X89123373Y-99352037D01*
X89189557Y-99345519D01*
X89255740Y-99339000D01*
X89344260Y-99339000D01*
X89410443Y-99345519D01*
X89410443Y-99345519D01*
G37*
G36*
X110804061Y-97744890D02*
G01*
X110876627Y-97752037D01*
X111046466Y-97803557D01*
X111202991Y-97887222D01*
X111238729Y-97916552D01*
X111340186Y-97999814D01*
X111421585Y-98099000D01*
X111452778Y-98137009D01*
X111536443Y-98293534D01*
X111587963Y-98463373D01*
X111605359Y-98640000D01*
X111587963Y-98816627D01*
X111537172Y-98984063D01*
X111536442Y-98986468D01*
X111509033Y-99037747D01*
X111452778Y-99142991D01*
X111437965Y-99161040D01*
X111340186Y-99280186D01*
X111252634Y-99352037D01*
X111202991Y-99392778D01*
X111046466Y-99476443D01*
X110876627Y-99527963D01*
X110810442Y-99534482D01*
X110744260Y-99541000D01*
X110655740Y-99541000D01*
X110589558Y-99534482D01*
X110523373Y-99527963D01*
X110353534Y-99476443D01*
X110197009Y-99392778D01*
X110147366Y-99352037D01*
X110059814Y-99280186D01*
X109962035Y-99161040D01*
X109947222Y-99142991D01*
X109890967Y-99037747D01*
X109863558Y-98986468D01*
X109862828Y-98984063D01*
X109812037Y-98816627D01*
X109794641Y-98640000D01*
X109812037Y-98463373D01*
X109863557Y-98293534D01*
X109947222Y-98137009D01*
X109978415Y-98099000D01*
X110059814Y-97999814D01*
X110161271Y-97916552D01*
X110197009Y-97887222D01*
X110353534Y-97803557D01*
X110523373Y-97752037D01*
X110595939Y-97744890D01*
X110655740Y-97739000D01*
X110744260Y-97739000D01*
X110804061Y-97744890D01*
X110804061Y-97744890D01*
G37*
G36*
X92379591Y-97715585D02*
G01*
X92413569Y-97725893D01*
X92444890Y-97742634D01*
X92472339Y-97765161D01*
X92494866Y-97792610D01*
X92511607Y-97823931D01*
X92521915Y-97857909D01*
X92526000Y-97899390D01*
X92526000Y-98500610D01*
X92521915Y-98542091D01*
X92511607Y-98576069D01*
X92494866Y-98607390D01*
X92472339Y-98634839D01*
X92444890Y-98657366D01*
X92413569Y-98674107D01*
X92379591Y-98684415D01*
X92338110Y-98688500D01*
X91661890Y-98688500D01*
X91620409Y-98684415D01*
X91586431Y-98674107D01*
X91555110Y-98657366D01*
X91527661Y-98634839D01*
X91505134Y-98607390D01*
X91488393Y-98576069D01*
X91478085Y-98542091D01*
X91474000Y-98500610D01*
X91474000Y-97899390D01*
X91478085Y-97857909D01*
X91488393Y-97823931D01*
X91505134Y-97792610D01*
X91527661Y-97765161D01*
X91555110Y-97742634D01*
X91586431Y-97725893D01*
X91620409Y-97715585D01*
X91661890Y-97711500D01*
X92338110Y-97711500D01*
X92379591Y-97715585D01*
X92379591Y-97715585D01*
G37*
G36*
X86879591Y-97703085D02*
G01*
X86913569Y-97713393D01*
X86944890Y-97730134D01*
X86972339Y-97752661D01*
X86994866Y-97780110D01*
X87011607Y-97811431D01*
X87021915Y-97845409D01*
X87026000Y-97886890D01*
X87026000Y-98488110D01*
X87021915Y-98529591D01*
X87011607Y-98563569D01*
X86994866Y-98594890D01*
X86972339Y-98622339D01*
X86944890Y-98644866D01*
X86913569Y-98661607D01*
X86879591Y-98671915D01*
X86838110Y-98676000D01*
X86161890Y-98676000D01*
X86120409Y-98671915D01*
X86086431Y-98661607D01*
X86055110Y-98644866D01*
X86027661Y-98622339D01*
X86005134Y-98594890D01*
X85988393Y-98563569D01*
X85978085Y-98529591D01*
X85974000Y-98488110D01*
X85974000Y-97886890D01*
X85978085Y-97845409D01*
X85988393Y-97811431D01*
X86005134Y-97780110D01*
X86027661Y-97752661D01*
X86055110Y-97730134D01*
X86086431Y-97713393D01*
X86120409Y-97703085D01*
X86161890Y-97699000D01*
X86838110Y-97699000D01*
X86879591Y-97703085D01*
X86879591Y-97703085D01*
G37*
G36*
X90201000Y-98601000D02*
G01*
X88399000Y-98601000D01*
X88399000Y-96799000D01*
X90201000Y-96799000D01*
X90201000Y-98601000D01*
X90201000Y-98601000D01*
G37*
G36*
X84429591Y-96778085D02*
G01*
X84463569Y-96788393D01*
X84494890Y-96805134D01*
X84522339Y-96827661D01*
X84544866Y-96855110D01*
X84561607Y-96886431D01*
X84571915Y-96920409D01*
X84576000Y-96961890D01*
X84576000Y-97638110D01*
X84571915Y-97679591D01*
X84561607Y-97713569D01*
X84544866Y-97744890D01*
X84522339Y-97772339D01*
X84494890Y-97794866D01*
X84463569Y-97811607D01*
X84429591Y-97821915D01*
X84388110Y-97826000D01*
X83786890Y-97826000D01*
X83745409Y-97821915D01*
X83711431Y-97811607D01*
X83680110Y-97794866D01*
X83652661Y-97772339D01*
X83630134Y-97744890D01*
X83613393Y-97713569D01*
X83603085Y-97679591D01*
X83599000Y-97638110D01*
X83599000Y-96961890D01*
X83603085Y-96920409D01*
X83613393Y-96886431D01*
X83630134Y-96855110D01*
X83652661Y-96827661D01*
X83680110Y-96805134D01*
X83711431Y-96788393D01*
X83745409Y-96778085D01*
X83786890Y-96774000D01*
X84388110Y-96774000D01*
X84429591Y-96778085D01*
X84429591Y-96778085D01*
G37*
G36*
X82854591Y-96778085D02*
G01*
X82888569Y-96788393D01*
X82919890Y-96805134D01*
X82947339Y-96827661D01*
X82969866Y-96855110D01*
X82986607Y-96886431D01*
X82996915Y-96920409D01*
X83001000Y-96961890D01*
X83001000Y-97638110D01*
X82996915Y-97679591D01*
X82986607Y-97713569D01*
X82969866Y-97744890D01*
X82947339Y-97772339D01*
X82919890Y-97794866D01*
X82888569Y-97811607D01*
X82854591Y-97821915D01*
X82813110Y-97826000D01*
X82211890Y-97826000D01*
X82170409Y-97821915D01*
X82136431Y-97811607D01*
X82105110Y-97794866D01*
X82077661Y-97772339D01*
X82055134Y-97744890D01*
X82038393Y-97713569D01*
X82028085Y-97679591D01*
X82024000Y-97638110D01*
X82024000Y-96961890D01*
X82028085Y-96920409D01*
X82038393Y-96886431D01*
X82055134Y-96855110D01*
X82077661Y-96827661D01*
X82105110Y-96805134D01*
X82136431Y-96788393D01*
X82170409Y-96778085D01*
X82211890Y-96774000D01*
X82813110Y-96774000D01*
X82854591Y-96778085D01*
X82854591Y-96778085D01*
G37*
G36*
X117817591Y-96778085D02*
G01*
X117851569Y-96788393D01*
X117882890Y-96805134D01*
X117910339Y-96827661D01*
X117932866Y-96855110D01*
X117949607Y-96886431D01*
X117959915Y-96920409D01*
X117964000Y-96961890D01*
X117964000Y-97638110D01*
X117959915Y-97679591D01*
X117949607Y-97713569D01*
X117932866Y-97744890D01*
X117910339Y-97772339D01*
X117882890Y-97794866D01*
X117851569Y-97811607D01*
X117817591Y-97821915D01*
X117776110Y-97826000D01*
X117174890Y-97826000D01*
X117133409Y-97821915D01*
X117099431Y-97811607D01*
X117068110Y-97794866D01*
X117040661Y-97772339D01*
X117018134Y-97744890D01*
X117001393Y-97713569D01*
X116991085Y-97679591D01*
X116987000Y-97638110D01*
X116987000Y-96961890D01*
X116991085Y-96920409D01*
X117001393Y-96886431D01*
X117018134Y-96855110D01*
X117040661Y-96827661D01*
X117068110Y-96805134D01*
X117099431Y-96788393D01*
X117133409Y-96778085D01*
X117174890Y-96774000D01*
X117776110Y-96774000D01*
X117817591Y-96778085D01*
X117817591Y-96778085D01*
G37*
G36*
X116242591Y-96778085D02*
G01*
X116276569Y-96788393D01*
X116307890Y-96805134D01*
X116335339Y-96827661D01*
X116357866Y-96855110D01*
X116374607Y-96886431D01*
X116384915Y-96920409D01*
X116389000Y-96961890D01*
X116389000Y-97638110D01*
X116384915Y-97679591D01*
X116374607Y-97713569D01*
X116357866Y-97744890D01*
X116335339Y-97772339D01*
X116307890Y-97794866D01*
X116276569Y-97811607D01*
X116242591Y-97821915D01*
X116201110Y-97826000D01*
X115599890Y-97826000D01*
X115558409Y-97821915D01*
X115524431Y-97811607D01*
X115493110Y-97794866D01*
X115465661Y-97772339D01*
X115443134Y-97744890D01*
X115426393Y-97713569D01*
X115416085Y-97679591D01*
X115412000Y-97638110D01*
X115412000Y-96961890D01*
X115416085Y-96920409D01*
X115426393Y-96886431D01*
X115443134Y-96855110D01*
X115465661Y-96827661D01*
X115493110Y-96805134D01*
X115524431Y-96788393D01*
X115558409Y-96778085D01*
X115599890Y-96774000D01*
X116201110Y-96774000D01*
X116242591Y-96778085D01*
X116242591Y-96778085D01*
G37*
G36*
X97020295Y-95550323D02*
G01*
X97027309Y-95552451D01*
X97041077Y-95559810D01*
X97063716Y-95569187D01*
X97087749Y-95573967D01*
X97112253Y-95573967D01*
X97136286Y-95569186D01*
X97158923Y-95559810D01*
X97172691Y-95552451D01*
X97179705Y-95550323D01*
X97193140Y-95549000D01*
X97506860Y-95549000D01*
X97520295Y-95550323D01*
X97527309Y-95552451D01*
X97541077Y-95559810D01*
X97563716Y-95569187D01*
X97587749Y-95573967D01*
X97612253Y-95573967D01*
X97636286Y-95569186D01*
X97658923Y-95559810D01*
X97672691Y-95552451D01*
X97679705Y-95550323D01*
X97693140Y-95549000D01*
X98006860Y-95549000D01*
X98020295Y-95550323D01*
X98027309Y-95552451D01*
X98041077Y-95559810D01*
X98063716Y-95569187D01*
X98087749Y-95573967D01*
X98112253Y-95573967D01*
X98136286Y-95569186D01*
X98158923Y-95559810D01*
X98172691Y-95552451D01*
X98179705Y-95550323D01*
X98193140Y-95549000D01*
X98506860Y-95549000D01*
X98520295Y-95550323D01*
X98527309Y-95552451D01*
X98541077Y-95559810D01*
X98563716Y-95569187D01*
X98587749Y-95573967D01*
X98612253Y-95573967D01*
X98636286Y-95569186D01*
X98658923Y-95559810D01*
X98672691Y-95552451D01*
X98679705Y-95550323D01*
X98693140Y-95549000D01*
X99006860Y-95549000D01*
X99020295Y-95550323D01*
X99027309Y-95552451D01*
X99041077Y-95559810D01*
X99063716Y-95569187D01*
X99087749Y-95573967D01*
X99112253Y-95573967D01*
X99136286Y-95569186D01*
X99158923Y-95559810D01*
X99172691Y-95552451D01*
X99179705Y-95550323D01*
X99193140Y-95549000D01*
X99506860Y-95549000D01*
X99520295Y-95550323D01*
X99527309Y-95552451D01*
X99541077Y-95559810D01*
X99563716Y-95569187D01*
X99587749Y-95573967D01*
X99612253Y-95573967D01*
X99636286Y-95569186D01*
X99658923Y-95559810D01*
X99672691Y-95552451D01*
X99679705Y-95550323D01*
X99693140Y-95549000D01*
X100006860Y-95549000D01*
X100020295Y-95550323D01*
X100027309Y-95552451D01*
X100041077Y-95559810D01*
X100063716Y-95569187D01*
X100087749Y-95573967D01*
X100112253Y-95573967D01*
X100136286Y-95569186D01*
X100158923Y-95559810D01*
X100172691Y-95552451D01*
X100179705Y-95550323D01*
X100193140Y-95549000D01*
X100506860Y-95549000D01*
X100520295Y-95550323D01*
X100527309Y-95552451D01*
X100541077Y-95559810D01*
X100563716Y-95569187D01*
X100587749Y-95573967D01*
X100612253Y-95573967D01*
X100636286Y-95569186D01*
X100658923Y-95559810D01*
X100672691Y-95552451D01*
X100679705Y-95550323D01*
X100693140Y-95549000D01*
X101006860Y-95549000D01*
X101020295Y-95550323D01*
X101027309Y-95552451D01*
X101041077Y-95559810D01*
X101063716Y-95569187D01*
X101087749Y-95573967D01*
X101112253Y-95573967D01*
X101136286Y-95569186D01*
X101158923Y-95559810D01*
X101172691Y-95552451D01*
X101179705Y-95550323D01*
X101193140Y-95549000D01*
X101506860Y-95549000D01*
X101520295Y-95550323D01*
X101527309Y-95552451D01*
X101541077Y-95559810D01*
X101563716Y-95569187D01*
X101587749Y-95573967D01*
X101612253Y-95573967D01*
X101636286Y-95569186D01*
X101658923Y-95559810D01*
X101672691Y-95552451D01*
X101679705Y-95550323D01*
X101693140Y-95549000D01*
X102006860Y-95549000D01*
X102020295Y-95550323D01*
X102027309Y-95552451D01*
X102041077Y-95559810D01*
X102063716Y-95569187D01*
X102087749Y-95573967D01*
X102112253Y-95573967D01*
X102136286Y-95569186D01*
X102158923Y-95559810D01*
X102172691Y-95552451D01*
X102179705Y-95550323D01*
X102193140Y-95549000D01*
X102506860Y-95549000D01*
X102520295Y-95550323D01*
X102527309Y-95552451D01*
X102541077Y-95559810D01*
X102563716Y-95569187D01*
X102587749Y-95573967D01*
X102612253Y-95573967D01*
X102636286Y-95569186D01*
X102658923Y-95559810D01*
X102672691Y-95552451D01*
X102679705Y-95550323D01*
X102693140Y-95549000D01*
X103006860Y-95549000D01*
X103020295Y-95550323D01*
X103027309Y-95552451D01*
X103041077Y-95559810D01*
X103063716Y-95569187D01*
X103087749Y-95573967D01*
X103112253Y-95573967D01*
X103136286Y-95569186D01*
X103158923Y-95559810D01*
X103172691Y-95552451D01*
X103179705Y-95550323D01*
X103193140Y-95549000D01*
X103506860Y-95549000D01*
X103520295Y-95550323D01*
X103527309Y-95552451D01*
X103541077Y-95559810D01*
X103563716Y-95569187D01*
X103587749Y-95573967D01*
X103612253Y-95573967D01*
X103636286Y-95569186D01*
X103658923Y-95559810D01*
X103672691Y-95552451D01*
X103679705Y-95550323D01*
X103693140Y-95549000D01*
X104006860Y-95549000D01*
X104020295Y-95550323D01*
X104027309Y-95552451D01*
X104041077Y-95559810D01*
X104063716Y-95569187D01*
X104087749Y-95573967D01*
X104112253Y-95573967D01*
X104136286Y-95569186D01*
X104158923Y-95559810D01*
X104172691Y-95552451D01*
X104179705Y-95550323D01*
X104193140Y-95549000D01*
X104506860Y-95549000D01*
X104520295Y-95550323D01*
X104527310Y-95552451D01*
X104533776Y-95555908D01*
X104539442Y-95560558D01*
X104544092Y-95566224D01*
X104547549Y-95572690D01*
X104549677Y-95579705D01*
X104551000Y-95593140D01*
X104551000Y-97156860D01*
X104549677Y-97170295D01*
X104547549Y-97177310D01*
X104544092Y-97183776D01*
X104539442Y-97189442D01*
X104533776Y-97194092D01*
X104527310Y-97197549D01*
X104520295Y-97199677D01*
X104506860Y-97201000D01*
X104193140Y-97201000D01*
X104179705Y-97199677D01*
X104172691Y-97197549D01*
X104158923Y-97190190D01*
X104136284Y-97180813D01*
X104112251Y-97176033D01*
X104087747Y-97176033D01*
X104063714Y-97180814D01*
X104041077Y-97190190D01*
X104027309Y-97197549D01*
X104020295Y-97199677D01*
X104006860Y-97201000D01*
X103693140Y-97201000D01*
X103679705Y-97199677D01*
X103672691Y-97197549D01*
X103658923Y-97190190D01*
X103636284Y-97180813D01*
X103612251Y-97176033D01*
X103587747Y-97176033D01*
X103563714Y-97180814D01*
X103541077Y-97190190D01*
X103527309Y-97197549D01*
X103520295Y-97199677D01*
X103506860Y-97201000D01*
X103193140Y-97201000D01*
X103179705Y-97199677D01*
X103172691Y-97197549D01*
X103158923Y-97190190D01*
X103136284Y-97180813D01*
X103112251Y-97176033D01*
X103087747Y-97176033D01*
X103063714Y-97180814D01*
X103041077Y-97190190D01*
X103027309Y-97197549D01*
X103020295Y-97199677D01*
X103006860Y-97201000D01*
X102693140Y-97201000D01*
X102679705Y-97199677D01*
X102672691Y-97197549D01*
X102658923Y-97190190D01*
X102636284Y-97180813D01*
X102612251Y-97176033D01*
X102587747Y-97176033D01*
X102563714Y-97180814D01*
X102541077Y-97190190D01*
X102527309Y-97197549D01*
X102520295Y-97199677D01*
X102506860Y-97201000D01*
X102193140Y-97201000D01*
X102179705Y-97199677D01*
X102172691Y-97197549D01*
X102158923Y-97190190D01*
X102136284Y-97180813D01*
X102112251Y-97176033D01*
X102087747Y-97176033D01*
X102063714Y-97180814D01*
X102041077Y-97190190D01*
X102027309Y-97197549D01*
X102020295Y-97199677D01*
X102006860Y-97201000D01*
X101693140Y-97201000D01*
X101679705Y-97199677D01*
X101672691Y-97197549D01*
X101658923Y-97190190D01*
X101636284Y-97180813D01*
X101612251Y-97176033D01*
X101587747Y-97176033D01*
X101563714Y-97180814D01*
X101541077Y-97190190D01*
X101527309Y-97197549D01*
X101520295Y-97199677D01*
X101506860Y-97201000D01*
X101193140Y-97201000D01*
X101179705Y-97199677D01*
X101172691Y-97197549D01*
X101158923Y-97190190D01*
X101136284Y-97180813D01*
X101112251Y-97176033D01*
X101087747Y-97176033D01*
X101063714Y-97180814D01*
X101041077Y-97190190D01*
X101027309Y-97197549D01*
X101020295Y-97199677D01*
X101006860Y-97201000D01*
X100693140Y-97201000D01*
X100679705Y-97199677D01*
X100672691Y-97197549D01*
X100658923Y-97190190D01*
X100636284Y-97180813D01*
X100612251Y-97176033D01*
X100587747Y-97176033D01*
X100563714Y-97180814D01*
X100541077Y-97190190D01*
X100527309Y-97197549D01*
X100520295Y-97199677D01*
X100506860Y-97201000D01*
X100193140Y-97201000D01*
X100179705Y-97199677D01*
X100172691Y-97197549D01*
X100158923Y-97190190D01*
X100136284Y-97180813D01*
X100112251Y-97176033D01*
X100087747Y-97176033D01*
X100063714Y-97180814D01*
X100041077Y-97190190D01*
X100027309Y-97197549D01*
X100020295Y-97199677D01*
X100006860Y-97201000D01*
X99693140Y-97201000D01*
X99679705Y-97199677D01*
X99672691Y-97197549D01*
X99658923Y-97190190D01*
X99636284Y-97180813D01*
X99612251Y-97176033D01*
X99587747Y-97176033D01*
X99563714Y-97180814D01*
X99541077Y-97190190D01*
X99527309Y-97197549D01*
X99520295Y-97199677D01*
X99506860Y-97201000D01*
X99193140Y-97201000D01*
X99179705Y-97199677D01*
X99172691Y-97197549D01*
X99158923Y-97190190D01*
X99136284Y-97180813D01*
X99112251Y-97176033D01*
X99087747Y-97176033D01*
X99063714Y-97180814D01*
X99041077Y-97190190D01*
X99027309Y-97197549D01*
X99020295Y-97199677D01*
X99006860Y-97201000D01*
X98693140Y-97201000D01*
X98679705Y-97199677D01*
X98672691Y-97197549D01*
X98658923Y-97190190D01*
X98636284Y-97180813D01*
X98612251Y-97176033D01*
X98587747Y-97176033D01*
X98563714Y-97180814D01*
X98541077Y-97190190D01*
X98527309Y-97197549D01*
X98520295Y-97199677D01*
X98506860Y-97201000D01*
X98193140Y-97201000D01*
X98179705Y-97199677D01*
X98172691Y-97197549D01*
X98158923Y-97190190D01*
X98136284Y-97180813D01*
X98112251Y-97176033D01*
X98087747Y-97176033D01*
X98063714Y-97180814D01*
X98041077Y-97190190D01*
X98027309Y-97197549D01*
X98020295Y-97199677D01*
X98006860Y-97201000D01*
X97693140Y-97201000D01*
X97679705Y-97199677D01*
X97672691Y-97197549D01*
X97658923Y-97190190D01*
X97636284Y-97180813D01*
X97612251Y-97176033D01*
X97587747Y-97176033D01*
X97563714Y-97180814D01*
X97541077Y-97190190D01*
X97527309Y-97197549D01*
X97520295Y-97199677D01*
X97506860Y-97201000D01*
X97193140Y-97201000D01*
X97179705Y-97199677D01*
X97172691Y-97197549D01*
X97158923Y-97190190D01*
X97136284Y-97180813D01*
X97112251Y-97176033D01*
X97087747Y-97176033D01*
X97063714Y-97180814D01*
X97041077Y-97190190D01*
X97027309Y-97197549D01*
X97020295Y-97199677D01*
X97006860Y-97201000D01*
X96693140Y-97201000D01*
X96679705Y-97199677D01*
X96672690Y-97197549D01*
X96666224Y-97194092D01*
X96660558Y-97189442D01*
X96655908Y-97183776D01*
X96652451Y-97177310D01*
X96650323Y-97170295D01*
X96649000Y-97156860D01*
X96649000Y-95593140D01*
X96650323Y-95579705D01*
X96652451Y-95572690D01*
X96655908Y-95566224D01*
X96660558Y-95560558D01*
X96666224Y-95555908D01*
X96672690Y-95552451D01*
X96679705Y-95550323D01*
X96693140Y-95549000D01*
X97006860Y-95549000D01*
X97020295Y-95550323D01*
X97020295Y-95550323D01*
G37*
G36*
X92379591Y-96140585D02*
G01*
X92413569Y-96150893D01*
X92444890Y-96167634D01*
X92472339Y-96190161D01*
X92494866Y-96217610D01*
X92511607Y-96248931D01*
X92521915Y-96282909D01*
X92526000Y-96324390D01*
X92526000Y-96925610D01*
X92521915Y-96967091D01*
X92511607Y-97001069D01*
X92494866Y-97032390D01*
X92472339Y-97059839D01*
X92444890Y-97082366D01*
X92413569Y-97099107D01*
X92379591Y-97109415D01*
X92338110Y-97113500D01*
X91661890Y-97113500D01*
X91620409Y-97109415D01*
X91586431Y-97099107D01*
X91555110Y-97082366D01*
X91527661Y-97059839D01*
X91505134Y-97032390D01*
X91488393Y-97001069D01*
X91478085Y-96967091D01*
X91474000Y-96925610D01*
X91474000Y-96324390D01*
X91478085Y-96282909D01*
X91488393Y-96248931D01*
X91505134Y-96217610D01*
X91527661Y-96190161D01*
X91555110Y-96167634D01*
X91586431Y-96150893D01*
X91620409Y-96140585D01*
X91661890Y-96136500D01*
X92338110Y-96136500D01*
X92379591Y-96140585D01*
X92379591Y-96140585D01*
G37*
G36*
X86879591Y-96128085D02*
G01*
X86913569Y-96138393D01*
X86944890Y-96155134D01*
X86972339Y-96177661D01*
X86994866Y-96205110D01*
X87011607Y-96236431D01*
X87021915Y-96270409D01*
X87026000Y-96311890D01*
X87026000Y-96913110D01*
X87021915Y-96954591D01*
X87011607Y-96988569D01*
X86994866Y-97019890D01*
X86972339Y-97047339D01*
X86944890Y-97069866D01*
X86913569Y-97086607D01*
X86879591Y-97096915D01*
X86838110Y-97101000D01*
X86161890Y-97101000D01*
X86120409Y-97096915D01*
X86086431Y-97086607D01*
X86055110Y-97069866D01*
X86027661Y-97047339D01*
X86005134Y-97019890D01*
X85988393Y-96988569D01*
X85978085Y-96954591D01*
X85974000Y-96913110D01*
X85974000Y-96311890D01*
X85978085Y-96270409D01*
X85988393Y-96236431D01*
X86005134Y-96205110D01*
X86027661Y-96177661D01*
X86055110Y-96155134D01*
X86086431Y-96138393D01*
X86120409Y-96128085D01*
X86161890Y-96124000D01*
X86838110Y-96124000D01*
X86879591Y-96128085D01*
X86879591Y-96128085D01*
G37*
G36*
X113879591Y-96103085D02*
G01*
X113913569Y-96113393D01*
X113944890Y-96130134D01*
X113972339Y-96152661D01*
X113994866Y-96180110D01*
X114011607Y-96211431D01*
X114021915Y-96245409D01*
X114026000Y-96286890D01*
X114026000Y-96888110D01*
X114021915Y-96929591D01*
X114011607Y-96963569D01*
X113994866Y-96994890D01*
X113972339Y-97022339D01*
X113944890Y-97044866D01*
X113913569Y-97061607D01*
X113879591Y-97071915D01*
X113838110Y-97076000D01*
X113161890Y-97076000D01*
X113120409Y-97071915D01*
X113086431Y-97061607D01*
X113055110Y-97044866D01*
X113027661Y-97022339D01*
X113005134Y-96994890D01*
X112988393Y-96963569D01*
X112978085Y-96929591D01*
X112974000Y-96888110D01*
X112974000Y-96286890D01*
X112978085Y-96245409D01*
X112988393Y-96211431D01*
X113005134Y-96180110D01*
X113027661Y-96152661D01*
X113055110Y-96130134D01*
X113086431Y-96113393D01*
X113120409Y-96103085D01*
X113161890Y-96099000D01*
X113838110Y-96099000D01*
X113879591Y-96103085D01*
X113879591Y-96103085D01*
G37*
G36*
X111601000Y-97001000D02*
G01*
X109799000Y-97001000D01*
X109799000Y-95199000D01*
X111601000Y-95199000D01*
X111601000Y-97001000D01*
X111601000Y-97001000D01*
G37*
G36*
X88429591Y-94478085D02*
G01*
X88463569Y-94488393D01*
X88494890Y-94505134D01*
X88522339Y-94527661D01*
X88544866Y-94555110D01*
X88561607Y-94586431D01*
X88571915Y-94620409D01*
X88576000Y-94661890D01*
X88576000Y-95338110D01*
X88571915Y-95379591D01*
X88561607Y-95413569D01*
X88544866Y-95444890D01*
X88522339Y-95472339D01*
X88494890Y-95494866D01*
X88463569Y-95511607D01*
X88429591Y-95521915D01*
X88388110Y-95526000D01*
X87786890Y-95526000D01*
X87745409Y-95521915D01*
X87711431Y-95511607D01*
X87680110Y-95494866D01*
X87652661Y-95472339D01*
X87630134Y-95444890D01*
X87613393Y-95413569D01*
X87603085Y-95379591D01*
X87599000Y-95338110D01*
X87599000Y-94661890D01*
X87603085Y-94620409D01*
X87613393Y-94586431D01*
X87630134Y-94555110D01*
X87652661Y-94527661D01*
X87680110Y-94505134D01*
X87711431Y-94488393D01*
X87745409Y-94478085D01*
X87786890Y-94474000D01*
X88388110Y-94474000D01*
X88429591Y-94478085D01*
X88429591Y-94478085D01*
G37*
G36*
X86854591Y-94478085D02*
G01*
X86888569Y-94488393D01*
X86919890Y-94505134D01*
X86947339Y-94527661D01*
X86969866Y-94555110D01*
X86986607Y-94586431D01*
X86996915Y-94620409D01*
X87001000Y-94661890D01*
X87001000Y-95338110D01*
X86996915Y-95379591D01*
X86986607Y-95413569D01*
X86969866Y-95444890D01*
X86947339Y-95472339D01*
X86919890Y-95494866D01*
X86888569Y-95511607D01*
X86854591Y-95521915D01*
X86813110Y-95526000D01*
X86211890Y-95526000D01*
X86170409Y-95521915D01*
X86136431Y-95511607D01*
X86105110Y-95494866D01*
X86077661Y-95472339D01*
X86055134Y-95444890D01*
X86038393Y-95413569D01*
X86028085Y-95379591D01*
X86024000Y-95338110D01*
X86024000Y-94661890D01*
X86028085Y-94620409D01*
X86038393Y-94586431D01*
X86055134Y-94555110D01*
X86077661Y-94527661D01*
X86105110Y-94505134D01*
X86136431Y-94488393D01*
X86170409Y-94478085D01*
X86211890Y-94474000D01*
X86813110Y-94474000D01*
X86854591Y-94478085D01*
X86854591Y-94478085D01*
G37*
G36*
X113879591Y-94528085D02*
G01*
X113913569Y-94538393D01*
X113944890Y-94555134D01*
X113972339Y-94577661D01*
X113994866Y-94605110D01*
X114011607Y-94636431D01*
X114021915Y-94670409D01*
X114026000Y-94711890D01*
X114026000Y-95313110D01*
X114021915Y-95354591D01*
X114011607Y-95388569D01*
X113994866Y-95419890D01*
X113972339Y-95447339D01*
X113944890Y-95469866D01*
X113913569Y-95486607D01*
X113879591Y-95496915D01*
X113838110Y-95501000D01*
X113161890Y-95501000D01*
X113120409Y-95496915D01*
X113086431Y-95486607D01*
X113055110Y-95469866D01*
X113027661Y-95447339D01*
X113005134Y-95419890D01*
X112988393Y-95388569D01*
X112978085Y-95354591D01*
X112974000Y-95313110D01*
X112974000Y-94711890D01*
X112978085Y-94670409D01*
X112988393Y-94636431D01*
X113005134Y-94605110D01*
X113027661Y-94577661D01*
X113055110Y-94555134D01*
X113086431Y-94538393D01*
X113120409Y-94528085D01*
X113161890Y-94524000D01*
X113838110Y-94524000D01*
X113879591Y-94528085D01*
X113879591Y-94528085D01*
G37*
G36*
X107079591Y-94215585D02*
G01*
X107113569Y-94225893D01*
X107144890Y-94242634D01*
X107172339Y-94265161D01*
X107194866Y-94292610D01*
X107211607Y-94323931D01*
X107221915Y-94357909D01*
X107226000Y-94399390D01*
X107226000Y-95000610D01*
X107221915Y-95042091D01*
X107211607Y-95076069D01*
X107194866Y-95107390D01*
X107172339Y-95134839D01*
X107144890Y-95157366D01*
X107113569Y-95174107D01*
X107079591Y-95184415D01*
X107038110Y-95188500D01*
X106361890Y-95188500D01*
X106320409Y-95184415D01*
X106286431Y-95174107D01*
X106255110Y-95157366D01*
X106227661Y-95134839D01*
X106205134Y-95107390D01*
X106188393Y-95076069D01*
X106178085Y-95042091D01*
X106174000Y-95000610D01*
X106174000Y-94399390D01*
X106178085Y-94357909D01*
X106188393Y-94323931D01*
X106205134Y-94292610D01*
X106227661Y-94265161D01*
X106255110Y-94242634D01*
X106286431Y-94225893D01*
X106320409Y-94215585D01*
X106361890Y-94211500D01*
X107038110Y-94211500D01*
X107079591Y-94215585D01*
X107079591Y-94215585D01*
G37*
G36*
X107079591Y-92640585D02*
G01*
X107113569Y-92650893D01*
X107144890Y-92667634D01*
X107172339Y-92690161D01*
X107194866Y-92717610D01*
X107211607Y-92748931D01*
X107221915Y-92782909D01*
X107226000Y-92824390D01*
X107226000Y-93425610D01*
X107221915Y-93467091D01*
X107211607Y-93501069D01*
X107194866Y-93532390D01*
X107172339Y-93559839D01*
X107144890Y-93582366D01*
X107113569Y-93599107D01*
X107079591Y-93609415D01*
X107038110Y-93613500D01*
X106361890Y-93613500D01*
X106320409Y-93609415D01*
X106286431Y-93599107D01*
X106255110Y-93582366D01*
X106227661Y-93559839D01*
X106205134Y-93532390D01*
X106188393Y-93501069D01*
X106178085Y-93467091D01*
X106174000Y-93425610D01*
X106174000Y-92824390D01*
X106178085Y-92782909D01*
X106188393Y-92748931D01*
X106205134Y-92717610D01*
X106227661Y-92690161D01*
X106255110Y-92667634D01*
X106286431Y-92650893D01*
X106320409Y-92640585D01*
X106361890Y-92636500D01*
X107038110Y-92636500D01*
X107079591Y-92640585D01*
X107079591Y-92640585D01*
G37*
G36*
X99542091Y-92478085D02*
G01*
X99576069Y-92488393D01*
X99607390Y-92505134D01*
X99634839Y-92527661D01*
X99657366Y-92555110D01*
X99674107Y-92586431D01*
X99684415Y-92620409D01*
X99688500Y-92661890D01*
X99688500Y-93338110D01*
X99684415Y-93379591D01*
X99674107Y-93413569D01*
X99657366Y-93444890D01*
X99634839Y-93472339D01*
X99607390Y-93494866D01*
X99576069Y-93511607D01*
X99542091Y-93521915D01*
X99500610Y-93526000D01*
X98899390Y-93526000D01*
X98857909Y-93521915D01*
X98823931Y-93511607D01*
X98792610Y-93494866D01*
X98765161Y-93472339D01*
X98742634Y-93444890D01*
X98725893Y-93413569D01*
X98715585Y-93379591D01*
X98711500Y-93338110D01*
X98711500Y-92661890D01*
X98715585Y-92620409D01*
X98725893Y-92586431D01*
X98742634Y-92555110D01*
X98765161Y-92527661D01*
X98792610Y-92505134D01*
X98823931Y-92488393D01*
X98857909Y-92478085D01*
X98899390Y-92474000D01*
X99500610Y-92474000D01*
X99542091Y-92478085D01*
X99542091Y-92478085D01*
G37*
G36*
X101117091Y-92478085D02*
G01*
X101151069Y-92488393D01*
X101182390Y-92505134D01*
X101209839Y-92527661D01*
X101232366Y-92555110D01*
X101249107Y-92586431D01*
X101259415Y-92620409D01*
X101263500Y-92661890D01*
X101263500Y-93338110D01*
X101259415Y-93379591D01*
X101249107Y-93413569D01*
X101232366Y-93444890D01*
X101209839Y-93472339D01*
X101182390Y-93494866D01*
X101151069Y-93511607D01*
X101117091Y-93521915D01*
X101075610Y-93526000D01*
X100474390Y-93526000D01*
X100432909Y-93521915D01*
X100398931Y-93511607D01*
X100367610Y-93494866D01*
X100340161Y-93472339D01*
X100317634Y-93444890D01*
X100300893Y-93413569D01*
X100290585Y-93379591D01*
X100286500Y-93338110D01*
X100286500Y-92661890D01*
X100290585Y-92620409D01*
X100300893Y-92586431D01*
X100317634Y-92555110D01*
X100340161Y-92527661D01*
X100367610Y-92505134D01*
X100398931Y-92488393D01*
X100432909Y-92478085D01*
X100474390Y-92474000D01*
X101075610Y-92474000D01*
X101117091Y-92478085D01*
X101117091Y-92478085D01*
G37*
G36*
X97842091Y-92478085D02*
G01*
X97876069Y-92488393D01*
X97907390Y-92505134D01*
X97934839Y-92527661D01*
X97957366Y-92555110D01*
X97974107Y-92586431D01*
X97984415Y-92620409D01*
X97988500Y-92661890D01*
X97988500Y-93338110D01*
X97984415Y-93379591D01*
X97974107Y-93413569D01*
X97957366Y-93444890D01*
X97934839Y-93472339D01*
X97907390Y-93494866D01*
X97876069Y-93511607D01*
X97842091Y-93521915D01*
X97800610Y-93526000D01*
X97199390Y-93526000D01*
X97157909Y-93521915D01*
X97123931Y-93511607D01*
X97092610Y-93494866D01*
X97065161Y-93472339D01*
X97042634Y-93444890D01*
X97025893Y-93413569D01*
X97015585Y-93379591D01*
X97011500Y-93338110D01*
X97011500Y-92661890D01*
X97015585Y-92620409D01*
X97025893Y-92586431D01*
X97042634Y-92555110D01*
X97065161Y-92527661D01*
X97092610Y-92505134D01*
X97123931Y-92488393D01*
X97157909Y-92478085D01*
X97199390Y-92474000D01*
X97800610Y-92474000D01*
X97842091Y-92478085D01*
X97842091Y-92478085D01*
G37*
G36*
X96267091Y-92478085D02*
G01*
X96301069Y-92488393D01*
X96332390Y-92505134D01*
X96359839Y-92527661D01*
X96382366Y-92555110D01*
X96399107Y-92586431D01*
X96409415Y-92620409D01*
X96413500Y-92661890D01*
X96413500Y-93338110D01*
X96409415Y-93379591D01*
X96399107Y-93413569D01*
X96382366Y-93444890D01*
X96359839Y-93472339D01*
X96332390Y-93494866D01*
X96301069Y-93511607D01*
X96267091Y-93521915D01*
X96225610Y-93526000D01*
X95624390Y-93526000D01*
X95582909Y-93521915D01*
X95548931Y-93511607D01*
X95517610Y-93494866D01*
X95490161Y-93472339D01*
X95467634Y-93444890D01*
X95450893Y-93413569D01*
X95440585Y-93379591D01*
X95436500Y-93338110D01*
X95436500Y-92661890D01*
X95440585Y-92620409D01*
X95450893Y-92586431D01*
X95467634Y-92555110D01*
X95490161Y-92527661D01*
X95517610Y-92505134D01*
X95548931Y-92488393D01*
X95582909Y-92478085D01*
X95624390Y-92474000D01*
X96225610Y-92474000D01*
X96267091Y-92478085D01*
X96267091Y-92478085D01*
G37*
G36*
X107042591Y-90878085D02*
G01*
X107076569Y-90888393D01*
X107107890Y-90905134D01*
X107135339Y-90927661D01*
X107157866Y-90955110D01*
X107174607Y-90986431D01*
X107184915Y-91020409D01*
X107189000Y-91061890D01*
X107189000Y-91738110D01*
X107184915Y-91779591D01*
X107174607Y-91813569D01*
X107157866Y-91844890D01*
X107135339Y-91872339D01*
X107107890Y-91894866D01*
X107076569Y-91911607D01*
X107042591Y-91921915D01*
X107001110Y-91926000D01*
X106399890Y-91926000D01*
X106358409Y-91921915D01*
X106324431Y-91911607D01*
X106293110Y-91894866D01*
X106265661Y-91872339D01*
X106243134Y-91844890D01*
X106226393Y-91813569D01*
X106216085Y-91779591D01*
X106212000Y-91738110D01*
X106212000Y-91061890D01*
X106216085Y-91020409D01*
X106226393Y-90986431D01*
X106243134Y-90955110D01*
X106265661Y-90927661D01*
X106293110Y-90905134D01*
X106324431Y-90888393D01*
X106358409Y-90878085D01*
X106399890Y-90874000D01*
X107001110Y-90874000D01*
X107042591Y-90878085D01*
X107042591Y-90878085D01*
G37*
G36*
X108617591Y-90878085D02*
G01*
X108651569Y-90888393D01*
X108682890Y-90905134D01*
X108710339Y-90927661D01*
X108732866Y-90955110D01*
X108749607Y-90986431D01*
X108759915Y-91020409D01*
X108764000Y-91061890D01*
X108764000Y-91738110D01*
X108759915Y-91779591D01*
X108749607Y-91813569D01*
X108732866Y-91844890D01*
X108710339Y-91872339D01*
X108682890Y-91894866D01*
X108651569Y-91911607D01*
X108617591Y-91921915D01*
X108576110Y-91926000D01*
X107974890Y-91926000D01*
X107933409Y-91921915D01*
X107899431Y-91911607D01*
X107868110Y-91894866D01*
X107840661Y-91872339D01*
X107818134Y-91844890D01*
X107801393Y-91813569D01*
X107791085Y-91779591D01*
X107787000Y-91738110D01*
X107787000Y-91061890D01*
X107791085Y-91020409D01*
X107801393Y-90986431D01*
X107818134Y-90955110D01*
X107840661Y-90927661D01*
X107868110Y-90905134D01*
X107899431Y-90888393D01*
X107933409Y-90878085D01*
X107974890Y-90874000D01*
X108576110Y-90874000D01*
X108617591Y-90878085D01*
X108617591Y-90878085D01*
G37*
G36*
X86333394Y-90029583D02*
G01*
X86486645Y-90076071D01*
X86627882Y-90151564D01*
X86674016Y-90189426D01*
X86720656Y-90227702D01*
X86972298Y-90479344D01*
X86998929Y-90511794D01*
X87048436Y-90572118D01*
X87123929Y-90713355D01*
X87123930Y-90713358D01*
X87170418Y-90866604D01*
X87178191Y-90945539D01*
X87186114Y-91025981D01*
X87178634Y-91101929D01*
X87170418Y-91185357D01*
X87140287Y-91284682D01*
X87123929Y-91338607D01*
X87048436Y-91479844D01*
X86946840Y-91603640D01*
X86823044Y-91705236D01*
X86761541Y-91738110D01*
X86681807Y-91780729D01*
X86528557Y-91827218D01*
X86445129Y-91835434D01*
X86369181Y-91842914D01*
X86293233Y-91835434D01*
X86209804Y-91827218D01*
X86056558Y-91780730D01*
X86056555Y-91780729D01*
X85915318Y-91705236D01*
X85841787Y-91644890D01*
X85822544Y-91629098D01*
X85570902Y-91377456D01*
X85539020Y-91338607D01*
X85494764Y-91284682D01*
X85419271Y-91143445D01*
X85372783Y-90990194D01*
X85357086Y-90830819D01*
X85372783Y-90671444D01*
X85419271Y-90518193D01*
X85494764Y-90376956D01*
X85526330Y-90338493D01*
X85596360Y-90253160D01*
X85694842Y-90172339D01*
X85720156Y-90151564D01*
X85861393Y-90076071D01*
X86014644Y-90029583D01*
X86174019Y-90013886D01*
X86333394Y-90029583D01*
X86333394Y-90029583D01*
G37*
G36*
X99542091Y-90678085D02*
G01*
X99576069Y-90688393D01*
X99607390Y-90705134D01*
X99634839Y-90727661D01*
X99657366Y-90755110D01*
X99674107Y-90786431D01*
X99684415Y-90820409D01*
X99688500Y-90861890D01*
X99688500Y-91538110D01*
X99684415Y-91579591D01*
X99674107Y-91613569D01*
X99657366Y-91644890D01*
X99634839Y-91672339D01*
X99607390Y-91694866D01*
X99576069Y-91711607D01*
X99542091Y-91721915D01*
X99500610Y-91726000D01*
X98899390Y-91726000D01*
X98857909Y-91721915D01*
X98823931Y-91711607D01*
X98792610Y-91694866D01*
X98765161Y-91672339D01*
X98742634Y-91644890D01*
X98725893Y-91613569D01*
X98715585Y-91579591D01*
X98711500Y-91538110D01*
X98711500Y-90861890D01*
X98715585Y-90820409D01*
X98725893Y-90786431D01*
X98742634Y-90755110D01*
X98765161Y-90727661D01*
X98792610Y-90705134D01*
X98823931Y-90688393D01*
X98857909Y-90678085D01*
X98899390Y-90674000D01*
X99500610Y-90674000D01*
X99542091Y-90678085D01*
X99542091Y-90678085D01*
G37*
G36*
X101117091Y-90678085D02*
G01*
X101151069Y-90688393D01*
X101182390Y-90705134D01*
X101209839Y-90727661D01*
X101232366Y-90755110D01*
X101249107Y-90786431D01*
X101259415Y-90820409D01*
X101263500Y-90861890D01*
X101263500Y-91538110D01*
X101259415Y-91579591D01*
X101249107Y-91613569D01*
X101232366Y-91644890D01*
X101209839Y-91672339D01*
X101182390Y-91694866D01*
X101151069Y-91711607D01*
X101117091Y-91721915D01*
X101075610Y-91726000D01*
X100474390Y-91726000D01*
X100432909Y-91721915D01*
X100398931Y-91711607D01*
X100367610Y-91694866D01*
X100340161Y-91672339D01*
X100317634Y-91644890D01*
X100300893Y-91613569D01*
X100290585Y-91579591D01*
X100286500Y-91538110D01*
X100286500Y-90861890D01*
X100290585Y-90820409D01*
X100300893Y-90786431D01*
X100317634Y-90755110D01*
X100340161Y-90727661D01*
X100367610Y-90705134D01*
X100398931Y-90688393D01*
X100432909Y-90678085D01*
X100474390Y-90674000D01*
X101075610Y-90674000D01*
X101117091Y-90678085D01*
X101117091Y-90678085D01*
G37*
G36*
X94929591Y-89878085D02*
G01*
X94963569Y-89888393D01*
X94994890Y-89905134D01*
X95022339Y-89927661D01*
X95044866Y-89955110D01*
X95061607Y-89986431D01*
X95071915Y-90020409D01*
X95076000Y-90061890D01*
X95076000Y-90738110D01*
X95071915Y-90779591D01*
X95061607Y-90813569D01*
X95044866Y-90844890D01*
X95022339Y-90872339D01*
X94994890Y-90894866D01*
X94963569Y-90911607D01*
X94929591Y-90921915D01*
X94888110Y-90926000D01*
X94286890Y-90926000D01*
X94245409Y-90921915D01*
X94211431Y-90911607D01*
X94180110Y-90894866D01*
X94152661Y-90872339D01*
X94130134Y-90844890D01*
X94113393Y-90813569D01*
X94103085Y-90779591D01*
X94099000Y-90738110D01*
X94099000Y-90061890D01*
X94103085Y-90020409D01*
X94113393Y-89986431D01*
X94130134Y-89955110D01*
X94152661Y-89927661D01*
X94180110Y-89905134D01*
X94211431Y-89888393D01*
X94245409Y-89878085D01*
X94286890Y-89874000D01*
X94888110Y-89874000D01*
X94929591Y-89878085D01*
X94929591Y-89878085D01*
G37*
G36*
X93354591Y-89878085D02*
G01*
X93388569Y-89888393D01*
X93419890Y-89905134D01*
X93447339Y-89927661D01*
X93469866Y-89955110D01*
X93486607Y-89986431D01*
X93496915Y-90020409D01*
X93501000Y-90061890D01*
X93501000Y-90738110D01*
X93496915Y-90779591D01*
X93486607Y-90813569D01*
X93469866Y-90844890D01*
X93447339Y-90872339D01*
X93419890Y-90894866D01*
X93388569Y-90911607D01*
X93354591Y-90921915D01*
X93313110Y-90926000D01*
X92711890Y-90926000D01*
X92670409Y-90921915D01*
X92636431Y-90911607D01*
X92605110Y-90894866D01*
X92577661Y-90872339D01*
X92555134Y-90844890D01*
X92538393Y-90813569D01*
X92528085Y-90779591D01*
X92524000Y-90738110D01*
X92524000Y-90061890D01*
X92528085Y-90020409D01*
X92538393Y-89986431D01*
X92555134Y-89955110D01*
X92577661Y-89927661D01*
X92605110Y-89905134D01*
X92636431Y-89888393D01*
X92670409Y-89878085D01*
X92711890Y-89874000D01*
X93313110Y-89874000D01*
X93354591Y-89878085D01*
X93354591Y-89878085D01*
G37*
G36*
X87747608Y-88615369D02*
G01*
X87900859Y-88661857D01*
X88042096Y-88737350D01*
X88098137Y-88783342D01*
X88134870Y-88813488D01*
X88386512Y-89065130D01*
X88413143Y-89097580D01*
X88462650Y-89157904D01*
X88538143Y-89299141D01*
X88538144Y-89299144D01*
X88584632Y-89452390D01*
X88590253Y-89509468D01*
X88600328Y-89611767D01*
X88592848Y-89687715D01*
X88584632Y-89771143D01*
X88547790Y-89892592D01*
X88538143Y-89924393D01*
X88462650Y-90065630D01*
X88361054Y-90189426D01*
X88237258Y-90291022D01*
X88096021Y-90366515D01*
X87942771Y-90413004D01*
X87859343Y-90421220D01*
X87783395Y-90428700D01*
X87707447Y-90421220D01*
X87624018Y-90413004D01*
X87470772Y-90366516D01*
X87470769Y-90366515D01*
X87329532Y-90291022D01*
X87250303Y-90226000D01*
X87236758Y-90214884D01*
X86985116Y-89963242D01*
X86953234Y-89924393D01*
X86908978Y-89870468D01*
X86833485Y-89729231D01*
X86786997Y-89575980D01*
X86771300Y-89416605D01*
X86786997Y-89257230D01*
X86833485Y-89103979D01*
X86908978Y-88962742D01*
X86940544Y-88924279D01*
X87010574Y-88838946D01*
X87095907Y-88768916D01*
X87134370Y-88737350D01*
X87275607Y-88661857D01*
X87428858Y-88615369D01*
X87588233Y-88599672D01*
X87747608Y-88615369D01*
X87747608Y-88615369D01*
G37*
G36*
X107042591Y-89178085D02*
G01*
X107076569Y-89188393D01*
X107107890Y-89205134D01*
X107135339Y-89227661D01*
X107157866Y-89255110D01*
X107174607Y-89286431D01*
X107184915Y-89320409D01*
X107189000Y-89361890D01*
X107189000Y-90038110D01*
X107184915Y-90079591D01*
X107174607Y-90113569D01*
X107157866Y-90144890D01*
X107135339Y-90172339D01*
X107107890Y-90194866D01*
X107076569Y-90211607D01*
X107042591Y-90221915D01*
X107001110Y-90226000D01*
X106399890Y-90226000D01*
X106358409Y-90221915D01*
X106324431Y-90211607D01*
X106293110Y-90194866D01*
X106265661Y-90172339D01*
X106243134Y-90144890D01*
X106226393Y-90113569D01*
X106216085Y-90079591D01*
X106212000Y-90038110D01*
X106212000Y-89361890D01*
X106216085Y-89320409D01*
X106226393Y-89286431D01*
X106243134Y-89255110D01*
X106265661Y-89227661D01*
X106293110Y-89205134D01*
X106324431Y-89188393D01*
X106358409Y-89178085D01*
X106399890Y-89174000D01*
X107001110Y-89174000D01*
X107042591Y-89178085D01*
X107042591Y-89178085D01*
G37*
G36*
X108617591Y-89178085D02*
G01*
X108651569Y-89188393D01*
X108682890Y-89205134D01*
X108710339Y-89227661D01*
X108732866Y-89255110D01*
X108749607Y-89286431D01*
X108759915Y-89320409D01*
X108764000Y-89361890D01*
X108764000Y-90038110D01*
X108759915Y-90079591D01*
X108749607Y-90113569D01*
X108732866Y-90144890D01*
X108710339Y-90172339D01*
X108682890Y-90194866D01*
X108651569Y-90211607D01*
X108617591Y-90221915D01*
X108576110Y-90226000D01*
X107974890Y-90226000D01*
X107933409Y-90221915D01*
X107899431Y-90211607D01*
X107868110Y-90194866D01*
X107840661Y-90172339D01*
X107818134Y-90144890D01*
X107801393Y-90113569D01*
X107791085Y-90079591D01*
X107787000Y-90038110D01*
X107787000Y-89361890D01*
X107791085Y-89320409D01*
X107801393Y-89286431D01*
X107818134Y-89255110D01*
X107840661Y-89227661D01*
X107868110Y-89205134D01*
X107899431Y-89188393D01*
X107933409Y-89178085D01*
X107974890Y-89174000D01*
X108576110Y-89174000D01*
X108617591Y-89178085D01*
X108617591Y-89178085D01*
G37*
G36*
X99426000Y-90081000D02*
G01*
X98674000Y-90081000D01*
X98674000Y-88919000D01*
X99426000Y-88919000D01*
X99426000Y-90081000D01*
X99426000Y-90081000D01*
G37*
G36*
X101326000Y-90081000D02*
G01*
X100574000Y-90081000D01*
X100574000Y-88919000D01*
X101326000Y-88919000D01*
X101326000Y-90081000D01*
X101326000Y-90081000D01*
G37*
G36*
X97584468Y-88603565D02*
G01*
X97623138Y-88615296D01*
X97658777Y-88634346D01*
X97690017Y-88659983D01*
X97715654Y-88691223D01*
X97734704Y-88726862D01*
X97746435Y-88765532D01*
X97751000Y-88811888D01*
X97751000Y-89463112D01*
X97746435Y-89509468D01*
X97734704Y-89548138D01*
X97715654Y-89583777D01*
X97690017Y-89615017D01*
X97658777Y-89640654D01*
X97623138Y-89659704D01*
X97584468Y-89671435D01*
X97538112Y-89676000D01*
X96461888Y-89676000D01*
X96415532Y-89671435D01*
X96376862Y-89659704D01*
X96341223Y-89640654D01*
X96309983Y-89615017D01*
X96284346Y-89583777D01*
X96265296Y-89548138D01*
X96253565Y-89509468D01*
X96249000Y-89463112D01*
X96249000Y-88811888D01*
X96253565Y-88765532D01*
X96265296Y-88726862D01*
X96284346Y-88691223D01*
X96309983Y-88659983D01*
X96341223Y-88634346D01*
X96376862Y-88615296D01*
X96415532Y-88603565D01*
X96461888Y-88599000D01*
X97538112Y-88599000D01*
X97584468Y-88603565D01*
X97584468Y-88603565D01*
G37*
G36*
X103584468Y-88603565D02*
G01*
X103623138Y-88615296D01*
X103658777Y-88634346D01*
X103690017Y-88659983D01*
X103715654Y-88691223D01*
X103734704Y-88726862D01*
X103746435Y-88765532D01*
X103751000Y-88811888D01*
X103751000Y-89463112D01*
X103746435Y-89509468D01*
X103734704Y-89548138D01*
X103715654Y-89583777D01*
X103690017Y-89615017D01*
X103658777Y-89640654D01*
X103623138Y-89659704D01*
X103584468Y-89671435D01*
X103538112Y-89676000D01*
X102461888Y-89676000D01*
X102415532Y-89671435D01*
X102376862Y-89659704D01*
X102341223Y-89640654D01*
X102309983Y-89615017D01*
X102284346Y-89583777D01*
X102265296Y-89548138D01*
X102253565Y-89509468D01*
X102249000Y-89463112D01*
X102249000Y-88811888D01*
X102253565Y-88765532D01*
X102265296Y-88726862D01*
X102284346Y-88691223D01*
X102309983Y-88659983D01*
X102341223Y-88634346D01*
X102376862Y-88615296D01*
X102415532Y-88603565D01*
X102461888Y-88599000D01*
X103538112Y-88599000D01*
X103584468Y-88603565D01*
X103584468Y-88603565D01*
G37*
G36*
X112424549Y-86771116D02*
G01*
X112535734Y-86793232D01*
X112745203Y-86879997D01*
X112933720Y-87005960D01*
X113094040Y-87166280D01*
X113220003Y-87354797D01*
X113306768Y-87564266D01*
X113310808Y-87584576D01*
X113351000Y-87786635D01*
X113351000Y-88013365D01*
X113306768Y-88235733D01*
X113226549Y-88429401D01*
X113220003Y-88445203D01*
X113094040Y-88633720D01*
X112933720Y-88794040D01*
X112745203Y-88920003D01*
X112535734Y-89006768D01*
X112424549Y-89028884D01*
X112313365Y-89051000D01*
X112086635Y-89051000D01*
X111975451Y-89028884D01*
X111864266Y-89006768D01*
X111654797Y-88920003D01*
X111466280Y-88794040D01*
X111305960Y-88633720D01*
X111179997Y-88445203D01*
X111173452Y-88429401D01*
X111093232Y-88235733D01*
X111049000Y-88013365D01*
X111049000Y-87786635D01*
X111089192Y-87584576D01*
X111093232Y-87564266D01*
X111179997Y-87354797D01*
X111305960Y-87166280D01*
X111466280Y-87005960D01*
X111654797Y-86879997D01*
X111864266Y-86793232D01*
X111975451Y-86771116D01*
X112086635Y-86749000D01*
X112313365Y-86749000D01*
X112424549Y-86771116D01*
X112424549Y-86771116D01*
G37*
G36*
X89161821Y-87201156D02*
G01*
X89315072Y-87247644D01*
X89456309Y-87323137D01*
X89502443Y-87360999D01*
X89549083Y-87399275D01*
X89800725Y-87650917D01*
X89804166Y-87655110D01*
X89876863Y-87743691D01*
X89952356Y-87884928D01*
X89952357Y-87884931D01*
X89998845Y-88038177D01*
X90007061Y-88121606D01*
X90014541Y-88197554D01*
X90007061Y-88273502D01*
X89998845Y-88356930D01*
X89968714Y-88456255D01*
X89952356Y-88510180D01*
X89876863Y-88651417D01*
X89775267Y-88775213D01*
X89651471Y-88876809D01*
X89572537Y-88919000D01*
X89510234Y-88952302D01*
X89356984Y-88998791D01*
X89275981Y-89006768D01*
X89197608Y-89014487D01*
X89119235Y-89006768D01*
X89038231Y-88998791D01*
X88884985Y-88952303D01*
X88884982Y-88952302D01*
X88743745Y-88876809D01*
X88669311Y-88815722D01*
X88650971Y-88800671D01*
X88399329Y-88549029D01*
X88342343Y-88479591D01*
X88323191Y-88456255D01*
X88247698Y-88315018D01*
X88201210Y-88161767D01*
X88185513Y-88002392D01*
X88201210Y-87843017D01*
X88247698Y-87689766D01*
X88323191Y-87548529D01*
X88354757Y-87510066D01*
X88424787Y-87424733D01*
X88510120Y-87354703D01*
X88548583Y-87323137D01*
X88689820Y-87247644D01*
X88843071Y-87201156D01*
X89002446Y-87185459D01*
X89161821Y-87201156D01*
X89161821Y-87201156D01*
G37*
G36*
X107042591Y-87578085D02*
G01*
X107076569Y-87588393D01*
X107107890Y-87605134D01*
X107135339Y-87627661D01*
X107157866Y-87655110D01*
X107174607Y-87686431D01*
X107184915Y-87720409D01*
X107189000Y-87761890D01*
X107189000Y-88438110D01*
X107184915Y-88479591D01*
X107174607Y-88513569D01*
X107157866Y-88544890D01*
X107135339Y-88572339D01*
X107107890Y-88594866D01*
X107076569Y-88611607D01*
X107042591Y-88621915D01*
X107001110Y-88626000D01*
X106399890Y-88626000D01*
X106358409Y-88621915D01*
X106324431Y-88611607D01*
X106293110Y-88594866D01*
X106265661Y-88572339D01*
X106243134Y-88544890D01*
X106226393Y-88513569D01*
X106216085Y-88479591D01*
X106212000Y-88438110D01*
X106212000Y-87761890D01*
X106216085Y-87720409D01*
X106226393Y-87686431D01*
X106243134Y-87655110D01*
X106265661Y-87627661D01*
X106293110Y-87605134D01*
X106324431Y-87588393D01*
X106358409Y-87578085D01*
X106399890Y-87574000D01*
X107001110Y-87574000D01*
X107042591Y-87578085D01*
X107042591Y-87578085D01*
G37*
G36*
X108617591Y-87578085D02*
G01*
X108651569Y-87588393D01*
X108682890Y-87605134D01*
X108710339Y-87627661D01*
X108732866Y-87655110D01*
X108749607Y-87686431D01*
X108759915Y-87720409D01*
X108764000Y-87761890D01*
X108764000Y-88438110D01*
X108759915Y-88479591D01*
X108749607Y-88513569D01*
X108732866Y-88544890D01*
X108710339Y-88572339D01*
X108682890Y-88594866D01*
X108651569Y-88611607D01*
X108617591Y-88621915D01*
X108576110Y-88626000D01*
X107974890Y-88626000D01*
X107933409Y-88621915D01*
X107899431Y-88611607D01*
X107868110Y-88594866D01*
X107840661Y-88572339D01*
X107818134Y-88544890D01*
X107801393Y-88513569D01*
X107791085Y-88479591D01*
X107787000Y-88438110D01*
X107787000Y-87761890D01*
X107791085Y-87720409D01*
X107801393Y-87686431D01*
X107818134Y-87655110D01*
X107840661Y-87627661D01*
X107868110Y-87605134D01*
X107899431Y-87588393D01*
X107933409Y-87578085D01*
X107974890Y-87574000D01*
X108576110Y-87574000D01*
X108617591Y-87578085D01*
X108617591Y-87578085D01*
G37*
G36*
X101326000Y-87881000D02*
G01*
X98674000Y-87881000D01*
X98674000Y-86719000D01*
X101326000Y-86719000D01*
X101326000Y-87881000D01*
X101326000Y-87881000D01*
G37*
G36*
X103584468Y-86728565D02*
G01*
X103623138Y-86740296D01*
X103658777Y-86759346D01*
X103690017Y-86784983D01*
X103715654Y-86816223D01*
X103734704Y-86851862D01*
X103746435Y-86890532D01*
X103751000Y-86936888D01*
X103751000Y-87588112D01*
X103746435Y-87634468D01*
X103734704Y-87673138D01*
X103715654Y-87708777D01*
X103690017Y-87740017D01*
X103658777Y-87765654D01*
X103623138Y-87784704D01*
X103584468Y-87796435D01*
X103538112Y-87801000D01*
X102461888Y-87801000D01*
X102415532Y-87796435D01*
X102376862Y-87784704D01*
X102341223Y-87765654D01*
X102309983Y-87740017D01*
X102284346Y-87708777D01*
X102265296Y-87673138D01*
X102253565Y-87634468D01*
X102249000Y-87588112D01*
X102249000Y-86936888D01*
X102253565Y-86890532D01*
X102265296Y-86851862D01*
X102284346Y-86816223D01*
X102309983Y-86784983D01*
X102341223Y-86759346D01*
X102376862Y-86740296D01*
X102415532Y-86728565D01*
X102461888Y-86724000D01*
X103538112Y-86724000D01*
X103584468Y-86728565D01*
X103584468Y-86728565D01*
G37*
G36*
X97584468Y-86728565D02*
G01*
X97623138Y-86740296D01*
X97658777Y-86759346D01*
X97690017Y-86784983D01*
X97715654Y-86816223D01*
X97734704Y-86851862D01*
X97746435Y-86890532D01*
X97751000Y-86936888D01*
X97751000Y-87588112D01*
X97746435Y-87634468D01*
X97734704Y-87673138D01*
X97715654Y-87708777D01*
X97690017Y-87740017D01*
X97658777Y-87765654D01*
X97623138Y-87784704D01*
X97584468Y-87796435D01*
X97538112Y-87801000D01*
X96461888Y-87801000D01*
X96415532Y-87796435D01*
X96376862Y-87784704D01*
X96341223Y-87765654D01*
X96309983Y-87740017D01*
X96284346Y-87708777D01*
X96265296Y-87673138D01*
X96253565Y-87634468D01*
X96249000Y-87588112D01*
X96249000Y-86936888D01*
X96253565Y-86890532D01*
X96265296Y-86851862D01*
X96284346Y-86816223D01*
X96309983Y-86784983D01*
X96341223Y-86759346D01*
X96376862Y-86740296D01*
X96415532Y-86728565D01*
X96461888Y-86724000D01*
X97538112Y-86724000D01*
X97584468Y-86728565D01*
X97584468Y-86728565D01*
G37*
G36*
X90576035Y-85786942D02*
G01*
X90729286Y-85833430D01*
X90870523Y-85908923D01*
X90926564Y-85954915D01*
X90963297Y-85985061D01*
X91214939Y-86236703D01*
X91241570Y-86269153D01*
X91291077Y-86329477D01*
X91366570Y-86470714D01*
X91366571Y-86470717D01*
X91413059Y-86623963D01*
X91421275Y-86707392D01*
X91428755Y-86783340D01*
X91426832Y-86802861D01*
X91413059Y-86942716D01*
X91382928Y-87042041D01*
X91366570Y-87095966D01*
X91291077Y-87237203D01*
X91189481Y-87360999D01*
X91065685Y-87462595D01*
X90924448Y-87538088D01*
X90771198Y-87584577D01*
X90689809Y-87592592D01*
X90611822Y-87600273D01*
X90535874Y-87592793D01*
X90452445Y-87584577D01*
X90299199Y-87538089D01*
X90299196Y-87538088D01*
X90157959Y-87462595D01*
X90080804Y-87399275D01*
X90065185Y-87386457D01*
X89813543Y-87134815D01*
X89781661Y-87095966D01*
X89737405Y-87042041D01*
X89661912Y-86900804D01*
X89615424Y-86747553D01*
X89599727Y-86588178D01*
X89615424Y-86428803D01*
X89661912Y-86275552D01*
X89737405Y-86134315D01*
X89768971Y-86095852D01*
X89839001Y-86010519D01*
X89924334Y-85940489D01*
X89962797Y-85908923D01*
X90104034Y-85833430D01*
X90257285Y-85786942D01*
X90416660Y-85771245D01*
X90576035Y-85786942D01*
X90576035Y-85786942D01*
G37*
G36*
X106966591Y-84678085D02*
G01*
X107000569Y-84688393D01*
X107031890Y-84705134D01*
X107059339Y-84727661D01*
X107081866Y-84755110D01*
X107098607Y-84786431D01*
X107108915Y-84820409D01*
X107113000Y-84861890D01*
X107113000Y-85538110D01*
X107108915Y-85579591D01*
X107098607Y-85613569D01*
X107081866Y-85644890D01*
X107059339Y-85672339D01*
X107031890Y-85694866D01*
X107000569Y-85711607D01*
X106966591Y-85721915D01*
X106925110Y-85726000D01*
X106323890Y-85726000D01*
X106282409Y-85721915D01*
X106248431Y-85711607D01*
X106217110Y-85694866D01*
X106189661Y-85672339D01*
X106167134Y-85644890D01*
X106150393Y-85613569D01*
X106140085Y-85579591D01*
X106136000Y-85538110D01*
X106136000Y-84861890D01*
X106140085Y-84820409D01*
X106150393Y-84786431D01*
X106167134Y-84755110D01*
X106189661Y-84727661D01*
X106217110Y-84705134D01*
X106248431Y-84688393D01*
X106282409Y-84678085D01*
X106323890Y-84674000D01*
X106925110Y-84674000D01*
X106966591Y-84678085D01*
X106966591Y-84678085D01*
G37*
G36*
X108541591Y-84678085D02*
G01*
X108575569Y-84688393D01*
X108606890Y-84705134D01*
X108634339Y-84727661D01*
X108656866Y-84755110D01*
X108673607Y-84786431D01*
X108683915Y-84820409D01*
X108688000Y-84861890D01*
X108688000Y-85538110D01*
X108683915Y-85579591D01*
X108673607Y-85613569D01*
X108656866Y-85644890D01*
X108634339Y-85672339D01*
X108606890Y-85694866D01*
X108575569Y-85711607D01*
X108541591Y-85721915D01*
X108500110Y-85726000D01*
X107898890Y-85726000D01*
X107857409Y-85721915D01*
X107823431Y-85711607D01*
X107792110Y-85694866D01*
X107764661Y-85672339D01*
X107742134Y-85644890D01*
X107725393Y-85613569D01*
X107715085Y-85579591D01*
X107711000Y-85538110D01*
X107711000Y-84861890D01*
X107715085Y-84820409D01*
X107725393Y-84786431D01*
X107742134Y-84755110D01*
X107764661Y-84727661D01*
X107792110Y-84705134D01*
X107823431Y-84688393D01*
X107857409Y-84678085D01*
X107898890Y-84674000D01*
X108500110Y-84674000D01*
X108541591Y-84678085D01*
X108541591Y-84678085D01*
G37*
G36*
X103279591Y-83603085D02*
G01*
X103313569Y-83613393D01*
X103344890Y-83630134D01*
X103372339Y-83652661D01*
X103394866Y-83680110D01*
X103411607Y-83711431D01*
X103421915Y-83745409D01*
X103426000Y-83786890D01*
X103426000Y-84388110D01*
X103421915Y-84429591D01*
X103411607Y-84463569D01*
X103394866Y-84494890D01*
X103372339Y-84522339D01*
X103344890Y-84544866D01*
X103313569Y-84561607D01*
X103279591Y-84571915D01*
X103238110Y-84576000D01*
X102561890Y-84576000D01*
X102520409Y-84571915D01*
X102486431Y-84561607D01*
X102455110Y-84544866D01*
X102427661Y-84522339D01*
X102405134Y-84494890D01*
X102388393Y-84463569D01*
X102378085Y-84429591D01*
X102374000Y-84388110D01*
X102374000Y-83786890D01*
X102378085Y-83745409D01*
X102388393Y-83711431D01*
X102405134Y-83680110D01*
X102427661Y-83652661D01*
X102455110Y-83630134D01*
X102486431Y-83613393D01*
X102520409Y-83603085D01*
X102561890Y-83599000D01*
X103238110Y-83599000D01*
X103279591Y-83603085D01*
X103279591Y-83603085D01*
G37*
G36*
X97479591Y-83603085D02*
G01*
X97513569Y-83613393D01*
X97544890Y-83630134D01*
X97572339Y-83652661D01*
X97594866Y-83680110D01*
X97611607Y-83711431D01*
X97621915Y-83745409D01*
X97626000Y-83786890D01*
X97626000Y-84388110D01*
X97621915Y-84429591D01*
X97611607Y-84463569D01*
X97594866Y-84494890D01*
X97572339Y-84522339D01*
X97544890Y-84544866D01*
X97513569Y-84561607D01*
X97479591Y-84571915D01*
X97438110Y-84576000D01*
X96761890Y-84576000D01*
X96720409Y-84571915D01*
X96686431Y-84561607D01*
X96655110Y-84544866D01*
X96627661Y-84522339D01*
X96605134Y-84494890D01*
X96588393Y-84463569D01*
X96578085Y-84429591D01*
X96574000Y-84388110D01*
X96574000Y-83786890D01*
X96578085Y-83745409D01*
X96588393Y-83711431D01*
X96605134Y-83680110D01*
X96627661Y-83652661D01*
X96655110Y-83630134D01*
X96686431Y-83613393D01*
X96720409Y-83603085D01*
X96761890Y-83599000D01*
X97438110Y-83599000D01*
X97479591Y-83603085D01*
X97479591Y-83603085D01*
G37*
G36*
X100251874Y-81169683D02*
G01*
X100409019Y-81234775D01*
X100409021Y-81234776D01*
X100550449Y-81329276D01*
X100670724Y-81449551D01*
X100670725Y-81449553D01*
X100765225Y-81590981D01*
X100830317Y-81748126D01*
X100863500Y-81914951D01*
X100863500Y-82085049D01*
X100830317Y-82251874D01*
X100765225Y-82409019D01*
X100765224Y-82409021D01*
X100670724Y-82550449D01*
X100550449Y-82670724D01*
X100550446Y-82670726D01*
X100550444Y-82670728D01*
X100490070Y-82711069D01*
X100471128Y-82726614D01*
X100455583Y-82745556D01*
X100444032Y-82767167D01*
X100436919Y-82790616D01*
X100434517Y-82815002D01*
X100436919Y-82839388D01*
X100444032Y-82862837D01*
X100455584Y-82884447D01*
X100471129Y-82903389D01*
X100490071Y-82918934D01*
X100511682Y-82930485D01*
X100535131Y-82937598D01*
X100559516Y-82940000D01*
X101251000Y-82940000D01*
X101251000Y-84386000D01*
X100424000Y-84386000D01*
X100424000Y-82946094D01*
X100421598Y-82921708D01*
X100414485Y-82898259D01*
X100402934Y-82876648D01*
X100387389Y-82857706D01*
X100368447Y-82842161D01*
X100346836Y-82830610D01*
X100323387Y-82823497D01*
X100299001Y-82821095D01*
X100274615Y-82823497D01*
X100252625Y-82830168D01*
X100085049Y-82863500D01*
X99914951Y-82863500D01*
X99747375Y-82830168D01*
X99725385Y-82823497D01*
X99700999Y-82821095D01*
X99676613Y-82823497D01*
X99653164Y-82830610D01*
X99631553Y-82842161D01*
X99612611Y-82857706D01*
X99597066Y-82876648D01*
X99585515Y-82898259D01*
X99578402Y-82921708D01*
X99576000Y-82946094D01*
X99576000Y-84386000D01*
X98749000Y-84386000D01*
X98749000Y-82940000D01*
X99440484Y-82940000D01*
X99464870Y-82937598D01*
X99488319Y-82930485D01*
X99509930Y-82918934D01*
X99528872Y-82903389D01*
X99544417Y-82884447D01*
X99555968Y-82862836D01*
X99563081Y-82839387D01*
X99565483Y-82815001D01*
X99563081Y-82790615D01*
X99555968Y-82767166D01*
X99544417Y-82745555D01*
X99528872Y-82726613D01*
X99509930Y-82711069D01*
X99449556Y-82670728D01*
X99449554Y-82670726D01*
X99449551Y-82670724D01*
X99329276Y-82550449D01*
X99234776Y-82409021D01*
X99234775Y-82409019D01*
X99169683Y-82251874D01*
X99136500Y-82085049D01*
X99136500Y-81914951D01*
X99169683Y-81748126D01*
X99234775Y-81590981D01*
X99329275Y-81449553D01*
X99329276Y-81449551D01*
X99449551Y-81329276D01*
X99590979Y-81234776D01*
X99590981Y-81234775D01*
X99748126Y-81169683D01*
X99914951Y-81136500D01*
X100085049Y-81136500D01*
X100251874Y-81169683D01*
X100251874Y-81169683D01*
G37*
G36*
X97479591Y-82028085D02*
G01*
X97513569Y-82038393D01*
X97544890Y-82055134D01*
X97572339Y-82077661D01*
X97594866Y-82105110D01*
X97611607Y-82136431D01*
X97621915Y-82170409D01*
X97626000Y-82211890D01*
X97626000Y-82813110D01*
X97621915Y-82854591D01*
X97611607Y-82888569D01*
X97594866Y-82919890D01*
X97572339Y-82947339D01*
X97544890Y-82969866D01*
X97513569Y-82986607D01*
X97479591Y-82996915D01*
X97438110Y-83001000D01*
X96761890Y-83001000D01*
X96720409Y-82996915D01*
X96686431Y-82986607D01*
X96655110Y-82969866D01*
X96627661Y-82947339D01*
X96605134Y-82919890D01*
X96588393Y-82888569D01*
X96578085Y-82854591D01*
X96574000Y-82813110D01*
X96574000Y-82211890D01*
X96578085Y-82170409D01*
X96588393Y-82136431D01*
X96605134Y-82105110D01*
X96627661Y-82077661D01*
X96655110Y-82055134D01*
X96686431Y-82038393D01*
X96720409Y-82028085D01*
X96761890Y-82024000D01*
X97438110Y-82024000D01*
X97479591Y-82028085D01*
X97479591Y-82028085D01*
G37*
G36*
X103279591Y-82028085D02*
G01*
X103313569Y-82038393D01*
X103344890Y-82055134D01*
X103372339Y-82077661D01*
X103394866Y-82105110D01*
X103411607Y-82136431D01*
X103421915Y-82170409D01*
X103426000Y-82211890D01*
X103426000Y-82813110D01*
X103421915Y-82854591D01*
X103411607Y-82888569D01*
X103394866Y-82919890D01*
X103372339Y-82947339D01*
X103344890Y-82969866D01*
X103313569Y-82986607D01*
X103279591Y-82996915D01*
X103238110Y-83001000D01*
X102561890Y-83001000D01*
X102520409Y-82996915D01*
X102486431Y-82986607D01*
X102455110Y-82969866D01*
X102427661Y-82947339D01*
X102405134Y-82919890D01*
X102388393Y-82888569D01*
X102378085Y-82854591D01*
X102374000Y-82813110D01*
X102374000Y-82211890D01*
X102378085Y-82170409D01*
X102388393Y-82136431D01*
X102405134Y-82105110D01*
X102427661Y-82077661D01*
X102455110Y-82055134D01*
X102486431Y-82038393D01*
X102520409Y-82028085D01*
X102561890Y-82024000D01*
X103238110Y-82024000D01*
X103279591Y-82028085D01*
X103279591Y-82028085D01*
G37*
M02*
