G04 #@! TF.GenerationSoftware,KiCad,Pcbnew,(5.1.2)-1*
G04 #@! TF.CreationDate,2021-01-06T23:16:40+09:00*
G04 #@! TF.ProjectId,ssl,73736c2e-6b69-4636-9164-5f7063625858,v1.3*
G04 #@! TF.SameCoordinates,Original*
G04 #@! TF.FileFunction,Copper,L2,Bot*
G04 #@! TF.FilePolarity,Positive*
%FSLAX46Y46*%
G04 Gerber Fmt 4.6, Leading zero omitted, Abs format (unit mm)*
G04 Created by KiCad (PCBNEW (5.1.2)-1) date 2021-01-06 23:16:40*
%MOMM*%
%LPD*%
G04 APERTURE LIST*
%ADD10R,1.297940X1.399540*%
%ADD11R,2.298700X1.498600*%
%ADD12C,1.625000*%
%ADD13O,1.700000X1.700000*%
%ADD14R,1.700000X1.700000*%
%ADD15C,1.524000*%
%ADD16C,1.524000*%
%ADD17C,0.100000*%
%ADD18C,0.875000*%
%ADD19C,0.800000*%
%ADD20C,0.250000*%
%ADD21C,0.254000*%
G04 APERTURE END LIST*
D10*
X98348080Y-107649780D03*
D11*
X97200000Y-103801680D03*
D10*
X96051920Y-107649780D03*
D12*
X82000000Y-100000000D03*
X100000000Y-118000000D03*
X118000000Y-100000000D03*
X100000000Y-82000000D03*
D13*
X110700000Y-103720000D03*
X110700000Y-101180000D03*
X110700000Y-98640000D03*
D14*
X110700000Y-96100000D03*
D13*
X89300000Y-102780000D03*
X89300000Y-100240000D03*
D14*
X89300000Y-97700000D03*
D15*
X90514241Y-86685759D03*
D16*
X90416660Y-86588178D02*
X90611822Y-86783340D01*
D15*
X89100027Y-88099973D03*
D16*
X89002446Y-88002392D02*
X89197608Y-88197554D01*
D15*
X87685814Y-89514186D03*
D16*
X87588233Y-89416605D02*
X87783395Y-89611767D01*
D15*
X86271600Y-90928400D03*
D16*
X86174019Y-90830819D02*
X86369181Y-91025981D01*
D17*
G36*
X90138077Y-91203274D02*
G01*
X90159312Y-91206424D01*
X90180136Y-91211640D01*
X90200348Y-91218872D01*
X90219754Y-91228051D01*
X90238167Y-91239087D01*
X90255410Y-91251875D01*
X90271316Y-91266291D01*
X90633709Y-91628684D01*
X90648125Y-91644590D01*
X90660913Y-91661833D01*
X90671949Y-91680246D01*
X90681128Y-91699652D01*
X90688360Y-91719864D01*
X90693576Y-91740688D01*
X90696726Y-91761923D01*
X90697779Y-91783364D01*
X90696726Y-91804805D01*
X90693576Y-91826040D01*
X90688360Y-91846864D01*
X90681128Y-91867076D01*
X90671949Y-91886482D01*
X90660913Y-91904895D01*
X90648125Y-91922138D01*
X90633709Y-91938044D01*
X90324350Y-92247403D01*
X90308444Y-92261819D01*
X90291201Y-92274607D01*
X90272788Y-92285643D01*
X90253382Y-92294822D01*
X90233170Y-92302054D01*
X90212346Y-92307270D01*
X90191111Y-92310420D01*
X90169670Y-92311473D01*
X90148229Y-92310420D01*
X90126994Y-92307270D01*
X90106170Y-92302054D01*
X90085958Y-92294822D01*
X90066552Y-92285643D01*
X90048139Y-92274607D01*
X90030896Y-92261819D01*
X90014990Y-92247403D01*
X89652597Y-91885010D01*
X89638181Y-91869104D01*
X89625393Y-91851861D01*
X89614357Y-91833448D01*
X89605178Y-91814042D01*
X89597946Y-91793830D01*
X89592730Y-91773006D01*
X89589580Y-91751771D01*
X89588527Y-91730330D01*
X89589580Y-91708889D01*
X89592730Y-91687654D01*
X89597946Y-91666830D01*
X89605178Y-91646618D01*
X89614357Y-91627212D01*
X89625393Y-91608799D01*
X89638181Y-91591556D01*
X89652597Y-91575650D01*
X89961956Y-91266291D01*
X89977862Y-91251875D01*
X89995105Y-91239087D01*
X90013518Y-91228051D01*
X90032924Y-91218872D01*
X90053136Y-91211640D01*
X90073960Y-91206424D01*
X90095195Y-91203274D01*
X90116636Y-91202221D01*
X90138077Y-91203274D01*
X90138077Y-91203274D01*
G37*
D18*
X90143153Y-91756847D03*
D17*
G36*
X91251771Y-90089580D02*
G01*
X91273006Y-90092730D01*
X91293830Y-90097946D01*
X91314042Y-90105178D01*
X91333448Y-90114357D01*
X91351861Y-90125393D01*
X91369104Y-90138181D01*
X91385010Y-90152597D01*
X91747403Y-90514990D01*
X91761819Y-90530896D01*
X91774607Y-90548139D01*
X91785643Y-90566552D01*
X91794822Y-90585958D01*
X91802054Y-90606170D01*
X91807270Y-90626994D01*
X91810420Y-90648229D01*
X91811473Y-90669670D01*
X91810420Y-90691111D01*
X91807270Y-90712346D01*
X91802054Y-90733170D01*
X91794822Y-90753382D01*
X91785643Y-90772788D01*
X91774607Y-90791201D01*
X91761819Y-90808444D01*
X91747403Y-90824350D01*
X91438044Y-91133709D01*
X91422138Y-91148125D01*
X91404895Y-91160913D01*
X91386482Y-91171949D01*
X91367076Y-91181128D01*
X91346864Y-91188360D01*
X91326040Y-91193576D01*
X91304805Y-91196726D01*
X91283364Y-91197779D01*
X91261923Y-91196726D01*
X91240688Y-91193576D01*
X91219864Y-91188360D01*
X91199652Y-91181128D01*
X91180246Y-91171949D01*
X91161833Y-91160913D01*
X91144590Y-91148125D01*
X91128684Y-91133709D01*
X90766291Y-90771316D01*
X90751875Y-90755410D01*
X90739087Y-90738167D01*
X90728051Y-90719754D01*
X90718872Y-90700348D01*
X90711640Y-90680136D01*
X90706424Y-90659312D01*
X90703274Y-90638077D01*
X90702221Y-90616636D01*
X90703274Y-90595195D01*
X90706424Y-90573960D01*
X90711640Y-90553136D01*
X90718872Y-90532924D01*
X90728051Y-90513518D01*
X90739087Y-90495105D01*
X90751875Y-90477862D01*
X90766291Y-90461956D01*
X91075650Y-90152597D01*
X91091556Y-90138181D01*
X91108799Y-90125393D01*
X91127212Y-90114357D01*
X91146618Y-90105178D01*
X91166830Y-90097946D01*
X91187654Y-90092730D01*
X91208889Y-90089580D01*
X91230330Y-90088527D01*
X91251771Y-90089580D01*
X91251771Y-90089580D01*
G37*
D18*
X91256847Y-90643153D03*
D17*
G36*
X87477691Y-100351053D02*
G01*
X87498926Y-100354203D01*
X87519750Y-100359419D01*
X87539962Y-100366651D01*
X87559368Y-100375830D01*
X87577781Y-100386866D01*
X87595024Y-100399654D01*
X87610930Y-100414070D01*
X87625346Y-100429976D01*
X87638134Y-100447219D01*
X87649170Y-100465632D01*
X87658349Y-100485038D01*
X87665581Y-100505250D01*
X87670797Y-100526074D01*
X87673947Y-100547309D01*
X87675000Y-100568750D01*
X87675000Y-101006250D01*
X87673947Y-101027691D01*
X87670797Y-101048926D01*
X87665581Y-101069750D01*
X87658349Y-101089962D01*
X87649170Y-101109368D01*
X87638134Y-101127781D01*
X87625346Y-101145024D01*
X87610930Y-101160930D01*
X87595024Y-101175346D01*
X87577781Y-101188134D01*
X87559368Y-101199170D01*
X87539962Y-101208349D01*
X87519750Y-101215581D01*
X87498926Y-101220797D01*
X87477691Y-101223947D01*
X87456250Y-101225000D01*
X86943750Y-101225000D01*
X86922309Y-101223947D01*
X86901074Y-101220797D01*
X86880250Y-101215581D01*
X86860038Y-101208349D01*
X86840632Y-101199170D01*
X86822219Y-101188134D01*
X86804976Y-101175346D01*
X86789070Y-101160930D01*
X86774654Y-101145024D01*
X86761866Y-101127781D01*
X86750830Y-101109368D01*
X86741651Y-101089962D01*
X86734419Y-101069750D01*
X86729203Y-101048926D01*
X86726053Y-101027691D01*
X86725000Y-101006250D01*
X86725000Y-100568750D01*
X86726053Y-100547309D01*
X86729203Y-100526074D01*
X86734419Y-100505250D01*
X86741651Y-100485038D01*
X86750830Y-100465632D01*
X86761866Y-100447219D01*
X86774654Y-100429976D01*
X86789070Y-100414070D01*
X86804976Y-100399654D01*
X86822219Y-100386866D01*
X86840632Y-100375830D01*
X86860038Y-100366651D01*
X86880250Y-100359419D01*
X86901074Y-100354203D01*
X86922309Y-100351053D01*
X86943750Y-100350000D01*
X87456250Y-100350000D01*
X87477691Y-100351053D01*
X87477691Y-100351053D01*
G37*
D18*
X87200000Y-100787500D03*
D17*
G36*
X87477691Y-98776053D02*
G01*
X87498926Y-98779203D01*
X87519750Y-98784419D01*
X87539962Y-98791651D01*
X87559368Y-98800830D01*
X87577781Y-98811866D01*
X87595024Y-98824654D01*
X87610930Y-98839070D01*
X87625346Y-98854976D01*
X87638134Y-98872219D01*
X87649170Y-98890632D01*
X87658349Y-98910038D01*
X87665581Y-98930250D01*
X87670797Y-98951074D01*
X87673947Y-98972309D01*
X87675000Y-98993750D01*
X87675000Y-99431250D01*
X87673947Y-99452691D01*
X87670797Y-99473926D01*
X87665581Y-99494750D01*
X87658349Y-99514962D01*
X87649170Y-99534368D01*
X87638134Y-99552781D01*
X87625346Y-99570024D01*
X87610930Y-99585930D01*
X87595024Y-99600346D01*
X87577781Y-99613134D01*
X87559368Y-99624170D01*
X87539962Y-99633349D01*
X87519750Y-99640581D01*
X87498926Y-99645797D01*
X87477691Y-99648947D01*
X87456250Y-99650000D01*
X86943750Y-99650000D01*
X86922309Y-99648947D01*
X86901074Y-99645797D01*
X86880250Y-99640581D01*
X86860038Y-99633349D01*
X86840632Y-99624170D01*
X86822219Y-99613134D01*
X86804976Y-99600346D01*
X86789070Y-99585930D01*
X86774654Y-99570024D01*
X86761866Y-99552781D01*
X86750830Y-99534368D01*
X86741651Y-99514962D01*
X86734419Y-99494750D01*
X86729203Y-99473926D01*
X86726053Y-99452691D01*
X86725000Y-99431250D01*
X86725000Y-98993750D01*
X86726053Y-98972309D01*
X86729203Y-98951074D01*
X86734419Y-98930250D01*
X86741651Y-98910038D01*
X86750830Y-98890632D01*
X86761866Y-98872219D01*
X86774654Y-98854976D01*
X86789070Y-98839070D01*
X86804976Y-98824654D01*
X86822219Y-98811866D01*
X86840632Y-98800830D01*
X86860038Y-98791651D01*
X86880250Y-98784419D01*
X86901074Y-98779203D01*
X86922309Y-98776053D01*
X86943750Y-98775000D01*
X87456250Y-98775000D01*
X87477691Y-98776053D01*
X87477691Y-98776053D01*
G37*
D18*
X87200000Y-99212500D03*
D17*
G36*
X91404805Y-108903274D02*
G01*
X91426040Y-108906424D01*
X91446864Y-108911640D01*
X91467076Y-108918872D01*
X91486482Y-108928051D01*
X91504895Y-108939087D01*
X91522138Y-108951875D01*
X91538044Y-108966291D01*
X91847403Y-109275650D01*
X91861819Y-109291556D01*
X91874607Y-109308799D01*
X91885643Y-109327212D01*
X91894822Y-109346618D01*
X91902054Y-109366830D01*
X91907270Y-109387654D01*
X91910420Y-109408889D01*
X91911473Y-109430330D01*
X91910420Y-109451771D01*
X91907270Y-109473006D01*
X91902054Y-109493830D01*
X91894822Y-109514042D01*
X91885643Y-109533448D01*
X91874607Y-109551861D01*
X91861819Y-109569104D01*
X91847403Y-109585010D01*
X91485010Y-109947403D01*
X91469104Y-109961819D01*
X91451861Y-109974607D01*
X91433448Y-109985643D01*
X91414042Y-109994822D01*
X91393830Y-110002054D01*
X91373006Y-110007270D01*
X91351771Y-110010420D01*
X91330330Y-110011473D01*
X91308889Y-110010420D01*
X91287654Y-110007270D01*
X91266830Y-110002054D01*
X91246618Y-109994822D01*
X91227212Y-109985643D01*
X91208799Y-109974607D01*
X91191556Y-109961819D01*
X91175650Y-109947403D01*
X90866291Y-109638044D01*
X90851875Y-109622138D01*
X90839087Y-109604895D01*
X90828051Y-109586482D01*
X90818872Y-109567076D01*
X90811640Y-109546864D01*
X90806424Y-109526040D01*
X90803274Y-109504805D01*
X90802221Y-109483364D01*
X90803274Y-109461923D01*
X90806424Y-109440688D01*
X90811640Y-109419864D01*
X90818872Y-109399652D01*
X90828051Y-109380246D01*
X90839087Y-109361833D01*
X90851875Y-109344590D01*
X90866291Y-109328684D01*
X91228684Y-108966291D01*
X91244590Y-108951875D01*
X91261833Y-108939087D01*
X91280246Y-108928051D01*
X91299652Y-108918872D01*
X91319864Y-108911640D01*
X91340688Y-108906424D01*
X91361923Y-108903274D01*
X91383364Y-108902221D01*
X91404805Y-108903274D01*
X91404805Y-108903274D01*
G37*
D18*
X91356847Y-109456847D03*
D17*
G36*
X90291111Y-107789580D02*
G01*
X90312346Y-107792730D01*
X90333170Y-107797946D01*
X90353382Y-107805178D01*
X90372788Y-107814357D01*
X90391201Y-107825393D01*
X90408444Y-107838181D01*
X90424350Y-107852597D01*
X90733709Y-108161956D01*
X90748125Y-108177862D01*
X90760913Y-108195105D01*
X90771949Y-108213518D01*
X90781128Y-108232924D01*
X90788360Y-108253136D01*
X90793576Y-108273960D01*
X90796726Y-108295195D01*
X90797779Y-108316636D01*
X90796726Y-108338077D01*
X90793576Y-108359312D01*
X90788360Y-108380136D01*
X90781128Y-108400348D01*
X90771949Y-108419754D01*
X90760913Y-108438167D01*
X90748125Y-108455410D01*
X90733709Y-108471316D01*
X90371316Y-108833709D01*
X90355410Y-108848125D01*
X90338167Y-108860913D01*
X90319754Y-108871949D01*
X90300348Y-108881128D01*
X90280136Y-108888360D01*
X90259312Y-108893576D01*
X90238077Y-108896726D01*
X90216636Y-108897779D01*
X90195195Y-108896726D01*
X90173960Y-108893576D01*
X90153136Y-108888360D01*
X90132924Y-108881128D01*
X90113518Y-108871949D01*
X90095105Y-108860913D01*
X90077862Y-108848125D01*
X90061956Y-108833709D01*
X89752597Y-108524350D01*
X89738181Y-108508444D01*
X89725393Y-108491201D01*
X89714357Y-108472788D01*
X89705178Y-108453382D01*
X89697946Y-108433170D01*
X89692730Y-108412346D01*
X89689580Y-108391111D01*
X89688527Y-108369670D01*
X89689580Y-108348229D01*
X89692730Y-108326994D01*
X89697946Y-108306170D01*
X89705178Y-108285958D01*
X89714357Y-108266552D01*
X89725393Y-108248139D01*
X89738181Y-108230896D01*
X89752597Y-108214990D01*
X90114990Y-107852597D01*
X90130896Y-107838181D01*
X90148139Y-107825393D01*
X90166552Y-107814357D01*
X90185958Y-107805178D01*
X90206170Y-107797946D01*
X90226994Y-107792730D01*
X90248229Y-107789580D01*
X90269670Y-107788527D01*
X90291111Y-107789580D01*
X90291111Y-107789580D01*
G37*
D18*
X90243153Y-108343153D03*
D17*
G36*
X101027691Y-112326053D02*
G01*
X101048926Y-112329203D01*
X101069750Y-112334419D01*
X101089962Y-112341651D01*
X101109368Y-112350830D01*
X101127781Y-112361866D01*
X101145024Y-112374654D01*
X101160930Y-112389070D01*
X101175346Y-112404976D01*
X101188134Y-112422219D01*
X101199170Y-112440632D01*
X101208349Y-112460038D01*
X101215581Y-112480250D01*
X101220797Y-112501074D01*
X101223947Y-112522309D01*
X101225000Y-112543750D01*
X101225000Y-113056250D01*
X101223947Y-113077691D01*
X101220797Y-113098926D01*
X101215581Y-113119750D01*
X101208349Y-113139962D01*
X101199170Y-113159368D01*
X101188134Y-113177781D01*
X101175346Y-113195024D01*
X101160930Y-113210930D01*
X101145024Y-113225346D01*
X101127781Y-113238134D01*
X101109368Y-113249170D01*
X101089962Y-113258349D01*
X101069750Y-113265581D01*
X101048926Y-113270797D01*
X101027691Y-113273947D01*
X101006250Y-113275000D01*
X100568750Y-113275000D01*
X100547309Y-113273947D01*
X100526074Y-113270797D01*
X100505250Y-113265581D01*
X100485038Y-113258349D01*
X100465632Y-113249170D01*
X100447219Y-113238134D01*
X100429976Y-113225346D01*
X100414070Y-113210930D01*
X100399654Y-113195024D01*
X100386866Y-113177781D01*
X100375830Y-113159368D01*
X100366651Y-113139962D01*
X100359419Y-113119750D01*
X100354203Y-113098926D01*
X100351053Y-113077691D01*
X100350000Y-113056250D01*
X100350000Y-112543750D01*
X100351053Y-112522309D01*
X100354203Y-112501074D01*
X100359419Y-112480250D01*
X100366651Y-112460038D01*
X100375830Y-112440632D01*
X100386866Y-112422219D01*
X100399654Y-112404976D01*
X100414070Y-112389070D01*
X100429976Y-112374654D01*
X100447219Y-112361866D01*
X100465632Y-112350830D01*
X100485038Y-112341651D01*
X100505250Y-112334419D01*
X100526074Y-112329203D01*
X100547309Y-112326053D01*
X100568750Y-112325000D01*
X101006250Y-112325000D01*
X101027691Y-112326053D01*
X101027691Y-112326053D01*
G37*
D18*
X100787500Y-112800000D03*
D17*
G36*
X99452691Y-112326053D02*
G01*
X99473926Y-112329203D01*
X99494750Y-112334419D01*
X99514962Y-112341651D01*
X99534368Y-112350830D01*
X99552781Y-112361866D01*
X99570024Y-112374654D01*
X99585930Y-112389070D01*
X99600346Y-112404976D01*
X99613134Y-112422219D01*
X99624170Y-112440632D01*
X99633349Y-112460038D01*
X99640581Y-112480250D01*
X99645797Y-112501074D01*
X99648947Y-112522309D01*
X99650000Y-112543750D01*
X99650000Y-113056250D01*
X99648947Y-113077691D01*
X99645797Y-113098926D01*
X99640581Y-113119750D01*
X99633349Y-113139962D01*
X99624170Y-113159368D01*
X99613134Y-113177781D01*
X99600346Y-113195024D01*
X99585930Y-113210930D01*
X99570024Y-113225346D01*
X99552781Y-113238134D01*
X99534368Y-113249170D01*
X99514962Y-113258349D01*
X99494750Y-113265581D01*
X99473926Y-113270797D01*
X99452691Y-113273947D01*
X99431250Y-113275000D01*
X98993750Y-113275000D01*
X98972309Y-113273947D01*
X98951074Y-113270797D01*
X98930250Y-113265581D01*
X98910038Y-113258349D01*
X98890632Y-113249170D01*
X98872219Y-113238134D01*
X98854976Y-113225346D01*
X98839070Y-113210930D01*
X98824654Y-113195024D01*
X98811866Y-113177781D01*
X98800830Y-113159368D01*
X98791651Y-113139962D01*
X98784419Y-113119750D01*
X98779203Y-113098926D01*
X98776053Y-113077691D01*
X98775000Y-113056250D01*
X98775000Y-112543750D01*
X98776053Y-112522309D01*
X98779203Y-112501074D01*
X98784419Y-112480250D01*
X98791651Y-112460038D01*
X98800830Y-112440632D01*
X98811866Y-112422219D01*
X98824654Y-112404976D01*
X98839070Y-112389070D01*
X98854976Y-112374654D01*
X98872219Y-112361866D01*
X98890632Y-112350830D01*
X98910038Y-112341651D01*
X98930250Y-112334419D01*
X98951074Y-112329203D01*
X98972309Y-112326053D01*
X98993750Y-112325000D01*
X99431250Y-112325000D01*
X99452691Y-112326053D01*
X99452691Y-112326053D01*
G37*
D18*
X99212500Y-112800000D03*
D17*
G36*
X109651771Y-107889580D02*
G01*
X109673006Y-107892730D01*
X109693830Y-107897946D01*
X109714042Y-107905178D01*
X109733448Y-107914357D01*
X109751861Y-107925393D01*
X109769104Y-107938181D01*
X109785010Y-107952597D01*
X110147403Y-108314990D01*
X110161819Y-108330896D01*
X110174607Y-108348139D01*
X110185643Y-108366552D01*
X110194822Y-108385958D01*
X110202054Y-108406170D01*
X110207270Y-108426994D01*
X110210420Y-108448229D01*
X110211473Y-108469670D01*
X110210420Y-108491111D01*
X110207270Y-108512346D01*
X110202054Y-108533170D01*
X110194822Y-108553382D01*
X110185643Y-108572788D01*
X110174607Y-108591201D01*
X110161819Y-108608444D01*
X110147403Y-108624350D01*
X109838044Y-108933709D01*
X109822138Y-108948125D01*
X109804895Y-108960913D01*
X109786482Y-108971949D01*
X109767076Y-108981128D01*
X109746864Y-108988360D01*
X109726040Y-108993576D01*
X109704805Y-108996726D01*
X109683364Y-108997779D01*
X109661923Y-108996726D01*
X109640688Y-108993576D01*
X109619864Y-108988360D01*
X109599652Y-108981128D01*
X109580246Y-108971949D01*
X109561833Y-108960913D01*
X109544590Y-108948125D01*
X109528684Y-108933709D01*
X109166291Y-108571316D01*
X109151875Y-108555410D01*
X109139087Y-108538167D01*
X109128051Y-108519754D01*
X109118872Y-108500348D01*
X109111640Y-108480136D01*
X109106424Y-108459312D01*
X109103274Y-108438077D01*
X109102221Y-108416636D01*
X109103274Y-108395195D01*
X109106424Y-108373960D01*
X109111640Y-108353136D01*
X109118872Y-108332924D01*
X109128051Y-108313518D01*
X109139087Y-108295105D01*
X109151875Y-108277862D01*
X109166291Y-108261956D01*
X109475650Y-107952597D01*
X109491556Y-107938181D01*
X109508799Y-107925393D01*
X109527212Y-107914357D01*
X109546618Y-107905178D01*
X109566830Y-107897946D01*
X109587654Y-107892730D01*
X109608889Y-107889580D01*
X109630330Y-107888527D01*
X109651771Y-107889580D01*
X109651771Y-107889580D01*
G37*
D18*
X109656847Y-108443153D03*
D17*
G36*
X108538077Y-109003274D02*
G01*
X108559312Y-109006424D01*
X108580136Y-109011640D01*
X108600348Y-109018872D01*
X108619754Y-109028051D01*
X108638167Y-109039087D01*
X108655410Y-109051875D01*
X108671316Y-109066291D01*
X109033709Y-109428684D01*
X109048125Y-109444590D01*
X109060913Y-109461833D01*
X109071949Y-109480246D01*
X109081128Y-109499652D01*
X109088360Y-109519864D01*
X109093576Y-109540688D01*
X109096726Y-109561923D01*
X109097779Y-109583364D01*
X109096726Y-109604805D01*
X109093576Y-109626040D01*
X109088360Y-109646864D01*
X109081128Y-109667076D01*
X109071949Y-109686482D01*
X109060913Y-109704895D01*
X109048125Y-109722138D01*
X109033709Y-109738044D01*
X108724350Y-110047403D01*
X108708444Y-110061819D01*
X108691201Y-110074607D01*
X108672788Y-110085643D01*
X108653382Y-110094822D01*
X108633170Y-110102054D01*
X108612346Y-110107270D01*
X108591111Y-110110420D01*
X108569670Y-110111473D01*
X108548229Y-110110420D01*
X108526994Y-110107270D01*
X108506170Y-110102054D01*
X108485958Y-110094822D01*
X108466552Y-110085643D01*
X108448139Y-110074607D01*
X108430896Y-110061819D01*
X108414990Y-110047403D01*
X108052597Y-109685010D01*
X108038181Y-109669104D01*
X108025393Y-109651861D01*
X108014357Y-109633448D01*
X108005178Y-109614042D01*
X107997946Y-109593830D01*
X107992730Y-109573006D01*
X107989580Y-109551771D01*
X107988527Y-109530330D01*
X107989580Y-109508889D01*
X107992730Y-109487654D01*
X107997946Y-109466830D01*
X108005178Y-109446618D01*
X108014357Y-109427212D01*
X108025393Y-109408799D01*
X108038181Y-109391556D01*
X108052597Y-109375650D01*
X108361956Y-109066291D01*
X108377862Y-109051875D01*
X108395105Y-109039087D01*
X108413518Y-109028051D01*
X108432924Y-109018872D01*
X108453136Y-109011640D01*
X108473960Y-109006424D01*
X108495195Y-109003274D01*
X108516636Y-109002221D01*
X108538077Y-109003274D01*
X108538077Y-109003274D01*
G37*
D18*
X108543153Y-109556847D03*
D17*
G36*
X113277691Y-98776053D02*
G01*
X113298926Y-98779203D01*
X113319750Y-98784419D01*
X113339962Y-98791651D01*
X113359368Y-98800830D01*
X113377781Y-98811866D01*
X113395024Y-98824654D01*
X113410930Y-98839070D01*
X113425346Y-98854976D01*
X113438134Y-98872219D01*
X113449170Y-98890632D01*
X113458349Y-98910038D01*
X113465581Y-98930250D01*
X113470797Y-98951074D01*
X113473947Y-98972309D01*
X113475000Y-98993750D01*
X113475000Y-99431250D01*
X113473947Y-99452691D01*
X113470797Y-99473926D01*
X113465581Y-99494750D01*
X113458349Y-99514962D01*
X113449170Y-99534368D01*
X113438134Y-99552781D01*
X113425346Y-99570024D01*
X113410930Y-99585930D01*
X113395024Y-99600346D01*
X113377781Y-99613134D01*
X113359368Y-99624170D01*
X113339962Y-99633349D01*
X113319750Y-99640581D01*
X113298926Y-99645797D01*
X113277691Y-99648947D01*
X113256250Y-99650000D01*
X112743750Y-99650000D01*
X112722309Y-99648947D01*
X112701074Y-99645797D01*
X112680250Y-99640581D01*
X112660038Y-99633349D01*
X112640632Y-99624170D01*
X112622219Y-99613134D01*
X112604976Y-99600346D01*
X112589070Y-99585930D01*
X112574654Y-99570024D01*
X112561866Y-99552781D01*
X112550830Y-99534368D01*
X112541651Y-99514962D01*
X112534419Y-99494750D01*
X112529203Y-99473926D01*
X112526053Y-99452691D01*
X112525000Y-99431250D01*
X112525000Y-98993750D01*
X112526053Y-98972309D01*
X112529203Y-98951074D01*
X112534419Y-98930250D01*
X112541651Y-98910038D01*
X112550830Y-98890632D01*
X112561866Y-98872219D01*
X112574654Y-98854976D01*
X112589070Y-98839070D01*
X112604976Y-98824654D01*
X112622219Y-98811866D01*
X112640632Y-98800830D01*
X112660038Y-98791651D01*
X112680250Y-98784419D01*
X112701074Y-98779203D01*
X112722309Y-98776053D01*
X112743750Y-98775000D01*
X113256250Y-98775000D01*
X113277691Y-98776053D01*
X113277691Y-98776053D01*
G37*
D18*
X113000000Y-99212500D03*
D17*
G36*
X113277691Y-100351053D02*
G01*
X113298926Y-100354203D01*
X113319750Y-100359419D01*
X113339962Y-100366651D01*
X113359368Y-100375830D01*
X113377781Y-100386866D01*
X113395024Y-100399654D01*
X113410930Y-100414070D01*
X113425346Y-100429976D01*
X113438134Y-100447219D01*
X113449170Y-100465632D01*
X113458349Y-100485038D01*
X113465581Y-100505250D01*
X113470797Y-100526074D01*
X113473947Y-100547309D01*
X113475000Y-100568750D01*
X113475000Y-101006250D01*
X113473947Y-101027691D01*
X113470797Y-101048926D01*
X113465581Y-101069750D01*
X113458349Y-101089962D01*
X113449170Y-101109368D01*
X113438134Y-101127781D01*
X113425346Y-101145024D01*
X113410930Y-101160930D01*
X113395024Y-101175346D01*
X113377781Y-101188134D01*
X113359368Y-101199170D01*
X113339962Y-101208349D01*
X113319750Y-101215581D01*
X113298926Y-101220797D01*
X113277691Y-101223947D01*
X113256250Y-101225000D01*
X112743750Y-101225000D01*
X112722309Y-101223947D01*
X112701074Y-101220797D01*
X112680250Y-101215581D01*
X112660038Y-101208349D01*
X112640632Y-101199170D01*
X112622219Y-101188134D01*
X112604976Y-101175346D01*
X112589070Y-101160930D01*
X112574654Y-101145024D01*
X112561866Y-101127781D01*
X112550830Y-101109368D01*
X112541651Y-101089962D01*
X112534419Y-101069750D01*
X112529203Y-101048926D01*
X112526053Y-101027691D01*
X112525000Y-101006250D01*
X112525000Y-100568750D01*
X112526053Y-100547309D01*
X112529203Y-100526074D01*
X112534419Y-100505250D01*
X112541651Y-100485038D01*
X112550830Y-100465632D01*
X112561866Y-100447219D01*
X112574654Y-100429976D01*
X112589070Y-100414070D01*
X112604976Y-100399654D01*
X112622219Y-100386866D01*
X112640632Y-100375830D01*
X112660038Y-100366651D01*
X112680250Y-100359419D01*
X112701074Y-100354203D01*
X112722309Y-100351053D01*
X112743750Y-100350000D01*
X113256250Y-100350000D01*
X113277691Y-100351053D01*
X113277691Y-100351053D01*
G37*
D18*
X113000000Y-100787500D03*
D17*
G36*
X107991111Y-89389580D02*
G01*
X108012346Y-89392730D01*
X108033170Y-89397946D01*
X108053382Y-89405178D01*
X108072788Y-89414357D01*
X108091201Y-89425393D01*
X108108444Y-89438181D01*
X108124350Y-89452597D01*
X108433709Y-89761956D01*
X108448125Y-89777862D01*
X108460913Y-89795105D01*
X108471949Y-89813518D01*
X108481128Y-89832924D01*
X108488360Y-89853136D01*
X108493576Y-89873960D01*
X108496726Y-89895195D01*
X108497779Y-89916636D01*
X108496726Y-89938077D01*
X108493576Y-89959312D01*
X108488360Y-89980136D01*
X108481128Y-90000348D01*
X108471949Y-90019754D01*
X108460913Y-90038167D01*
X108448125Y-90055410D01*
X108433709Y-90071316D01*
X108071316Y-90433709D01*
X108055410Y-90448125D01*
X108038167Y-90460913D01*
X108019754Y-90471949D01*
X108000348Y-90481128D01*
X107980136Y-90488360D01*
X107959312Y-90493576D01*
X107938077Y-90496726D01*
X107916636Y-90497779D01*
X107895195Y-90496726D01*
X107873960Y-90493576D01*
X107853136Y-90488360D01*
X107832924Y-90481128D01*
X107813518Y-90471949D01*
X107795105Y-90460913D01*
X107777862Y-90448125D01*
X107761956Y-90433709D01*
X107452597Y-90124350D01*
X107438181Y-90108444D01*
X107425393Y-90091201D01*
X107414357Y-90072788D01*
X107405178Y-90053382D01*
X107397946Y-90033170D01*
X107392730Y-90012346D01*
X107389580Y-89991111D01*
X107388527Y-89969670D01*
X107389580Y-89948229D01*
X107392730Y-89926994D01*
X107397946Y-89906170D01*
X107405178Y-89885958D01*
X107414357Y-89866552D01*
X107425393Y-89848139D01*
X107438181Y-89830896D01*
X107452597Y-89814990D01*
X107814990Y-89452597D01*
X107830896Y-89438181D01*
X107848139Y-89425393D01*
X107866552Y-89414357D01*
X107885958Y-89405178D01*
X107906170Y-89397946D01*
X107926994Y-89392730D01*
X107948229Y-89389580D01*
X107969670Y-89388527D01*
X107991111Y-89389580D01*
X107991111Y-89389580D01*
G37*
D18*
X107943153Y-89943153D03*
D17*
G36*
X109104805Y-90503274D02*
G01*
X109126040Y-90506424D01*
X109146864Y-90511640D01*
X109167076Y-90518872D01*
X109186482Y-90528051D01*
X109204895Y-90539087D01*
X109222138Y-90551875D01*
X109238044Y-90566291D01*
X109547403Y-90875650D01*
X109561819Y-90891556D01*
X109574607Y-90908799D01*
X109585643Y-90927212D01*
X109594822Y-90946618D01*
X109602054Y-90966830D01*
X109607270Y-90987654D01*
X109610420Y-91008889D01*
X109611473Y-91030330D01*
X109610420Y-91051771D01*
X109607270Y-91073006D01*
X109602054Y-91093830D01*
X109594822Y-91114042D01*
X109585643Y-91133448D01*
X109574607Y-91151861D01*
X109561819Y-91169104D01*
X109547403Y-91185010D01*
X109185010Y-91547403D01*
X109169104Y-91561819D01*
X109151861Y-91574607D01*
X109133448Y-91585643D01*
X109114042Y-91594822D01*
X109093830Y-91602054D01*
X109073006Y-91607270D01*
X109051771Y-91610420D01*
X109030330Y-91611473D01*
X109008889Y-91610420D01*
X108987654Y-91607270D01*
X108966830Y-91602054D01*
X108946618Y-91594822D01*
X108927212Y-91585643D01*
X108908799Y-91574607D01*
X108891556Y-91561819D01*
X108875650Y-91547403D01*
X108566291Y-91238044D01*
X108551875Y-91222138D01*
X108539087Y-91204895D01*
X108528051Y-91186482D01*
X108518872Y-91167076D01*
X108511640Y-91146864D01*
X108506424Y-91126040D01*
X108503274Y-91104805D01*
X108502221Y-91083364D01*
X108503274Y-91061923D01*
X108506424Y-91040688D01*
X108511640Y-91019864D01*
X108518872Y-90999652D01*
X108528051Y-90980246D01*
X108539087Y-90961833D01*
X108551875Y-90944590D01*
X108566291Y-90928684D01*
X108928684Y-90566291D01*
X108944590Y-90551875D01*
X108961833Y-90539087D01*
X108980246Y-90528051D01*
X108999652Y-90518872D01*
X109019864Y-90511640D01*
X109040688Y-90506424D01*
X109061923Y-90503274D01*
X109083364Y-90502221D01*
X109104805Y-90503274D01*
X109104805Y-90503274D01*
G37*
D18*
X109056847Y-91056847D03*
D17*
G36*
X99452691Y-86526053D02*
G01*
X99473926Y-86529203D01*
X99494750Y-86534419D01*
X99514962Y-86541651D01*
X99534368Y-86550830D01*
X99552781Y-86561866D01*
X99570024Y-86574654D01*
X99585930Y-86589070D01*
X99600346Y-86604976D01*
X99613134Y-86622219D01*
X99624170Y-86640632D01*
X99633349Y-86660038D01*
X99640581Y-86680250D01*
X99645797Y-86701074D01*
X99648947Y-86722309D01*
X99650000Y-86743750D01*
X99650000Y-87256250D01*
X99648947Y-87277691D01*
X99645797Y-87298926D01*
X99640581Y-87319750D01*
X99633349Y-87339962D01*
X99624170Y-87359368D01*
X99613134Y-87377781D01*
X99600346Y-87395024D01*
X99585930Y-87410930D01*
X99570024Y-87425346D01*
X99552781Y-87438134D01*
X99534368Y-87449170D01*
X99514962Y-87458349D01*
X99494750Y-87465581D01*
X99473926Y-87470797D01*
X99452691Y-87473947D01*
X99431250Y-87475000D01*
X98993750Y-87475000D01*
X98972309Y-87473947D01*
X98951074Y-87470797D01*
X98930250Y-87465581D01*
X98910038Y-87458349D01*
X98890632Y-87449170D01*
X98872219Y-87438134D01*
X98854976Y-87425346D01*
X98839070Y-87410930D01*
X98824654Y-87395024D01*
X98811866Y-87377781D01*
X98800830Y-87359368D01*
X98791651Y-87339962D01*
X98784419Y-87319750D01*
X98779203Y-87298926D01*
X98776053Y-87277691D01*
X98775000Y-87256250D01*
X98775000Y-86743750D01*
X98776053Y-86722309D01*
X98779203Y-86701074D01*
X98784419Y-86680250D01*
X98791651Y-86660038D01*
X98800830Y-86640632D01*
X98811866Y-86622219D01*
X98824654Y-86604976D01*
X98839070Y-86589070D01*
X98854976Y-86574654D01*
X98872219Y-86561866D01*
X98890632Y-86550830D01*
X98910038Y-86541651D01*
X98930250Y-86534419D01*
X98951074Y-86529203D01*
X98972309Y-86526053D01*
X98993750Y-86525000D01*
X99431250Y-86525000D01*
X99452691Y-86526053D01*
X99452691Y-86526053D01*
G37*
D18*
X99212500Y-87000000D03*
D17*
G36*
X101027691Y-86526053D02*
G01*
X101048926Y-86529203D01*
X101069750Y-86534419D01*
X101089962Y-86541651D01*
X101109368Y-86550830D01*
X101127781Y-86561866D01*
X101145024Y-86574654D01*
X101160930Y-86589070D01*
X101175346Y-86604976D01*
X101188134Y-86622219D01*
X101199170Y-86640632D01*
X101208349Y-86660038D01*
X101215581Y-86680250D01*
X101220797Y-86701074D01*
X101223947Y-86722309D01*
X101225000Y-86743750D01*
X101225000Y-87256250D01*
X101223947Y-87277691D01*
X101220797Y-87298926D01*
X101215581Y-87319750D01*
X101208349Y-87339962D01*
X101199170Y-87359368D01*
X101188134Y-87377781D01*
X101175346Y-87395024D01*
X101160930Y-87410930D01*
X101145024Y-87425346D01*
X101127781Y-87438134D01*
X101109368Y-87449170D01*
X101089962Y-87458349D01*
X101069750Y-87465581D01*
X101048926Y-87470797D01*
X101027691Y-87473947D01*
X101006250Y-87475000D01*
X100568750Y-87475000D01*
X100547309Y-87473947D01*
X100526074Y-87470797D01*
X100505250Y-87465581D01*
X100485038Y-87458349D01*
X100465632Y-87449170D01*
X100447219Y-87438134D01*
X100429976Y-87425346D01*
X100414070Y-87410930D01*
X100399654Y-87395024D01*
X100386866Y-87377781D01*
X100375830Y-87359368D01*
X100366651Y-87339962D01*
X100359419Y-87319750D01*
X100354203Y-87298926D01*
X100351053Y-87277691D01*
X100350000Y-87256250D01*
X100350000Y-86743750D01*
X100351053Y-86722309D01*
X100354203Y-86701074D01*
X100359419Y-86680250D01*
X100366651Y-86660038D01*
X100375830Y-86640632D01*
X100386866Y-86622219D01*
X100399654Y-86604976D01*
X100414070Y-86589070D01*
X100429976Y-86574654D01*
X100447219Y-86561866D01*
X100465632Y-86550830D01*
X100485038Y-86541651D01*
X100505250Y-86534419D01*
X100526074Y-86529203D01*
X100547309Y-86526053D01*
X100568750Y-86525000D01*
X101006250Y-86525000D01*
X101027691Y-86526053D01*
X101027691Y-86526053D01*
G37*
D18*
X100787500Y-87000000D03*
D10*
X101751920Y-107747780D03*
D11*
X102900000Y-103899680D03*
D10*
X104048080Y-107747780D03*
D17*
G36*
X101127691Y-98526053D02*
G01*
X101148926Y-98529203D01*
X101169750Y-98534419D01*
X101189962Y-98541651D01*
X101209368Y-98550830D01*
X101227781Y-98561866D01*
X101245024Y-98574654D01*
X101260930Y-98589070D01*
X101275346Y-98604976D01*
X101288134Y-98622219D01*
X101299170Y-98640632D01*
X101308349Y-98660038D01*
X101315581Y-98680250D01*
X101320797Y-98701074D01*
X101323947Y-98722309D01*
X101325000Y-98743750D01*
X101325000Y-99256250D01*
X101323947Y-99277691D01*
X101320797Y-99298926D01*
X101315581Y-99319750D01*
X101308349Y-99339962D01*
X101299170Y-99359368D01*
X101288134Y-99377781D01*
X101275346Y-99395024D01*
X101260930Y-99410930D01*
X101245024Y-99425346D01*
X101227781Y-99438134D01*
X101209368Y-99449170D01*
X101189962Y-99458349D01*
X101169750Y-99465581D01*
X101148926Y-99470797D01*
X101127691Y-99473947D01*
X101106250Y-99475000D01*
X100668750Y-99475000D01*
X100647309Y-99473947D01*
X100626074Y-99470797D01*
X100605250Y-99465581D01*
X100585038Y-99458349D01*
X100565632Y-99449170D01*
X100547219Y-99438134D01*
X100529976Y-99425346D01*
X100514070Y-99410930D01*
X100499654Y-99395024D01*
X100486866Y-99377781D01*
X100475830Y-99359368D01*
X100466651Y-99339962D01*
X100459419Y-99319750D01*
X100454203Y-99298926D01*
X100451053Y-99277691D01*
X100450000Y-99256250D01*
X100450000Y-98743750D01*
X100451053Y-98722309D01*
X100454203Y-98701074D01*
X100459419Y-98680250D01*
X100466651Y-98660038D01*
X100475830Y-98640632D01*
X100486866Y-98622219D01*
X100499654Y-98604976D01*
X100514070Y-98589070D01*
X100529976Y-98574654D01*
X100547219Y-98561866D01*
X100565632Y-98550830D01*
X100585038Y-98541651D01*
X100605250Y-98534419D01*
X100626074Y-98529203D01*
X100647309Y-98526053D01*
X100668750Y-98525000D01*
X101106250Y-98525000D01*
X101127691Y-98526053D01*
X101127691Y-98526053D01*
G37*
D18*
X100887500Y-99000000D03*
D17*
G36*
X99552691Y-98526053D02*
G01*
X99573926Y-98529203D01*
X99594750Y-98534419D01*
X99614962Y-98541651D01*
X99634368Y-98550830D01*
X99652781Y-98561866D01*
X99670024Y-98574654D01*
X99685930Y-98589070D01*
X99700346Y-98604976D01*
X99713134Y-98622219D01*
X99724170Y-98640632D01*
X99733349Y-98660038D01*
X99740581Y-98680250D01*
X99745797Y-98701074D01*
X99748947Y-98722309D01*
X99750000Y-98743750D01*
X99750000Y-99256250D01*
X99748947Y-99277691D01*
X99745797Y-99298926D01*
X99740581Y-99319750D01*
X99733349Y-99339962D01*
X99724170Y-99359368D01*
X99713134Y-99377781D01*
X99700346Y-99395024D01*
X99685930Y-99410930D01*
X99670024Y-99425346D01*
X99652781Y-99438134D01*
X99634368Y-99449170D01*
X99614962Y-99458349D01*
X99594750Y-99465581D01*
X99573926Y-99470797D01*
X99552691Y-99473947D01*
X99531250Y-99475000D01*
X99093750Y-99475000D01*
X99072309Y-99473947D01*
X99051074Y-99470797D01*
X99030250Y-99465581D01*
X99010038Y-99458349D01*
X98990632Y-99449170D01*
X98972219Y-99438134D01*
X98954976Y-99425346D01*
X98939070Y-99410930D01*
X98924654Y-99395024D01*
X98911866Y-99377781D01*
X98900830Y-99359368D01*
X98891651Y-99339962D01*
X98884419Y-99319750D01*
X98879203Y-99298926D01*
X98876053Y-99277691D01*
X98875000Y-99256250D01*
X98875000Y-98743750D01*
X98876053Y-98722309D01*
X98879203Y-98701074D01*
X98884419Y-98680250D01*
X98891651Y-98660038D01*
X98900830Y-98640632D01*
X98911866Y-98622219D01*
X98924654Y-98604976D01*
X98939070Y-98589070D01*
X98954976Y-98574654D01*
X98972219Y-98561866D01*
X98990632Y-98550830D01*
X99010038Y-98541651D01*
X99030250Y-98534419D01*
X99051074Y-98529203D01*
X99072309Y-98526053D01*
X99093750Y-98525000D01*
X99531250Y-98525000D01*
X99552691Y-98526053D01*
X99552691Y-98526053D01*
G37*
D18*
X99312500Y-99000000D03*
D17*
G36*
X99564691Y-100326053D02*
G01*
X99585926Y-100329203D01*
X99606750Y-100334419D01*
X99626962Y-100341651D01*
X99646368Y-100350830D01*
X99664781Y-100361866D01*
X99682024Y-100374654D01*
X99697930Y-100389070D01*
X99712346Y-100404976D01*
X99725134Y-100422219D01*
X99736170Y-100440632D01*
X99745349Y-100460038D01*
X99752581Y-100480250D01*
X99757797Y-100501074D01*
X99760947Y-100522309D01*
X99762000Y-100543750D01*
X99762000Y-101056250D01*
X99760947Y-101077691D01*
X99757797Y-101098926D01*
X99752581Y-101119750D01*
X99745349Y-101139962D01*
X99736170Y-101159368D01*
X99725134Y-101177781D01*
X99712346Y-101195024D01*
X99697930Y-101210930D01*
X99682024Y-101225346D01*
X99664781Y-101238134D01*
X99646368Y-101249170D01*
X99626962Y-101258349D01*
X99606750Y-101265581D01*
X99585926Y-101270797D01*
X99564691Y-101273947D01*
X99543250Y-101275000D01*
X99105750Y-101275000D01*
X99084309Y-101273947D01*
X99063074Y-101270797D01*
X99042250Y-101265581D01*
X99022038Y-101258349D01*
X99002632Y-101249170D01*
X98984219Y-101238134D01*
X98966976Y-101225346D01*
X98951070Y-101210930D01*
X98936654Y-101195024D01*
X98923866Y-101177781D01*
X98912830Y-101159368D01*
X98903651Y-101139962D01*
X98896419Y-101119750D01*
X98891203Y-101098926D01*
X98888053Y-101077691D01*
X98887000Y-101056250D01*
X98887000Y-100543750D01*
X98888053Y-100522309D01*
X98891203Y-100501074D01*
X98896419Y-100480250D01*
X98903651Y-100460038D01*
X98912830Y-100440632D01*
X98923866Y-100422219D01*
X98936654Y-100404976D01*
X98951070Y-100389070D01*
X98966976Y-100374654D01*
X98984219Y-100361866D01*
X99002632Y-100350830D01*
X99022038Y-100341651D01*
X99042250Y-100334419D01*
X99063074Y-100329203D01*
X99084309Y-100326053D01*
X99105750Y-100325000D01*
X99543250Y-100325000D01*
X99564691Y-100326053D01*
X99564691Y-100326053D01*
G37*
D18*
X99324500Y-100800000D03*
D17*
G36*
X101139691Y-100326053D02*
G01*
X101160926Y-100329203D01*
X101181750Y-100334419D01*
X101201962Y-100341651D01*
X101221368Y-100350830D01*
X101239781Y-100361866D01*
X101257024Y-100374654D01*
X101272930Y-100389070D01*
X101287346Y-100404976D01*
X101300134Y-100422219D01*
X101311170Y-100440632D01*
X101320349Y-100460038D01*
X101327581Y-100480250D01*
X101332797Y-100501074D01*
X101335947Y-100522309D01*
X101337000Y-100543750D01*
X101337000Y-101056250D01*
X101335947Y-101077691D01*
X101332797Y-101098926D01*
X101327581Y-101119750D01*
X101320349Y-101139962D01*
X101311170Y-101159368D01*
X101300134Y-101177781D01*
X101287346Y-101195024D01*
X101272930Y-101210930D01*
X101257024Y-101225346D01*
X101239781Y-101238134D01*
X101221368Y-101249170D01*
X101201962Y-101258349D01*
X101181750Y-101265581D01*
X101160926Y-101270797D01*
X101139691Y-101273947D01*
X101118250Y-101275000D01*
X100680750Y-101275000D01*
X100659309Y-101273947D01*
X100638074Y-101270797D01*
X100617250Y-101265581D01*
X100597038Y-101258349D01*
X100577632Y-101249170D01*
X100559219Y-101238134D01*
X100541976Y-101225346D01*
X100526070Y-101210930D01*
X100511654Y-101195024D01*
X100498866Y-101177781D01*
X100487830Y-101159368D01*
X100478651Y-101139962D01*
X100471419Y-101119750D01*
X100466203Y-101098926D01*
X100463053Y-101077691D01*
X100462000Y-101056250D01*
X100462000Y-100543750D01*
X100463053Y-100522309D01*
X100466203Y-100501074D01*
X100471419Y-100480250D01*
X100478651Y-100460038D01*
X100487830Y-100440632D01*
X100498866Y-100422219D01*
X100511654Y-100404976D01*
X100526070Y-100389070D01*
X100541976Y-100374654D01*
X100559219Y-100361866D01*
X100577632Y-100350830D01*
X100597038Y-100341651D01*
X100617250Y-100334419D01*
X100638074Y-100329203D01*
X100659309Y-100326053D01*
X100680750Y-100325000D01*
X101118250Y-100325000D01*
X101139691Y-100326053D01*
X101139691Y-100326053D01*
G37*
D18*
X100899500Y-100800000D03*
D19*
X93082600Y-96555600D03*
X101803400Y-90335300D03*
X97733200Y-109167100D03*
X95982200Y-95682800D03*
X87200000Y-103600100D03*
X103929700Y-109970400D03*
X104936700Y-90861800D03*
X109977200Y-91586000D03*
X114057700Y-99066300D03*
X107407000Y-109622700D03*
X98044500Y-113368900D03*
X88734400Y-107042100D03*
X86143300Y-99212500D03*
X92169400Y-91461800D03*
X107705900Y-102273000D03*
X107861100Y-101089600D03*
X95264100Y-109088000D03*
X104287900Y-99543400D03*
X104765100Y-104015100D03*
X104932100Y-92710100D03*
X93140500Y-102868100D03*
X98429400Y-102462500D03*
X98350000Y-105939000D03*
X114656700Y-104240700D03*
X109200000Y-86300000D03*
D20*
X109656800Y-108443200D02*
X112168700Y-105931300D01*
X112168700Y-105931300D02*
X112168700Y-100043800D01*
X112168700Y-100043800D02*
X113000000Y-99212500D01*
X104048100Y-108467500D02*
X109632500Y-108467500D01*
X109632500Y-108467500D02*
X109656800Y-108443200D01*
X93955400Y-95682800D02*
X93082600Y-96555600D01*
X95982200Y-95682800D02*
X93955400Y-95682800D01*
X93955400Y-95682800D02*
X93955400Y-95569000D01*
X93955400Y-95569000D02*
X90143200Y-91756800D01*
X96455900Y-95682800D02*
X95982200Y-95682800D01*
X93082600Y-96555600D02*
X90782800Y-98855400D01*
X90782800Y-98855400D02*
X89044500Y-98855400D01*
X89044500Y-98855400D02*
X87200100Y-100699800D01*
X87200100Y-100699800D02*
X87200100Y-100787500D01*
X87200100Y-100787500D02*
X87200000Y-100787500D01*
X97048700Y-109851600D02*
X97733200Y-109167100D01*
X91356800Y-109456800D02*
X91751600Y-109851600D01*
X91751600Y-109851600D02*
X97048700Y-109851600D01*
X87200000Y-103600100D02*
X91356800Y-107756900D01*
X91356800Y-107756900D02*
X91356800Y-109456800D01*
X96455900Y-95682800D02*
X101803400Y-90335300D01*
X99312500Y-99000000D02*
X96455900Y-96143400D01*
X96455900Y-96143400D02*
X96455900Y-95682800D01*
X103929700Y-109970400D02*
X103617100Y-109970400D01*
X103617100Y-109970400D02*
X100787500Y-112800000D01*
X104048100Y-108645300D02*
X104048100Y-109852000D01*
X104048100Y-109852000D02*
X103929700Y-109970400D01*
X99212500Y-87000000D02*
X99212500Y-87744400D01*
X99212500Y-87744400D02*
X101803400Y-90335300D01*
X98348100Y-107649800D02*
X98348100Y-108654900D01*
X97733200Y-109167100D02*
X98245400Y-108654900D01*
X98245400Y-108654900D02*
X98348100Y-108654900D01*
X87200000Y-100787500D02*
X87200000Y-103600100D01*
X110700000Y-94944700D02*
X107943200Y-92187900D01*
X107943200Y-92187900D02*
X107943200Y-89943200D01*
X104048100Y-108467500D02*
X104048100Y-108645300D01*
X104048100Y-107747800D02*
X104048100Y-108467500D01*
X113000000Y-99212500D02*
X113000000Y-97244700D01*
X113000000Y-97244700D02*
X111855300Y-96100000D01*
X110700000Y-96100000D02*
X111855300Y-96100000D01*
X110700000Y-96100000D02*
X110700000Y-94944700D01*
X101300000Y-113312500D02*
X100787500Y-112800000D01*
X101300000Y-118600000D02*
X101300000Y-113312500D01*
X100600000Y-119300000D02*
X101300000Y-118600000D01*
X99300000Y-119300000D02*
X100600000Y-119300000D01*
X97048700Y-109851600D02*
X97048700Y-117048700D01*
X97048700Y-117048700D02*
X99300000Y-119300000D01*
X100787500Y-87000000D02*
X104649300Y-90861800D01*
X104649300Y-90861800D02*
X104936700Y-90861800D01*
X109056800Y-91056800D02*
X109448000Y-91056800D01*
X109448000Y-91056800D02*
X109977200Y-91586000D01*
X113000000Y-100787500D02*
X114057700Y-99729800D01*
X114057700Y-99729800D02*
X114057700Y-99066300D01*
X108543200Y-109556800D02*
X107472900Y-109556800D01*
X107472900Y-109556800D02*
X107407000Y-109622700D01*
X99212500Y-112800000D02*
X98643600Y-113368900D01*
X98643600Y-113368900D02*
X98044500Y-113368900D01*
X90243200Y-108343200D02*
X90035500Y-108343200D01*
X90035500Y-108343200D02*
X88734400Y-107042100D01*
X87200000Y-99212500D02*
X86143300Y-99212500D01*
X91256800Y-90643200D02*
X91350800Y-90643200D01*
X91350800Y-90643200D02*
X92169400Y-91461800D01*
X87685800Y-89514200D02*
X93612900Y-89514200D01*
X93612900Y-89514200D02*
X96924200Y-86202900D01*
X96924200Y-86202900D02*
X99635100Y-86202900D01*
X99635100Y-86202900D02*
X100000000Y-86567800D01*
X100000000Y-86567800D02*
X100000000Y-87446500D01*
X100000000Y-87446500D02*
X104339400Y-91785900D01*
X104339400Y-91785900D02*
X105028400Y-91785900D01*
X105028400Y-91785900D02*
X107097300Y-93854800D01*
X107097300Y-93854800D02*
X107097300Y-101664400D01*
X107097300Y-101664400D02*
X107705900Y-102273000D01*
X107861100Y-92746000D02*
X107861100Y-101089600D01*
X100515100Y-85400000D02*
X107861100Y-92746000D01*
X89700000Y-85400000D02*
X100515100Y-85400000D01*
X86271600Y-90928400D02*
X86271600Y-88828400D01*
X86271600Y-88828400D02*
X89700000Y-85400000D01*
X93688000Y-109088000D02*
X95264100Y-109088000D01*
X87900000Y-103300000D02*
X93688000Y-109088000D01*
X87900000Y-102100000D02*
X87900000Y-103300000D01*
X89300000Y-100240000D02*
X89300000Y-100700000D01*
X89300000Y-100700000D02*
X87900000Y-102100000D01*
X110700000Y-99506400D02*
X110700000Y-98640000D01*
X104287900Y-99852400D02*
X107413800Y-102978300D01*
X107413800Y-102978300D02*
X108031000Y-102978300D01*
X108031000Y-102978300D02*
X109366400Y-101642900D01*
X109366400Y-101642900D02*
X109366400Y-100840000D01*
X104287900Y-99543400D02*
X104287900Y-99852400D01*
X109366400Y-100840000D02*
X110700000Y-99506400D01*
X104932100Y-92710100D02*
X103550800Y-94091400D01*
X103550800Y-94091400D02*
X103550800Y-100743000D01*
X103550800Y-100743000D02*
X104765100Y-101957300D01*
X104765100Y-101957300D02*
X104765100Y-104015100D01*
X95745200Y-102901300D02*
X95745200Y-106338000D01*
X95745200Y-106338000D02*
X96051900Y-106644700D01*
X99324500Y-100800000D02*
X97846500Y-100800000D01*
X97846500Y-100800000D02*
X95745200Y-102901300D01*
X93140500Y-102868100D02*
X95712000Y-102868100D01*
X95712000Y-102868100D02*
X95745200Y-102901300D01*
X90455300Y-102780000D02*
X90543400Y-102868100D01*
X90543400Y-102868100D02*
X93140500Y-102868100D01*
X100000000Y-107747800D02*
X100000000Y-107476900D01*
X100000000Y-107476900D02*
X99167800Y-106644700D01*
X99167800Y-106644700D02*
X96051900Y-106644700D01*
X100000000Y-118000000D02*
X100000000Y-107747800D01*
X96051900Y-107649800D02*
X96051900Y-106644700D01*
X89300000Y-102780000D02*
X90455300Y-102780000D01*
X100797600Y-107747800D02*
X100000000Y-107747800D01*
X110700000Y-101907600D02*
X106026200Y-106581400D01*
X110700000Y-101180000D02*
X110700000Y-101907600D01*
X106026200Y-106581400D02*
X103395400Y-106581400D01*
X103395400Y-106581400D02*
X102706200Y-107270600D01*
X102706200Y-107270600D02*
X102706200Y-107747800D01*
X102706200Y-107747800D02*
X100797600Y-107747800D01*
X102900000Y-103899700D02*
X99866600Y-103899700D01*
X99866600Y-103899700D02*
X98429400Y-102462500D01*
X97200000Y-104856300D02*
X98282600Y-105938900D01*
X98282600Y-105938900D02*
X98350000Y-105938900D01*
X98350000Y-105938900D02*
X98350000Y-105939000D01*
X97200000Y-103801700D02*
X97200000Y-104856300D01*
X100899500Y-100800000D02*
X100887500Y-100788000D01*
X100887500Y-100788000D02*
X100887500Y-99000000D01*
X115056699Y-95430699D02*
X109200000Y-89574000D01*
X109200000Y-86865685D02*
X109200000Y-86300000D01*
X109200000Y-89574000D02*
X109200000Y-86865685D01*
X115056699Y-103840701D02*
X115056699Y-95430699D01*
X114656700Y-104240700D02*
X115056699Y-103840701D01*
D21*
G36*
X99420429Y-80669908D02*
G01*
X99379343Y-80684566D01*
X99251074Y-80753127D01*
X99177978Y-80998373D01*
X100000000Y-81820395D01*
X100822022Y-80998373D01*
X100748926Y-80753127D01*
X100606137Y-80685430D01*
X101113288Y-80692069D01*
X102825246Y-80867473D01*
X104514833Y-81194366D01*
X106168673Y-81670159D01*
X107773670Y-82291085D01*
X109317116Y-83052229D01*
X110786790Y-83947562D01*
X112171056Y-84969997D01*
X113458953Y-86111437D01*
X114640284Y-87362846D01*
X115705695Y-88714313D01*
X116646751Y-90155139D01*
X117455999Y-91673915D01*
X118127034Y-93258617D01*
X118654540Y-94896695D01*
X119034343Y-96575181D01*
X119263434Y-98280784D01*
X119312079Y-99373067D01*
X119246873Y-99251074D01*
X119001627Y-99177978D01*
X118179605Y-100000000D01*
X119001627Y-100822022D01*
X119246873Y-100748926D01*
X119324686Y-100584799D01*
X119313495Y-101012177D01*
X119147058Y-102725030D01*
X118829016Y-104416306D01*
X118361889Y-106072614D01*
X117749374Y-107680840D01*
X116996323Y-109228250D01*
X116108697Y-110702593D01*
X115093524Y-112092193D01*
X113958843Y-113386049D01*
X112713637Y-114573916D01*
X111367767Y-115646389D01*
X109931888Y-116594975D01*
X108417369Y-117412165D01*
X106836203Y-118091488D01*
X105200909Y-118627564D01*
X103524435Y-119016150D01*
X101820055Y-119254168D01*
X101715426Y-119259377D01*
X101811009Y-119163794D01*
X101840001Y-119140001D01*
X101863795Y-119111008D01*
X101863799Y-119111004D01*
X101934973Y-119024277D01*
X101934974Y-119024276D01*
X102005546Y-118892247D01*
X102049003Y-118748986D01*
X102060000Y-118637333D01*
X102060000Y-118637324D01*
X102063676Y-118600001D01*
X102060000Y-118562678D01*
X102060000Y-113349822D01*
X102063676Y-113312499D01*
X102060000Y-113275176D01*
X102060000Y-113275167D01*
X102049003Y-113163514D01*
X102005546Y-113020253D01*
X101934974Y-112888224D01*
X101910086Y-112857898D01*
X101863799Y-112801496D01*
X101863795Y-112801492D01*
X101863072Y-112800611D01*
X101863072Y-112799229D01*
X102633184Y-112029117D01*
X110465000Y-112029117D01*
X110465000Y-112370883D01*
X110531675Y-112706081D01*
X110662463Y-113021831D01*
X110852337Y-113305998D01*
X111094002Y-113547663D01*
X111378169Y-113737537D01*
X111693919Y-113868325D01*
X112029117Y-113935000D01*
X112370883Y-113935000D01*
X112706081Y-113868325D01*
X113021831Y-113737537D01*
X113305998Y-113547663D01*
X113547663Y-113305998D01*
X113737537Y-113021831D01*
X113868325Y-112706081D01*
X113935000Y-112370883D01*
X113935000Y-112029117D01*
X113868325Y-111693919D01*
X113737537Y-111378169D01*
X113547663Y-111094002D01*
X113305998Y-110852337D01*
X113021831Y-110662463D01*
X112706081Y-110531675D01*
X112370883Y-110465000D01*
X112029117Y-110465000D01*
X111693919Y-110531675D01*
X111378169Y-110662463D01*
X111094002Y-110852337D01*
X110852337Y-111094002D01*
X110662463Y-111378169D01*
X110531675Y-111693919D01*
X110465000Y-112029117D01*
X102633184Y-112029117D01*
X103685249Y-110977053D01*
X103827761Y-111005400D01*
X104031639Y-111005400D01*
X104231598Y-110965626D01*
X104419956Y-110887605D01*
X104589474Y-110774337D01*
X104733637Y-110630174D01*
X104846905Y-110460656D01*
X104924926Y-110272298D01*
X104964700Y-110072339D01*
X104964700Y-109868461D01*
X104924926Y-109668502D01*
X104846905Y-109480144D01*
X104808100Y-109422068D01*
X104808100Y-109227500D01*
X106450421Y-109227500D01*
X106411774Y-109320802D01*
X106372000Y-109520761D01*
X106372000Y-109724639D01*
X106411774Y-109924598D01*
X106489795Y-110112956D01*
X106603063Y-110282474D01*
X106747226Y-110426637D01*
X106916744Y-110539905D01*
X107105102Y-110617926D01*
X107305061Y-110657700D01*
X107508939Y-110657700D01*
X107708898Y-110617926D01*
X107897256Y-110539905D01*
X107961917Y-110496700D01*
X107963805Y-110498588D01*
X108093645Y-110605144D01*
X108241778Y-110684323D01*
X108402512Y-110733081D01*
X108569670Y-110749545D01*
X108736828Y-110733081D01*
X108897562Y-110684323D01*
X109045695Y-110605144D01*
X109175535Y-110498588D01*
X109484894Y-110189229D01*
X109591450Y-110059389D01*
X109670629Y-109911256D01*
X109719387Y-109750522D01*
X109731145Y-109631145D01*
X109850522Y-109619387D01*
X110011256Y-109570629D01*
X110159389Y-109491450D01*
X110289229Y-109384894D01*
X110598588Y-109075535D01*
X110705144Y-108945695D01*
X110784323Y-108797562D01*
X110833081Y-108636828D01*
X110849545Y-108469670D01*
X110836597Y-108338205D01*
X112679704Y-106495098D01*
X112708701Y-106471301D01*
X112735032Y-106439217D01*
X112803674Y-106355577D01*
X112874246Y-106223547D01*
X112915367Y-106087986D01*
X112917703Y-106080286D01*
X112928700Y-105968633D01*
X112928700Y-105968624D01*
X112932376Y-105931301D01*
X112928700Y-105893978D01*
X112928700Y-101863072D01*
X113256250Y-101863072D01*
X113423408Y-101846608D01*
X113584142Y-101797850D01*
X113732275Y-101718671D01*
X113862115Y-101612115D01*
X113968671Y-101482275D01*
X114047850Y-101334142D01*
X114096608Y-101173408D01*
X114113072Y-101006250D01*
X114113072Y-100749230D01*
X114296699Y-100565602D01*
X114296699Y-103269541D01*
X114166444Y-103323495D01*
X113996926Y-103436763D01*
X113852763Y-103580926D01*
X113739495Y-103750444D01*
X113661474Y-103938802D01*
X113621700Y-104138761D01*
X113621700Y-104342639D01*
X113661474Y-104542598D01*
X113739495Y-104730956D01*
X113852763Y-104900474D01*
X113996926Y-105044637D01*
X114166444Y-105157905D01*
X114354802Y-105235926D01*
X114554761Y-105275700D01*
X114758639Y-105275700D01*
X114958598Y-105235926D01*
X115146956Y-105157905D01*
X115316474Y-105044637D01*
X115460637Y-104900474D01*
X115573905Y-104730956D01*
X115651926Y-104542598D01*
X115691700Y-104342639D01*
X115691700Y-104264926D01*
X115762245Y-104132948D01*
X115805702Y-103989687D01*
X115816699Y-103878034D01*
X115816699Y-103878024D01*
X115820375Y-103840702D01*
X115816699Y-103803379D01*
X115816699Y-101001627D01*
X117177978Y-101001627D01*
X117251074Y-101246873D01*
X117508717Y-101369023D01*
X117785240Y-101438562D01*
X118070017Y-101452818D01*
X118352102Y-101411242D01*
X118620657Y-101315434D01*
X118748926Y-101246873D01*
X118822022Y-101001627D01*
X118000000Y-100179605D01*
X117177978Y-101001627D01*
X115816699Y-101001627D01*
X115816699Y-100070017D01*
X116547182Y-100070017D01*
X116588758Y-100352102D01*
X116684566Y-100620657D01*
X116753127Y-100748926D01*
X116998373Y-100822022D01*
X117820395Y-100000000D01*
X116998373Y-99177978D01*
X116753127Y-99251074D01*
X116630977Y-99508717D01*
X116561438Y-99785240D01*
X116547182Y-100070017D01*
X115816699Y-100070017D01*
X115816699Y-98998373D01*
X117177978Y-98998373D01*
X118000000Y-99820395D01*
X118822022Y-98998373D01*
X118748926Y-98753127D01*
X118491283Y-98630977D01*
X118214760Y-98561438D01*
X117929983Y-98547182D01*
X117647898Y-98588758D01*
X117379343Y-98684566D01*
X117251074Y-98753127D01*
X117177978Y-98998373D01*
X115816699Y-98998373D01*
X115816699Y-95468021D01*
X115820375Y-95430698D01*
X115816699Y-95393375D01*
X115816699Y-95393366D01*
X115805702Y-95281713D01*
X115762245Y-95138452D01*
X115724121Y-95067128D01*
X115691673Y-95006422D01*
X115620498Y-94919696D01*
X115596700Y-94890698D01*
X115567702Y-94866900D01*
X109960000Y-89259199D01*
X109960000Y-87729117D01*
X110465000Y-87729117D01*
X110465000Y-88070883D01*
X110531675Y-88406081D01*
X110662463Y-88721831D01*
X110852337Y-89005998D01*
X111094002Y-89247663D01*
X111378169Y-89437537D01*
X111693919Y-89568325D01*
X112029117Y-89635000D01*
X112370883Y-89635000D01*
X112706081Y-89568325D01*
X113021831Y-89437537D01*
X113305998Y-89247663D01*
X113547663Y-89005998D01*
X113737537Y-88721831D01*
X113868325Y-88406081D01*
X113935000Y-88070883D01*
X113935000Y-87729117D01*
X113868325Y-87393919D01*
X113737537Y-87078169D01*
X113547663Y-86794002D01*
X113305998Y-86552337D01*
X113021831Y-86362463D01*
X112706081Y-86231675D01*
X112370883Y-86165000D01*
X112029117Y-86165000D01*
X111693919Y-86231675D01*
X111378169Y-86362463D01*
X111094002Y-86552337D01*
X110852337Y-86794002D01*
X110662463Y-87078169D01*
X110531675Y-87393919D01*
X110465000Y-87729117D01*
X109960000Y-87729117D01*
X109960000Y-87003711D01*
X110003937Y-86959774D01*
X110117205Y-86790256D01*
X110195226Y-86601898D01*
X110235000Y-86401939D01*
X110235000Y-86198061D01*
X110195226Y-85998102D01*
X110117205Y-85809744D01*
X110003937Y-85640226D01*
X109859774Y-85496063D01*
X109690256Y-85382795D01*
X109501898Y-85304774D01*
X109301939Y-85265000D01*
X109098061Y-85265000D01*
X108898102Y-85304774D01*
X108709744Y-85382795D01*
X108540226Y-85496063D01*
X108396063Y-85640226D01*
X108282795Y-85809744D01*
X108204774Y-85998102D01*
X108165000Y-86198061D01*
X108165000Y-86401939D01*
X108204774Y-86601898D01*
X108282795Y-86790256D01*
X108396063Y-86959774D01*
X108440001Y-87003712D01*
X108440000Y-88891812D01*
X108297562Y-88815677D01*
X108136828Y-88766919D01*
X107969670Y-88750455D01*
X107802512Y-88766919D01*
X107641778Y-88815677D01*
X107493645Y-88894856D01*
X107363805Y-89001412D01*
X107001412Y-89363805D01*
X106894856Y-89493645D01*
X106815677Y-89641778D01*
X106766919Y-89802512D01*
X106750455Y-89969670D01*
X106766919Y-90136828D01*
X106815677Y-90297562D01*
X106894856Y-90445695D01*
X107001412Y-90575535D01*
X107183201Y-90757324D01*
X107183201Y-90993299D01*
X101078904Y-84889003D01*
X101055101Y-84859999D01*
X100939376Y-84765026D01*
X100807347Y-84694454D01*
X100664086Y-84650997D01*
X100552433Y-84640000D01*
X100552422Y-84640000D01*
X100515100Y-84636324D01*
X100477778Y-84640000D01*
X89737325Y-84640000D01*
X89700000Y-84636324D01*
X89662675Y-84640000D01*
X89662667Y-84640000D01*
X89551014Y-84650997D01*
X89407753Y-84694454D01*
X89275724Y-84765026D01*
X89159999Y-84859999D01*
X89136201Y-84888997D01*
X85760598Y-88264601D01*
X85731600Y-88288399D01*
X85707802Y-88317397D01*
X85707801Y-88317398D01*
X85636626Y-88404124D01*
X85566054Y-88536154D01*
X85522598Y-88679415D01*
X85507924Y-88828400D01*
X85511601Y-88865732D01*
X85511601Y-89600849D01*
X85394133Y-89663637D01*
X85181412Y-89838212D01*
X85006837Y-90050933D01*
X84877116Y-90293624D01*
X84797233Y-90556960D01*
X84770260Y-90830819D01*
X84797233Y-91104678D01*
X84877116Y-91368014D01*
X85006837Y-91610705D01*
X85137666Y-91770121D01*
X85429879Y-92062334D01*
X85589295Y-92193164D01*
X85831986Y-92322885D01*
X86095322Y-92402767D01*
X86369181Y-92429740D01*
X86643040Y-92402767D01*
X86906376Y-92322885D01*
X87149067Y-92193164D01*
X87361788Y-92018588D01*
X87536364Y-91805867D01*
X87666085Y-91563176D01*
X87745967Y-91299840D01*
X87772940Y-91025981D01*
X87771798Y-91014384D01*
X87783395Y-91015526D01*
X88057254Y-90988553D01*
X88320590Y-90908671D01*
X88563281Y-90778950D01*
X88776002Y-90604374D01*
X88950578Y-90391653D01*
X89013358Y-90274200D01*
X90137145Y-90274200D01*
X90129371Y-90288744D01*
X90080613Y-90449478D01*
X90068855Y-90568855D01*
X89949478Y-90580613D01*
X89788744Y-90629371D01*
X89640611Y-90708550D01*
X89510771Y-90815106D01*
X89201412Y-91124465D01*
X89094856Y-91254305D01*
X89015677Y-91402438D01*
X88966919Y-91563172D01*
X88950455Y-91730330D01*
X88966919Y-91897488D01*
X89015677Y-92058222D01*
X89094856Y-92206355D01*
X89201412Y-92336195D01*
X89563805Y-92698588D01*
X89693645Y-92805144D01*
X89841778Y-92884323D01*
X90002512Y-92933081D01*
X90169670Y-92949545D01*
X90252942Y-92941343D01*
X92856830Y-95545231D01*
X92780702Y-95560374D01*
X92592344Y-95638395D01*
X92422826Y-95751663D01*
X92278663Y-95895826D01*
X92165395Y-96065344D01*
X92087374Y-96253702D01*
X92047600Y-96453661D01*
X92047600Y-96515798D01*
X90788072Y-97775327D01*
X90788072Y-96850000D01*
X90775812Y-96725518D01*
X90739502Y-96605820D01*
X90680537Y-96495506D01*
X90601185Y-96398815D01*
X90504494Y-96319463D01*
X90394180Y-96260498D01*
X90274482Y-96224188D01*
X90150000Y-96211928D01*
X88450000Y-96211928D01*
X88325518Y-96224188D01*
X88205820Y-96260498D01*
X88095506Y-96319463D01*
X87998815Y-96398815D01*
X87919463Y-96495506D01*
X87860498Y-96605820D01*
X87824188Y-96725518D01*
X87811928Y-96850000D01*
X87811928Y-98217002D01*
X87784142Y-98202150D01*
X87623408Y-98153392D01*
X87456250Y-98136928D01*
X86943750Y-98136928D01*
X86776592Y-98153392D01*
X86615858Y-98202150D01*
X86525406Y-98250498D01*
X86445198Y-98217274D01*
X86245239Y-98177500D01*
X86041361Y-98177500D01*
X85841402Y-98217274D01*
X85653044Y-98295295D01*
X85483526Y-98408563D01*
X85339363Y-98552726D01*
X85226095Y-98722244D01*
X85148074Y-98910602D01*
X85108300Y-99110561D01*
X85108300Y-99314439D01*
X85148074Y-99514398D01*
X85226095Y-99702756D01*
X85339363Y-99872274D01*
X85483526Y-100016437D01*
X85653044Y-100129705D01*
X85841402Y-100207726D01*
X86041361Y-100247500D01*
X86150135Y-100247500D01*
X86103392Y-100401592D01*
X86086928Y-100568750D01*
X86086928Y-101006250D01*
X86103392Y-101173408D01*
X86152150Y-101334142D01*
X86231329Y-101482275D01*
X86337885Y-101612115D01*
X86440000Y-101695918D01*
X86440001Y-102896388D01*
X86396063Y-102940326D01*
X86282795Y-103109844D01*
X86204774Y-103298202D01*
X86165000Y-103498161D01*
X86165000Y-103702039D01*
X86204774Y-103901998D01*
X86282795Y-104090356D01*
X86396063Y-104259874D01*
X86540226Y-104404037D01*
X86709744Y-104517305D01*
X86898102Y-104595326D01*
X87098061Y-104635100D01*
X87160199Y-104635100D01*
X88548833Y-106023735D01*
X88432502Y-106046874D01*
X88244144Y-106124895D01*
X88074626Y-106238163D01*
X87930463Y-106382326D01*
X87817195Y-106551844D01*
X87739174Y-106740202D01*
X87699400Y-106940161D01*
X87699400Y-107144039D01*
X87739174Y-107343998D01*
X87817195Y-107532356D01*
X87930463Y-107701874D01*
X88074626Y-107846037D01*
X88244144Y-107959305D01*
X88432502Y-108037326D01*
X88632461Y-108077100D01*
X88694599Y-108077100D01*
X89057369Y-108439871D01*
X89066919Y-108536828D01*
X89115677Y-108697562D01*
X89194856Y-108845695D01*
X89301412Y-108975535D01*
X89610771Y-109284894D01*
X89740611Y-109391450D01*
X89888744Y-109470629D01*
X90049478Y-109519387D01*
X90168855Y-109531145D01*
X90180613Y-109650522D01*
X90229371Y-109811256D01*
X90308550Y-109959389D01*
X90415106Y-110089229D01*
X90724465Y-110398588D01*
X90854305Y-110505144D01*
X91002438Y-110584323D01*
X91163172Y-110633081D01*
X91330330Y-110649545D01*
X91497488Y-110633081D01*
X91604078Y-110600747D01*
X91751600Y-110615277D01*
X91788933Y-110611600D01*
X96288700Y-110611600D01*
X96288701Y-117011368D01*
X96285024Y-117048700D01*
X96299698Y-117197685D01*
X96343154Y-117340946D01*
X96413726Y-117472976D01*
X96484901Y-117559702D01*
X96508700Y-117588701D01*
X96537698Y-117612499D01*
X98170077Y-119244878D01*
X96674891Y-119052014D01*
X94994440Y-118681005D01*
X93353622Y-118162083D01*
X91765429Y-117499355D01*
X90242436Y-116698070D01*
X88796702Y-115764572D01*
X87439675Y-114706251D01*
X86182098Y-113531489D01*
X85033930Y-112249586D01*
X84869299Y-112029117D01*
X86165000Y-112029117D01*
X86165000Y-112370883D01*
X86231675Y-112706081D01*
X86362463Y-113021831D01*
X86552337Y-113305998D01*
X86794002Y-113547663D01*
X87078169Y-113737537D01*
X87393919Y-113868325D01*
X87729117Y-113935000D01*
X88070883Y-113935000D01*
X88406081Y-113868325D01*
X88721831Y-113737537D01*
X89005998Y-113547663D01*
X89247663Y-113305998D01*
X89437537Y-113021831D01*
X89568325Y-112706081D01*
X89635000Y-112370883D01*
X89635000Y-112029117D01*
X89568325Y-111693919D01*
X89437537Y-111378169D01*
X89247663Y-111094002D01*
X89005998Y-110852337D01*
X88721831Y-110662463D01*
X88406081Y-110531675D01*
X88070883Y-110465000D01*
X87729117Y-110465000D01*
X87393919Y-110531675D01*
X87078169Y-110662463D01*
X86794002Y-110852337D01*
X86552337Y-111094002D01*
X86362463Y-111378169D01*
X86231675Y-111693919D01*
X86165000Y-112029117D01*
X84869299Y-112029117D01*
X84004262Y-110870693D01*
X83101245Y-109405726D01*
X82332031Y-107866287D01*
X81702709Y-106264563D01*
X81218263Y-104613237D01*
X80882528Y-102925384D01*
X80698163Y-101214369D01*
X80694264Y-101001627D01*
X81177978Y-101001627D01*
X81251074Y-101246873D01*
X81508717Y-101369023D01*
X81785240Y-101438562D01*
X82070017Y-101452818D01*
X82352102Y-101411242D01*
X82620657Y-101315434D01*
X82748926Y-101246873D01*
X82822022Y-101001627D01*
X82000000Y-100179605D01*
X81177978Y-101001627D01*
X80694264Y-101001627D01*
X80687378Y-100625917D01*
X80753127Y-100748926D01*
X80998373Y-100822022D01*
X81820395Y-100000000D01*
X82179605Y-100000000D01*
X83001627Y-100822022D01*
X83246873Y-100748926D01*
X83369023Y-100491283D01*
X83438562Y-100214760D01*
X83452818Y-99929983D01*
X83411242Y-99647898D01*
X83315434Y-99379343D01*
X83246873Y-99251074D01*
X83001627Y-99177978D01*
X82179605Y-100000000D01*
X81820395Y-100000000D01*
X80998373Y-99177978D01*
X80753127Y-99251074D01*
X80671639Y-99422951D01*
X80701700Y-98998373D01*
X81177978Y-98998373D01*
X82000000Y-99820395D01*
X82822022Y-98998373D01*
X82748926Y-98753127D01*
X82491283Y-98630977D01*
X82214760Y-98561438D01*
X81929983Y-98547182D01*
X81647898Y-98588758D01*
X81379343Y-98684566D01*
X81251074Y-98753127D01*
X81177978Y-98998373D01*
X80701700Y-98998373D01*
X80788171Y-97777116D01*
X81061831Y-96078094D01*
X81485441Y-94410125D01*
X82055647Y-92786416D01*
X82767934Y-91219824D01*
X83616662Y-89722751D01*
X84595111Y-88307053D01*
X85695535Y-86983938D01*
X86909219Y-85763882D01*
X88226554Y-84656546D01*
X89637110Y-83670698D01*
X90803013Y-83001627D01*
X99177978Y-83001627D01*
X99251074Y-83246873D01*
X99508717Y-83369023D01*
X99785240Y-83438562D01*
X100070017Y-83452818D01*
X100352102Y-83411242D01*
X100620657Y-83315434D01*
X100748926Y-83246873D01*
X100822022Y-83001627D01*
X100000000Y-82179605D01*
X99177978Y-83001627D01*
X90803013Y-83001627D01*
X91129718Y-82814143D01*
X92692559Y-82093663D01*
X92758781Y-82070017D01*
X98547182Y-82070017D01*
X98588758Y-82352102D01*
X98684566Y-82620657D01*
X98753127Y-82748926D01*
X98998373Y-82822022D01*
X99820395Y-82000000D01*
X100179605Y-82000000D01*
X101001627Y-82822022D01*
X101246873Y-82748926D01*
X101369023Y-82491283D01*
X101438562Y-82214760D01*
X101452818Y-81929983D01*
X101411242Y-81647898D01*
X101315434Y-81379343D01*
X101246873Y-81251074D01*
X101001627Y-81177978D01*
X100179605Y-82000000D01*
X99820395Y-82000000D01*
X98998373Y-81177978D01*
X98753127Y-81251074D01*
X98630977Y-81508717D01*
X98561438Y-81785240D01*
X98547182Y-82070017D01*
X92758781Y-82070017D01*
X94313260Y-81514963D01*
X95978988Y-81082625D01*
X97676554Y-80800073D01*
X99392516Y-80669543D01*
X99420429Y-80669908D01*
X99420429Y-80669908D01*
G37*
X99420429Y-80669908D02*
X99379343Y-80684566D01*
X99251074Y-80753127D01*
X99177978Y-80998373D01*
X100000000Y-81820395D01*
X100822022Y-80998373D01*
X100748926Y-80753127D01*
X100606137Y-80685430D01*
X101113288Y-80692069D01*
X102825246Y-80867473D01*
X104514833Y-81194366D01*
X106168673Y-81670159D01*
X107773670Y-82291085D01*
X109317116Y-83052229D01*
X110786790Y-83947562D01*
X112171056Y-84969997D01*
X113458953Y-86111437D01*
X114640284Y-87362846D01*
X115705695Y-88714313D01*
X116646751Y-90155139D01*
X117455999Y-91673915D01*
X118127034Y-93258617D01*
X118654540Y-94896695D01*
X119034343Y-96575181D01*
X119263434Y-98280784D01*
X119312079Y-99373067D01*
X119246873Y-99251074D01*
X119001627Y-99177978D01*
X118179605Y-100000000D01*
X119001627Y-100822022D01*
X119246873Y-100748926D01*
X119324686Y-100584799D01*
X119313495Y-101012177D01*
X119147058Y-102725030D01*
X118829016Y-104416306D01*
X118361889Y-106072614D01*
X117749374Y-107680840D01*
X116996323Y-109228250D01*
X116108697Y-110702593D01*
X115093524Y-112092193D01*
X113958843Y-113386049D01*
X112713637Y-114573916D01*
X111367767Y-115646389D01*
X109931888Y-116594975D01*
X108417369Y-117412165D01*
X106836203Y-118091488D01*
X105200909Y-118627564D01*
X103524435Y-119016150D01*
X101820055Y-119254168D01*
X101715426Y-119259377D01*
X101811009Y-119163794D01*
X101840001Y-119140001D01*
X101863795Y-119111008D01*
X101863799Y-119111004D01*
X101934973Y-119024277D01*
X101934974Y-119024276D01*
X102005546Y-118892247D01*
X102049003Y-118748986D01*
X102060000Y-118637333D01*
X102060000Y-118637324D01*
X102063676Y-118600001D01*
X102060000Y-118562678D01*
X102060000Y-113349822D01*
X102063676Y-113312499D01*
X102060000Y-113275176D01*
X102060000Y-113275167D01*
X102049003Y-113163514D01*
X102005546Y-113020253D01*
X101934974Y-112888224D01*
X101910086Y-112857898D01*
X101863799Y-112801496D01*
X101863795Y-112801492D01*
X101863072Y-112800611D01*
X101863072Y-112799229D01*
X102633184Y-112029117D01*
X110465000Y-112029117D01*
X110465000Y-112370883D01*
X110531675Y-112706081D01*
X110662463Y-113021831D01*
X110852337Y-113305998D01*
X111094002Y-113547663D01*
X111378169Y-113737537D01*
X111693919Y-113868325D01*
X112029117Y-113935000D01*
X112370883Y-113935000D01*
X112706081Y-113868325D01*
X113021831Y-113737537D01*
X113305998Y-113547663D01*
X113547663Y-113305998D01*
X113737537Y-113021831D01*
X113868325Y-112706081D01*
X113935000Y-112370883D01*
X113935000Y-112029117D01*
X113868325Y-111693919D01*
X113737537Y-111378169D01*
X113547663Y-111094002D01*
X113305998Y-110852337D01*
X113021831Y-110662463D01*
X112706081Y-110531675D01*
X112370883Y-110465000D01*
X112029117Y-110465000D01*
X111693919Y-110531675D01*
X111378169Y-110662463D01*
X111094002Y-110852337D01*
X110852337Y-111094002D01*
X110662463Y-111378169D01*
X110531675Y-111693919D01*
X110465000Y-112029117D01*
X102633184Y-112029117D01*
X103685249Y-110977053D01*
X103827761Y-111005400D01*
X104031639Y-111005400D01*
X104231598Y-110965626D01*
X104419956Y-110887605D01*
X104589474Y-110774337D01*
X104733637Y-110630174D01*
X104846905Y-110460656D01*
X104924926Y-110272298D01*
X104964700Y-110072339D01*
X104964700Y-109868461D01*
X104924926Y-109668502D01*
X104846905Y-109480144D01*
X104808100Y-109422068D01*
X104808100Y-109227500D01*
X106450421Y-109227500D01*
X106411774Y-109320802D01*
X106372000Y-109520761D01*
X106372000Y-109724639D01*
X106411774Y-109924598D01*
X106489795Y-110112956D01*
X106603063Y-110282474D01*
X106747226Y-110426637D01*
X106916744Y-110539905D01*
X107105102Y-110617926D01*
X107305061Y-110657700D01*
X107508939Y-110657700D01*
X107708898Y-110617926D01*
X107897256Y-110539905D01*
X107961917Y-110496700D01*
X107963805Y-110498588D01*
X108093645Y-110605144D01*
X108241778Y-110684323D01*
X108402512Y-110733081D01*
X108569670Y-110749545D01*
X108736828Y-110733081D01*
X108897562Y-110684323D01*
X109045695Y-110605144D01*
X109175535Y-110498588D01*
X109484894Y-110189229D01*
X109591450Y-110059389D01*
X109670629Y-109911256D01*
X109719387Y-109750522D01*
X109731145Y-109631145D01*
X109850522Y-109619387D01*
X110011256Y-109570629D01*
X110159389Y-109491450D01*
X110289229Y-109384894D01*
X110598588Y-109075535D01*
X110705144Y-108945695D01*
X110784323Y-108797562D01*
X110833081Y-108636828D01*
X110849545Y-108469670D01*
X110836597Y-108338205D01*
X112679704Y-106495098D01*
X112708701Y-106471301D01*
X112735032Y-106439217D01*
X112803674Y-106355577D01*
X112874246Y-106223547D01*
X112915367Y-106087986D01*
X112917703Y-106080286D01*
X112928700Y-105968633D01*
X112928700Y-105968624D01*
X112932376Y-105931301D01*
X112928700Y-105893978D01*
X112928700Y-101863072D01*
X113256250Y-101863072D01*
X113423408Y-101846608D01*
X113584142Y-101797850D01*
X113732275Y-101718671D01*
X113862115Y-101612115D01*
X113968671Y-101482275D01*
X114047850Y-101334142D01*
X114096608Y-101173408D01*
X114113072Y-101006250D01*
X114113072Y-100749230D01*
X114296699Y-100565602D01*
X114296699Y-103269541D01*
X114166444Y-103323495D01*
X113996926Y-103436763D01*
X113852763Y-103580926D01*
X113739495Y-103750444D01*
X113661474Y-103938802D01*
X113621700Y-104138761D01*
X113621700Y-104342639D01*
X113661474Y-104542598D01*
X113739495Y-104730956D01*
X113852763Y-104900474D01*
X113996926Y-105044637D01*
X114166444Y-105157905D01*
X114354802Y-105235926D01*
X114554761Y-105275700D01*
X114758639Y-105275700D01*
X114958598Y-105235926D01*
X115146956Y-105157905D01*
X115316474Y-105044637D01*
X115460637Y-104900474D01*
X115573905Y-104730956D01*
X115651926Y-104542598D01*
X115691700Y-104342639D01*
X115691700Y-104264926D01*
X115762245Y-104132948D01*
X115805702Y-103989687D01*
X115816699Y-103878034D01*
X115816699Y-103878024D01*
X115820375Y-103840702D01*
X115816699Y-103803379D01*
X115816699Y-101001627D01*
X117177978Y-101001627D01*
X117251074Y-101246873D01*
X117508717Y-101369023D01*
X117785240Y-101438562D01*
X118070017Y-101452818D01*
X118352102Y-101411242D01*
X118620657Y-101315434D01*
X118748926Y-101246873D01*
X118822022Y-101001627D01*
X118000000Y-100179605D01*
X117177978Y-101001627D01*
X115816699Y-101001627D01*
X115816699Y-100070017D01*
X116547182Y-100070017D01*
X116588758Y-100352102D01*
X116684566Y-100620657D01*
X116753127Y-100748926D01*
X116998373Y-100822022D01*
X117820395Y-100000000D01*
X116998373Y-99177978D01*
X116753127Y-99251074D01*
X116630977Y-99508717D01*
X116561438Y-99785240D01*
X116547182Y-100070017D01*
X115816699Y-100070017D01*
X115816699Y-98998373D01*
X117177978Y-98998373D01*
X118000000Y-99820395D01*
X118822022Y-98998373D01*
X118748926Y-98753127D01*
X118491283Y-98630977D01*
X118214760Y-98561438D01*
X117929983Y-98547182D01*
X117647898Y-98588758D01*
X117379343Y-98684566D01*
X117251074Y-98753127D01*
X117177978Y-98998373D01*
X115816699Y-98998373D01*
X115816699Y-95468021D01*
X115820375Y-95430698D01*
X115816699Y-95393375D01*
X115816699Y-95393366D01*
X115805702Y-95281713D01*
X115762245Y-95138452D01*
X115724121Y-95067128D01*
X115691673Y-95006422D01*
X115620498Y-94919696D01*
X115596700Y-94890698D01*
X115567702Y-94866900D01*
X109960000Y-89259199D01*
X109960000Y-87729117D01*
X110465000Y-87729117D01*
X110465000Y-88070883D01*
X110531675Y-88406081D01*
X110662463Y-88721831D01*
X110852337Y-89005998D01*
X111094002Y-89247663D01*
X111378169Y-89437537D01*
X111693919Y-89568325D01*
X112029117Y-89635000D01*
X112370883Y-89635000D01*
X112706081Y-89568325D01*
X113021831Y-89437537D01*
X113305998Y-89247663D01*
X113547663Y-89005998D01*
X113737537Y-88721831D01*
X113868325Y-88406081D01*
X113935000Y-88070883D01*
X113935000Y-87729117D01*
X113868325Y-87393919D01*
X113737537Y-87078169D01*
X113547663Y-86794002D01*
X113305998Y-86552337D01*
X113021831Y-86362463D01*
X112706081Y-86231675D01*
X112370883Y-86165000D01*
X112029117Y-86165000D01*
X111693919Y-86231675D01*
X111378169Y-86362463D01*
X111094002Y-86552337D01*
X110852337Y-86794002D01*
X110662463Y-87078169D01*
X110531675Y-87393919D01*
X110465000Y-87729117D01*
X109960000Y-87729117D01*
X109960000Y-87003711D01*
X110003937Y-86959774D01*
X110117205Y-86790256D01*
X110195226Y-86601898D01*
X110235000Y-86401939D01*
X110235000Y-86198061D01*
X110195226Y-85998102D01*
X110117205Y-85809744D01*
X110003937Y-85640226D01*
X109859774Y-85496063D01*
X109690256Y-85382795D01*
X109501898Y-85304774D01*
X109301939Y-85265000D01*
X109098061Y-85265000D01*
X108898102Y-85304774D01*
X108709744Y-85382795D01*
X108540226Y-85496063D01*
X108396063Y-85640226D01*
X108282795Y-85809744D01*
X108204774Y-85998102D01*
X108165000Y-86198061D01*
X108165000Y-86401939D01*
X108204774Y-86601898D01*
X108282795Y-86790256D01*
X108396063Y-86959774D01*
X108440001Y-87003712D01*
X108440000Y-88891812D01*
X108297562Y-88815677D01*
X108136828Y-88766919D01*
X107969670Y-88750455D01*
X107802512Y-88766919D01*
X107641778Y-88815677D01*
X107493645Y-88894856D01*
X107363805Y-89001412D01*
X107001412Y-89363805D01*
X106894856Y-89493645D01*
X106815677Y-89641778D01*
X106766919Y-89802512D01*
X106750455Y-89969670D01*
X106766919Y-90136828D01*
X106815677Y-90297562D01*
X106894856Y-90445695D01*
X107001412Y-90575535D01*
X107183201Y-90757324D01*
X107183201Y-90993299D01*
X101078904Y-84889003D01*
X101055101Y-84859999D01*
X100939376Y-84765026D01*
X100807347Y-84694454D01*
X100664086Y-84650997D01*
X100552433Y-84640000D01*
X100552422Y-84640000D01*
X100515100Y-84636324D01*
X100477778Y-84640000D01*
X89737325Y-84640000D01*
X89700000Y-84636324D01*
X89662675Y-84640000D01*
X89662667Y-84640000D01*
X89551014Y-84650997D01*
X89407753Y-84694454D01*
X89275724Y-84765026D01*
X89159999Y-84859999D01*
X89136201Y-84888997D01*
X85760598Y-88264601D01*
X85731600Y-88288399D01*
X85707802Y-88317397D01*
X85707801Y-88317398D01*
X85636626Y-88404124D01*
X85566054Y-88536154D01*
X85522598Y-88679415D01*
X85507924Y-88828400D01*
X85511601Y-88865732D01*
X85511601Y-89600849D01*
X85394133Y-89663637D01*
X85181412Y-89838212D01*
X85006837Y-90050933D01*
X84877116Y-90293624D01*
X84797233Y-90556960D01*
X84770260Y-90830819D01*
X84797233Y-91104678D01*
X84877116Y-91368014D01*
X85006837Y-91610705D01*
X85137666Y-91770121D01*
X85429879Y-92062334D01*
X85589295Y-92193164D01*
X85831986Y-92322885D01*
X86095322Y-92402767D01*
X86369181Y-92429740D01*
X86643040Y-92402767D01*
X86906376Y-92322885D01*
X87149067Y-92193164D01*
X87361788Y-92018588D01*
X87536364Y-91805867D01*
X87666085Y-91563176D01*
X87745967Y-91299840D01*
X87772940Y-91025981D01*
X87771798Y-91014384D01*
X87783395Y-91015526D01*
X88057254Y-90988553D01*
X88320590Y-90908671D01*
X88563281Y-90778950D01*
X88776002Y-90604374D01*
X88950578Y-90391653D01*
X89013358Y-90274200D01*
X90137145Y-90274200D01*
X90129371Y-90288744D01*
X90080613Y-90449478D01*
X90068855Y-90568855D01*
X89949478Y-90580613D01*
X89788744Y-90629371D01*
X89640611Y-90708550D01*
X89510771Y-90815106D01*
X89201412Y-91124465D01*
X89094856Y-91254305D01*
X89015677Y-91402438D01*
X88966919Y-91563172D01*
X88950455Y-91730330D01*
X88966919Y-91897488D01*
X89015677Y-92058222D01*
X89094856Y-92206355D01*
X89201412Y-92336195D01*
X89563805Y-92698588D01*
X89693645Y-92805144D01*
X89841778Y-92884323D01*
X90002512Y-92933081D01*
X90169670Y-92949545D01*
X90252942Y-92941343D01*
X92856830Y-95545231D01*
X92780702Y-95560374D01*
X92592344Y-95638395D01*
X92422826Y-95751663D01*
X92278663Y-95895826D01*
X92165395Y-96065344D01*
X92087374Y-96253702D01*
X92047600Y-96453661D01*
X92047600Y-96515798D01*
X90788072Y-97775327D01*
X90788072Y-96850000D01*
X90775812Y-96725518D01*
X90739502Y-96605820D01*
X90680537Y-96495506D01*
X90601185Y-96398815D01*
X90504494Y-96319463D01*
X90394180Y-96260498D01*
X90274482Y-96224188D01*
X90150000Y-96211928D01*
X88450000Y-96211928D01*
X88325518Y-96224188D01*
X88205820Y-96260498D01*
X88095506Y-96319463D01*
X87998815Y-96398815D01*
X87919463Y-96495506D01*
X87860498Y-96605820D01*
X87824188Y-96725518D01*
X87811928Y-96850000D01*
X87811928Y-98217002D01*
X87784142Y-98202150D01*
X87623408Y-98153392D01*
X87456250Y-98136928D01*
X86943750Y-98136928D01*
X86776592Y-98153392D01*
X86615858Y-98202150D01*
X86525406Y-98250498D01*
X86445198Y-98217274D01*
X86245239Y-98177500D01*
X86041361Y-98177500D01*
X85841402Y-98217274D01*
X85653044Y-98295295D01*
X85483526Y-98408563D01*
X85339363Y-98552726D01*
X85226095Y-98722244D01*
X85148074Y-98910602D01*
X85108300Y-99110561D01*
X85108300Y-99314439D01*
X85148074Y-99514398D01*
X85226095Y-99702756D01*
X85339363Y-99872274D01*
X85483526Y-100016437D01*
X85653044Y-100129705D01*
X85841402Y-100207726D01*
X86041361Y-100247500D01*
X86150135Y-100247500D01*
X86103392Y-100401592D01*
X86086928Y-100568750D01*
X86086928Y-101006250D01*
X86103392Y-101173408D01*
X86152150Y-101334142D01*
X86231329Y-101482275D01*
X86337885Y-101612115D01*
X86440000Y-101695918D01*
X86440001Y-102896388D01*
X86396063Y-102940326D01*
X86282795Y-103109844D01*
X86204774Y-103298202D01*
X86165000Y-103498161D01*
X86165000Y-103702039D01*
X86204774Y-103901998D01*
X86282795Y-104090356D01*
X86396063Y-104259874D01*
X86540226Y-104404037D01*
X86709744Y-104517305D01*
X86898102Y-104595326D01*
X87098061Y-104635100D01*
X87160199Y-104635100D01*
X88548833Y-106023735D01*
X88432502Y-106046874D01*
X88244144Y-106124895D01*
X88074626Y-106238163D01*
X87930463Y-106382326D01*
X87817195Y-106551844D01*
X87739174Y-106740202D01*
X87699400Y-106940161D01*
X87699400Y-107144039D01*
X87739174Y-107343998D01*
X87817195Y-107532356D01*
X87930463Y-107701874D01*
X88074626Y-107846037D01*
X88244144Y-107959305D01*
X88432502Y-108037326D01*
X88632461Y-108077100D01*
X88694599Y-108077100D01*
X89057369Y-108439871D01*
X89066919Y-108536828D01*
X89115677Y-108697562D01*
X89194856Y-108845695D01*
X89301412Y-108975535D01*
X89610771Y-109284894D01*
X89740611Y-109391450D01*
X89888744Y-109470629D01*
X90049478Y-109519387D01*
X90168855Y-109531145D01*
X90180613Y-109650522D01*
X90229371Y-109811256D01*
X90308550Y-109959389D01*
X90415106Y-110089229D01*
X90724465Y-110398588D01*
X90854305Y-110505144D01*
X91002438Y-110584323D01*
X91163172Y-110633081D01*
X91330330Y-110649545D01*
X91497488Y-110633081D01*
X91604078Y-110600747D01*
X91751600Y-110615277D01*
X91788933Y-110611600D01*
X96288700Y-110611600D01*
X96288701Y-117011368D01*
X96285024Y-117048700D01*
X96299698Y-117197685D01*
X96343154Y-117340946D01*
X96413726Y-117472976D01*
X96484901Y-117559702D01*
X96508700Y-117588701D01*
X96537698Y-117612499D01*
X98170077Y-119244878D01*
X96674891Y-119052014D01*
X94994440Y-118681005D01*
X93353622Y-118162083D01*
X91765429Y-117499355D01*
X90242436Y-116698070D01*
X88796702Y-115764572D01*
X87439675Y-114706251D01*
X86182098Y-113531489D01*
X85033930Y-112249586D01*
X84869299Y-112029117D01*
X86165000Y-112029117D01*
X86165000Y-112370883D01*
X86231675Y-112706081D01*
X86362463Y-113021831D01*
X86552337Y-113305998D01*
X86794002Y-113547663D01*
X87078169Y-113737537D01*
X87393919Y-113868325D01*
X87729117Y-113935000D01*
X88070883Y-113935000D01*
X88406081Y-113868325D01*
X88721831Y-113737537D01*
X89005998Y-113547663D01*
X89247663Y-113305998D01*
X89437537Y-113021831D01*
X89568325Y-112706081D01*
X89635000Y-112370883D01*
X89635000Y-112029117D01*
X89568325Y-111693919D01*
X89437537Y-111378169D01*
X89247663Y-111094002D01*
X89005998Y-110852337D01*
X88721831Y-110662463D01*
X88406081Y-110531675D01*
X88070883Y-110465000D01*
X87729117Y-110465000D01*
X87393919Y-110531675D01*
X87078169Y-110662463D01*
X86794002Y-110852337D01*
X86552337Y-111094002D01*
X86362463Y-111378169D01*
X86231675Y-111693919D01*
X86165000Y-112029117D01*
X84869299Y-112029117D01*
X84004262Y-110870693D01*
X83101245Y-109405726D01*
X82332031Y-107866287D01*
X81702709Y-106264563D01*
X81218263Y-104613237D01*
X80882528Y-102925384D01*
X80698163Y-101214369D01*
X80694264Y-101001627D01*
X81177978Y-101001627D01*
X81251074Y-101246873D01*
X81508717Y-101369023D01*
X81785240Y-101438562D01*
X82070017Y-101452818D01*
X82352102Y-101411242D01*
X82620657Y-101315434D01*
X82748926Y-101246873D01*
X82822022Y-101001627D01*
X82000000Y-100179605D01*
X81177978Y-101001627D01*
X80694264Y-101001627D01*
X80687378Y-100625917D01*
X80753127Y-100748926D01*
X80998373Y-100822022D01*
X81820395Y-100000000D01*
X82179605Y-100000000D01*
X83001627Y-100822022D01*
X83246873Y-100748926D01*
X83369023Y-100491283D01*
X83438562Y-100214760D01*
X83452818Y-99929983D01*
X83411242Y-99647898D01*
X83315434Y-99379343D01*
X83246873Y-99251074D01*
X83001627Y-99177978D01*
X82179605Y-100000000D01*
X81820395Y-100000000D01*
X80998373Y-99177978D01*
X80753127Y-99251074D01*
X80671639Y-99422951D01*
X80701700Y-98998373D01*
X81177978Y-98998373D01*
X82000000Y-99820395D01*
X82822022Y-98998373D01*
X82748926Y-98753127D01*
X82491283Y-98630977D01*
X82214760Y-98561438D01*
X81929983Y-98547182D01*
X81647898Y-98588758D01*
X81379343Y-98684566D01*
X81251074Y-98753127D01*
X81177978Y-98998373D01*
X80701700Y-98998373D01*
X80788171Y-97777116D01*
X81061831Y-96078094D01*
X81485441Y-94410125D01*
X82055647Y-92786416D01*
X82767934Y-91219824D01*
X83616662Y-89722751D01*
X84595111Y-88307053D01*
X85695535Y-86983938D01*
X86909219Y-85763882D01*
X88226554Y-84656546D01*
X89637110Y-83670698D01*
X90803013Y-83001627D01*
X99177978Y-83001627D01*
X99251074Y-83246873D01*
X99508717Y-83369023D01*
X99785240Y-83438562D01*
X100070017Y-83452818D01*
X100352102Y-83411242D01*
X100620657Y-83315434D01*
X100748926Y-83246873D01*
X100822022Y-83001627D01*
X100000000Y-82179605D01*
X99177978Y-83001627D01*
X90803013Y-83001627D01*
X91129718Y-82814143D01*
X92692559Y-82093663D01*
X92758781Y-82070017D01*
X98547182Y-82070017D01*
X98588758Y-82352102D01*
X98684566Y-82620657D01*
X98753127Y-82748926D01*
X98998373Y-82822022D01*
X99820395Y-82000000D01*
X100179605Y-82000000D01*
X101001627Y-82822022D01*
X101246873Y-82748926D01*
X101369023Y-82491283D01*
X101438562Y-82214760D01*
X101452818Y-81929983D01*
X101411242Y-81647898D01*
X101315434Y-81379343D01*
X101246873Y-81251074D01*
X101001627Y-81177978D01*
X100179605Y-82000000D01*
X99820395Y-82000000D01*
X98998373Y-81177978D01*
X98753127Y-81251074D01*
X98630977Y-81508717D01*
X98561438Y-81785240D01*
X98547182Y-82070017D01*
X92758781Y-82070017D01*
X94313260Y-81514963D01*
X95978988Y-81082625D01*
X97676554Y-80800073D01*
X99392516Y-80669543D01*
X99420429Y-80669908D01*
G36*
X100092725Y-113768671D02*
G01*
X100240858Y-113847850D01*
X100401592Y-113896608D01*
X100540001Y-113910240D01*
X100540000Y-116654074D01*
X100491283Y-116630977D01*
X100214760Y-116561438D01*
X99929983Y-116547182D01*
X99647898Y-116588758D01*
X99379343Y-116684566D01*
X99251074Y-116753127D01*
X99177978Y-116998373D01*
X100000000Y-117820395D01*
X100014143Y-117806253D01*
X100193748Y-117985858D01*
X100179605Y-118000000D01*
X100193748Y-118014143D01*
X100014143Y-118193748D01*
X100000000Y-118179605D01*
X99985858Y-118193748D01*
X99806253Y-118014143D01*
X99820395Y-118000000D01*
X98998373Y-117177978D01*
X98753127Y-117251074D01*
X98630977Y-117508717D01*
X98621441Y-117546639D01*
X97808700Y-116733899D01*
X97808700Y-114377274D01*
X97942561Y-114403900D01*
X98146439Y-114403900D01*
X98346398Y-114364126D01*
X98534756Y-114286105D01*
X98704274Y-114172837D01*
X98755561Y-114121550D01*
X98792586Y-114117903D01*
X98935847Y-114074446D01*
X99067876Y-114003874D01*
X99178519Y-113913072D01*
X99431250Y-113913072D01*
X99598408Y-113896608D01*
X99759142Y-113847850D01*
X99907275Y-113768671D01*
X100000000Y-113692574D01*
X100092725Y-113768671D01*
X100092725Y-113768671D01*
G37*
X100092725Y-113768671D02*
X100240858Y-113847850D01*
X100401592Y-113896608D01*
X100540001Y-113910240D01*
X100540000Y-116654074D01*
X100491283Y-116630977D01*
X100214760Y-116561438D01*
X99929983Y-116547182D01*
X99647898Y-116588758D01*
X99379343Y-116684566D01*
X99251074Y-116753127D01*
X99177978Y-116998373D01*
X100000000Y-117820395D01*
X100014143Y-117806253D01*
X100193748Y-117985858D01*
X100179605Y-118000000D01*
X100193748Y-118014143D01*
X100014143Y-118193748D01*
X100000000Y-118179605D01*
X99985858Y-118193748D01*
X99806253Y-118014143D01*
X99820395Y-118000000D01*
X98998373Y-117177978D01*
X98753127Y-117251074D01*
X98630977Y-117508717D01*
X98621441Y-117546639D01*
X97808700Y-116733899D01*
X97808700Y-114377274D01*
X97942561Y-114403900D01*
X98146439Y-114403900D01*
X98346398Y-114364126D01*
X98534756Y-114286105D01*
X98704274Y-114172837D01*
X98755561Y-114121550D01*
X98792586Y-114117903D01*
X98935847Y-114074446D01*
X99067876Y-114003874D01*
X99178519Y-113913072D01*
X99431250Y-113913072D01*
X99598408Y-113896608D01*
X99759142Y-113847850D01*
X99907275Y-113768671D01*
X100000000Y-113692574D01*
X100092725Y-113768671D01*
G36*
X106850001Y-103489303D02*
G01*
X106873799Y-103518301D01*
X106989524Y-103613274D01*
X107121553Y-103683846D01*
X107264814Y-103727303D01*
X107376467Y-103738300D01*
X107376476Y-103738300D01*
X107413799Y-103741976D01*
X107451122Y-103738300D01*
X107993678Y-103738300D01*
X108031000Y-103741976D01*
X108068322Y-103738300D01*
X108068333Y-103738300D01*
X108179986Y-103727303D01*
X108323247Y-103683846D01*
X108455276Y-103613274D01*
X108571001Y-103518301D01*
X108594804Y-103489297D01*
X109760939Y-102323163D01*
X109818645Y-102375178D01*
X109935523Y-102444799D01*
X109870986Y-102479294D01*
X109644866Y-102664866D01*
X109459294Y-102890986D01*
X109321401Y-103148966D01*
X109236487Y-103428889D01*
X109207815Y-103720000D01*
X109236487Y-104011111D01*
X109321401Y-104291034D01*
X109459294Y-104549014D01*
X109644866Y-104775134D01*
X109870986Y-104960706D01*
X110128966Y-105098599D01*
X110408889Y-105183513D01*
X110627050Y-105205000D01*
X110772950Y-105205000D01*
X110991111Y-105183513D01*
X111271034Y-105098599D01*
X111408700Y-105025015D01*
X111408700Y-105616498D01*
X109761795Y-107263403D01*
X109630330Y-107250455D01*
X109463172Y-107266919D01*
X109302438Y-107315677D01*
X109154305Y-107394856D01*
X109024465Y-107501412D01*
X108818377Y-107707500D01*
X105335122Y-107707500D01*
X105335122Y-107048010D01*
X105322862Y-106923528D01*
X105286552Y-106803830D01*
X105227587Y-106693516D01*
X105148235Y-106596825D01*
X105051544Y-106517473D01*
X104941230Y-106458508D01*
X104821532Y-106422198D01*
X104697050Y-106409938D01*
X103399110Y-106409938D01*
X103274628Y-106422198D01*
X103154930Y-106458508D01*
X103044616Y-106517473D01*
X102947925Y-106596825D01*
X102900000Y-106655222D01*
X102852075Y-106596825D01*
X102755384Y-106517473D01*
X102645070Y-106458508D01*
X102525372Y-106422198D01*
X102400890Y-106409938D01*
X102037670Y-106413010D01*
X101878920Y-106571760D01*
X101878920Y-107620780D01*
X101898920Y-107620780D01*
X101898920Y-107874780D01*
X101878920Y-107874780D01*
X101878920Y-108923800D01*
X102037670Y-109082550D01*
X102400890Y-109085622D01*
X102525372Y-109073362D01*
X102645070Y-109037052D01*
X102755384Y-108978087D01*
X102852075Y-108898735D01*
X102900000Y-108840338D01*
X102947925Y-108898735D01*
X103044616Y-108978087D01*
X103154930Y-109037052D01*
X103274628Y-109073362D01*
X103288100Y-109074689D01*
X103288100Y-109154319D01*
X103269926Y-109166463D01*
X103125763Y-109310626D01*
X103012495Y-109480144D01*
X102998311Y-109514387D01*
X100825771Y-111686928D01*
X100568750Y-111686928D01*
X100401592Y-111703392D01*
X100240858Y-111752150D01*
X100092725Y-111831329D01*
X100000000Y-111907426D01*
X99907275Y-111831329D01*
X99759142Y-111752150D01*
X99598408Y-111703392D01*
X99431250Y-111686928D01*
X98993750Y-111686928D01*
X98826592Y-111703392D01*
X98665858Y-111752150D01*
X98517725Y-111831329D01*
X98387885Y-111937885D01*
X98281329Y-112067725D01*
X98202150Y-112215858D01*
X98165210Y-112337634D01*
X98146439Y-112333900D01*
X97942561Y-112333900D01*
X97808700Y-112360526D01*
X97808700Y-110202100D01*
X97835139Y-110202100D01*
X98035098Y-110162326D01*
X98223456Y-110084305D01*
X98392974Y-109971037D01*
X98537137Y-109826874D01*
X98650405Y-109657356D01*
X98728426Y-109468998D01*
X98763066Y-109294850D01*
X98772376Y-109289874D01*
X98888101Y-109194901D01*
X98983074Y-109079176D01*
X99033954Y-108983987D01*
X99121532Y-108975362D01*
X99241230Y-108939052D01*
X99351544Y-108880087D01*
X99448235Y-108800735D01*
X99527587Y-108704044D01*
X99586552Y-108593730D01*
X99622862Y-108474032D01*
X99625470Y-108447550D01*
X100464878Y-108447550D01*
X100477138Y-108572032D01*
X100513448Y-108691730D01*
X100572413Y-108802044D01*
X100651765Y-108898735D01*
X100748456Y-108978087D01*
X100858770Y-109037052D01*
X100978468Y-109073362D01*
X101102950Y-109085622D01*
X101466170Y-109082550D01*
X101624920Y-108923800D01*
X101624920Y-107874780D01*
X100626700Y-107874780D01*
X100467950Y-108033530D01*
X100464878Y-108447550D01*
X99625470Y-108447550D01*
X99635122Y-108349550D01*
X99635122Y-107048010D01*
X100464878Y-107048010D01*
X100467950Y-107462030D01*
X100626700Y-107620780D01*
X101624920Y-107620780D01*
X101624920Y-106571760D01*
X101466170Y-106413010D01*
X101102950Y-106409938D01*
X100978468Y-106422198D01*
X100858770Y-106458508D01*
X100748456Y-106517473D01*
X100651765Y-106596825D01*
X100572413Y-106693516D01*
X100513448Y-106803830D01*
X100477138Y-106923528D01*
X100464878Y-107048010D01*
X99635122Y-107048010D01*
X99635122Y-106950010D01*
X99622862Y-106825528D01*
X99586552Y-106705830D01*
X99527587Y-106595516D01*
X99448235Y-106498825D01*
X99351544Y-106419473D01*
X99285811Y-106384337D01*
X99345226Y-106240898D01*
X99385000Y-106040939D01*
X99385000Y-105837061D01*
X99345226Y-105637102D01*
X99267205Y-105448744D01*
X99153937Y-105279226D01*
X99009774Y-105135063D01*
X98840256Y-105021795D01*
X98797962Y-105004276D01*
X98800535Y-105002165D01*
X98879887Y-104905474D01*
X98938852Y-104795160D01*
X98975162Y-104675462D01*
X98987422Y-104550980D01*
X98987422Y-104095324D01*
X99302801Y-104410703D01*
X99326599Y-104439701D01*
X99442324Y-104534674D01*
X99574353Y-104605246D01*
X99717614Y-104648703D01*
X99829267Y-104659700D01*
X99829275Y-104659700D01*
X99866600Y-104663376D01*
X99903925Y-104659700D01*
X101113634Y-104659700D01*
X101124838Y-104773462D01*
X101161148Y-104893160D01*
X101220113Y-105003474D01*
X101299465Y-105100165D01*
X101396156Y-105179517D01*
X101506470Y-105238482D01*
X101626168Y-105274792D01*
X101750650Y-105287052D01*
X104049350Y-105287052D01*
X104173832Y-105274792D01*
X104293530Y-105238482D01*
X104403844Y-105179517D01*
X104500535Y-105100165D01*
X104558678Y-105029317D01*
X104663161Y-105050100D01*
X104867039Y-105050100D01*
X105066998Y-105010326D01*
X105255356Y-104932305D01*
X105424874Y-104819037D01*
X105569037Y-104674874D01*
X105682305Y-104505356D01*
X105760326Y-104316998D01*
X105800100Y-104117039D01*
X105800100Y-103913161D01*
X105760326Y-103713202D01*
X105682305Y-103524844D01*
X105569037Y-103355326D01*
X105525100Y-103311389D01*
X105525100Y-102164402D01*
X106850001Y-103489303D01*
X106850001Y-103489303D01*
G37*
X106850001Y-103489303D02*
X106873799Y-103518301D01*
X106989524Y-103613274D01*
X107121553Y-103683846D01*
X107264814Y-103727303D01*
X107376467Y-103738300D01*
X107376476Y-103738300D01*
X107413799Y-103741976D01*
X107451122Y-103738300D01*
X107993678Y-103738300D01*
X108031000Y-103741976D01*
X108068322Y-103738300D01*
X108068333Y-103738300D01*
X108179986Y-103727303D01*
X108323247Y-103683846D01*
X108455276Y-103613274D01*
X108571001Y-103518301D01*
X108594804Y-103489297D01*
X109760939Y-102323163D01*
X109818645Y-102375178D01*
X109935523Y-102444799D01*
X109870986Y-102479294D01*
X109644866Y-102664866D01*
X109459294Y-102890986D01*
X109321401Y-103148966D01*
X109236487Y-103428889D01*
X109207815Y-103720000D01*
X109236487Y-104011111D01*
X109321401Y-104291034D01*
X109459294Y-104549014D01*
X109644866Y-104775134D01*
X109870986Y-104960706D01*
X110128966Y-105098599D01*
X110408889Y-105183513D01*
X110627050Y-105205000D01*
X110772950Y-105205000D01*
X110991111Y-105183513D01*
X111271034Y-105098599D01*
X111408700Y-105025015D01*
X111408700Y-105616498D01*
X109761795Y-107263403D01*
X109630330Y-107250455D01*
X109463172Y-107266919D01*
X109302438Y-107315677D01*
X109154305Y-107394856D01*
X109024465Y-107501412D01*
X108818377Y-107707500D01*
X105335122Y-107707500D01*
X105335122Y-107048010D01*
X105322862Y-106923528D01*
X105286552Y-106803830D01*
X105227587Y-106693516D01*
X105148235Y-106596825D01*
X105051544Y-106517473D01*
X104941230Y-106458508D01*
X104821532Y-106422198D01*
X104697050Y-106409938D01*
X103399110Y-106409938D01*
X103274628Y-106422198D01*
X103154930Y-106458508D01*
X103044616Y-106517473D01*
X102947925Y-106596825D01*
X102900000Y-106655222D01*
X102852075Y-106596825D01*
X102755384Y-106517473D01*
X102645070Y-106458508D01*
X102525372Y-106422198D01*
X102400890Y-106409938D01*
X102037670Y-106413010D01*
X101878920Y-106571760D01*
X101878920Y-107620780D01*
X101898920Y-107620780D01*
X101898920Y-107874780D01*
X101878920Y-107874780D01*
X101878920Y-108923800D01*
X102037670Y-109082550D01*
X102400890Y-109085622D01*
X102525372Y-109073362D01*
X102645070Y-109037052D01*
X102755384Y-108978087D01*
X102852075Y-108898735D01*
X102900000Y-108840338D01*
X102947925Y-108898735D01*
X103044616Y-108978087D01*
X103154930Y-109037052D01*
X103274628Y-109073362D01*
X103288100Y-109074689D01*
X103288100Y-109154319D01*
X103269926Y-109166463D01*
X103125763Y-109310626D01*
X103012495Y-109480144D01*
X102998311Y-109514387D01*
X100825771Y-111686928D01*
X100568750Y-111686928D01*
X100401592Y-111703392D01*
X100240858Y-111752150D01*
X100092725Y-111831329D01*
X100000000Y-111907426D01*
X99907275Y-111831329D01*
X99759142Y-111752150D01*
X99598408Y-111703392D01*
X99431250Y-111686928D01*
X98993750Y-111686928D01*
X98826592Y-111703392D01*
X98665858Y-111752150D01*
X98517725Y-111831329D01*
X98387885Y-111937885D01*
X98281329Y-112067725D01*
X98202150Y-112215858D01*
X98165210Y-112337634D01*
X98146439Y-112333900D01*
X97942561Y-112333900D01*
X97808700Y-112360526D01*
X97808700Y-110202100D01*
X97835139Y-110202100D01*
X98035098Y-110162326D01*
X98223456Y-110084305D01*
X98392974Y-109971037D01*
X98537137Y-109826874D01*
X98650405Y-109657356D01*
X98728426Y-109468998D01*
X98763066Y-109294850D01*
X98772376Y-109289874D01*
X98888101Y-109194901D01*
X98983074Y-109079176D01*
X99033954Y-108983987D01*
X99121532Y-108975362D01*
X99241230Y-108939052D01*
X99351544Y-108880087D01*
X99448235Y-108800735D01*
X99527587Y-108704044D01*
X99586552Y-108593730D01*
X99622862Y-108474032D01*
X99625470Y-108447550D01*
X100464878Y-108447550D01*
X100477138Y-108572032D01*
X100513448Y-108691730D01*
X100572413Y-108802044D01*
X100651765Y-108898735D01*
X100748456Y-108978087D01*
X100858770Y-109037052D01*
X100978468Y-109073362D01*
X101102950Y-109085622D01*
X101466170Y-109082550D01*
X101624920Y-108923800D01*
X101624920Y-107874780D01*
X100626700Y-107874780D01*
X100467950Y-108033530D01*
X100464878Y-108447550D01*
X99625470Y-108447550D01*
X99635122Y-108349550D01*
X99635122Y-107048010D01*
X100464878Y-107048010D01*
X100467950Y-107462030D01*
X100626700Y-107620780D01*
X101624920Y-107620780D01*
X101624920Y-106571760D01*
X101466170Y-106413010D01*
X101102950Y-106409938D01*
X100978468Y-106422198D01*
X100858770Y-106458508D01*
X100748456Y-106517473D01*
X100651765Y-106596825D01*
X100572413Y-106693516D01*
X100513448Y-106803830D01*
X100477138Y-106923528D01*
X100464878Y-107048010D01*
X99635122Y-107048010D01*
X99635122Y-106950010D01*
X99622862Y-106825528D01*
X99586552Y-106705830D01*
X99527587Y-106595516D01*
X99448235Y-106498825D01*
X99351544Y-106419473D01*
X99285811Y-106384337D01*
X99345226Y-106240898D01*
X99385000Y-106040939D01*
X99385000Y-105837061D01*
X99345226Y-105637102D01*
X99267205Y-105448744D01*
X99153937Y-105279226D01*
X99009774Y-105135063D01*
X98840256Y-105021795D01*
X98797962Y-105004276D01*
X98800535Y-105002165D01*
X98879887Y-104905474D01*
X98938852Y-104795160D01*
X98975162Y-104675462D01*
X98987422Y-104550980D01*
X98987422Y-104095324D01*
X99302801Y-104410703D01*
X99326599Y-104439701D01*
X99442324Y-104534674D01*
X99574353Y-104605246D01*
X99717614Y-104648703D01*
X99829267Y-104659700D01*
X99829275Y-104659700D01*
X99866600Y-104663376D01*
X99903925Y-104659700D01*
X101113634Y-104659700D01*
X101124838Y-104773462D01*
X101161148Y-104893160D01*
X101220113Y-105003474D01*
X101299465Y-105100165D01*
X101396156Y-105179517D01*
X101506470Y-105238482D01*
X101626168Y-105274792D01*
X101750650Y-105287052D01*
X104049350Y-105287052D01*
X104173832Y-105274792D01*
X104293530Y-105238482D01*
X104403844Y-105179517D01*
X104500535Y-105100165D01*
X104558678Y-105029317D01*
X104663161Y-105050100D01*
X104867039Y-105050100D01*
X105066998Y-105010326D01*
X105255356Y-104932305D01*
X105424874Y-104819037D01*
X105569037Y-104674874D01*
X105682305Y-104505356D01*
X105760326Y-104316998D01*
X105800100Y-104117039D01*
X105800100Y-103913161D01*
X105760326Y-103713202D01*
X105682305Y-103524844D01*
X105569037Y-103355326D01*
X105525100Y-103311389D01*
X105525100Y-102164402D01*
X106850001Y-103489303D01*
G36*
X103775600Y-92296902D02*
G01*
X103799399Y-92325901D01*
X103915124Y-92420874D01*
X103932505Y-92430165D01*
X103897100Y-92608161D01*
X103897100Y-92670298D01*
X103039803Y-93527596D01*
X103010799Y-93551399D01*
X102955671Y-93618574D01*
X102915826Y-93667124D01*
X102895146Y-93705814D01*
X102845254Y-93799154D01*
X102801797Y-93942415D01*
X102790800Y-94054068D01*
X102790800Y-94054078D01*
X102787124Y-94091400D01*
X102790800Y-94128723D01*
X102790801Y-100705668D01*
X102787124Y-100743000D01*
X102801798Y-100891985D01*
X102845254Y-101035246D01*
X102915826Y-101167276D01*
X102985156Y-101251754D01*
X103010800Y-101283001D01*
X103039798Y-101306799D01*
X104005100Y-102272102D01*
X104005100Y-102512308D01*
X101750650Y-102512308D01*
X101626168Y-102524568D01*
X101506470Y-102560878D01*
X101396156Y-102619843D01*
X101299465Y-102699195D01*
X101220113Y-102795886D01*
X101161148Y-102906200D01*
X101124838Y-103025898D01*
X101113630Y-103139700D01*
X100181402Y-103139700D01*
X99464400Y-102422699D01*
X99464400Y-102360561D01*
X99424626Y-102160602D01*
X99346605Y-101972244D01*
X99233337Y-101802726D01*
X99189681Y-101759070D01*
X99197500Y-101751250D01*
X99197500Y-100927000D01*
X98410750Y-100927000D01*
X98252000Y-101085750D01*
X98248928Y-101275000D01*
X98261188Y-101399482D01*
X98272975Y-101438338D01*
X98127502Y-101467274D01*
X97939144Y-101545295D01*
X97769626Y-101658563D01*
X97625463Y-101802726D01*
X97512195Y-101972244D01*
X97434174Y-102160602D01*
X97394400Y-102360561D01*
X97394400Y-102414308D01*
X96050650Y-102414308D01*
X95926168Y-102426568D01*
X95806470Y-102462878D01*
X95696156Y-102521843D01*
X95599465Y-102601195D01*
X95520113Y-102697886D01*
X95461148Y-102808200D01*
X95424838Y-102927898D01*
X95412578Y-103052380D01*
X95412578Y-104550980D01*
X95424838Y-104675462D01*
X95461148Y-104795160D01*
X95520113Y-104905474D01*
X95599465Y-105002165D01*
X95696156Y-105081517D01*
X95806470Y-105140482D01*
X95926168Y-105176792D01*
X96050650Y-105189052D01*
X96516105Y-105189052D01*
X96565026Y-105280576D01*
X96636201Y-105367302D01*
X96660000Y-105396301D01*
X96688998Y-105420099D01*
X97316282Y-106047383D01*
X97354774Y-106240898D01*
X97413493Y-106382657D01*
X97344616Y-106419473D01*
X97247925Y-106498825D01*
X97200000Y-106557222D01*
X97152075Y-106498825D01*
X97055384Y-106419473D01*
X96945070Y-106360508D01*
X96825372Y-106324198D01*
X96700890Y-106311938D01*
X96337670Y-106315010D01*
X96178920Y-106473760D01*
X96178920Y-107522780D01*
X96198920Y-107522780D01*
X96198920Y-107776780D01*
X96178920Y-107776780D01*
X96178920Y-107796780D01*
X95924920Y-107796780D01*
X95924920Y-107776780D01*
X94926700Y-107776780D01*
X94767950Y-107935530D01*
X94766166Y-108175925D01*
X94604326Y-108284063D01*
X94560389Y-108328000D01*
X94002802Y-108328000D01*
X92624812Y-106950010D01*
X94764878Y-106950010D01*
X94767950Y-107364030D01*
X94926700Y-107522780D01*
X95924920Y-107522780D01*
X95924920Y-106473760D01*
X95766170Y-106315010D01*
X95402950Y-106311938D01*
X95278468Y-106324198D01*
X95158770Y-106360508D01*
X95048456Y-106419473D01*
X94951765Y-106498825D01*
X94872413Y-106595516D01*
X94813448Y-106705830D01*
X94777138Y-106825528D01*
X94764878Y-106950010D01*
X92624812Y-106950010D01*
X89833599Y-104158798D01*
X89931252Y-104124157D01*
X90181355Y-103975178D01*
X90397588Y-103780269D01*
X90571641Y-103546920D01*
X90696825Y-103284099D01*
X90741476Y-103136890D01*
X90620155Y-102907000D01*
X89427000Y-102907000D01*
X89427000Y-102927000D01*
X89173000Y-102927000D01*
X89173000Y-102907000D01*
X89153000Y-102907000D01*
X89153000Y-102653000D01*
X89173000Y-102653000D01*
X89173000Y-102633000D01*
X89427000Y-102633000D01*
X89427000Y-102653000D01*
X90620155Y-102653000D01*
X90741476Y-102423110D01*
X90696825Y-102275901D01*
X90571641Y-102013080D01*
X90397588Y-101779731D01*
X90181355Y-101584822D01*
X90064477Y-101515201D01*
X90129014Y-101480706D01*
X90355134Y-101295134D01*
X90540706Y-101069014D01*
X90678599Y-100811034D01*
X90763513Y-100531111D01*
X90792185Y-100240000D01*
X90763513Y-99948889D01*
X90678599Y-99668966D01*
X90649967Y-99615400D01*
X90745478Y-99615400D01*
X90782800Y-99619076D01*
X90820122Y-99615400D01*
X90820133Y-99615400D01*
X90931786Y-99604403D01*
X91075047Y-99560946D01*
X91207076Y-99490374D01*
X91322801Y-99395401D01*
X91346604Y-99366397D01*
X93122402Y-97590600D01*
X93184539Y-97590600D01*
X93384498Y-97550826D01*
X93572856Y-97472805D01*
X93742374Y-97359537D01*
X93886537Y-97215374D01*
X93999805Y-97045856D01*
X94077826Y-96857498D01*
X94117600Y-96657539D01*
X94117600Y-96595402D01*
X94270202Y-96442800D01*
X95278489Y-96442800D01*
X95322426Y-96486737D01*
X95491944Y-96600005D01*
X95680302Y-96678026D01*
X95880261Y-96717800D01*
X95955499Y-96717800D01*
X98236928Y-98999231D01*
X98236928Y-99256250D01*
X98253392Y-99423408D01*
X98302150Y-99584142D01*
X98381329Y-99732275D01*
X98472667Y-99843572D01*
X98435815Y-99873815D01*
X98356463Y-99970506D01*
X98297498Y-100080820D01*
X98261188Y-100200518D01*
X98248928Y-100325000D01*
X98252000Y-100514250D01*
X98410750Y-100673000D01*
X99197500Y-100673000D01*
X99197500Y-100653000D01*
X99451500Y-100653000D01*
X99451500Y-100673000D01*
X99471500Y-100673000D01*
X99471500Y-100927000D01*
X99451500Y-100927000D01*
X99451500Y-101751250D01*
X99610250Y-101910000D01*
X99762000Y-101913072D01*
X99886482Y-101900812D01*
X100006180Y-101864502D01*
X100116494Y-101805537D01*
X100183070Y-101750900D01*
X100204725Y-101768671D01*
X100352858Y-101847850D01*
X100513592Y-101896608D01*
X100680750Y-101913072D01*
X101118250Y-101913072D01*
X101285408Y-101896608D01*
X101446142Y-101847850D01*
X101594275Y-101768671D01*
X101724115Y-101662115D01*
X101830671Y-101532275D01*
X101909850Y-101384142D01*
X101958608Y-101223408D01*
X101975072Y-101056250D01*
X101975072Y-100543750D01*
X101958608Y-100376592D01*
X101909850Y-100215858D01*
X101830671Y-100067725D01*
X101724115Y-99937885D01*
X101671952Y-99895076D01*
X101712115Y-99862115D01*
X101818671Y-99732275D01*
X101897850Y-99584142D01*
X101946608Y-99423408D01*
X101963072Y-99256250D01*
X101963072Y-98743750D01*
X101946608Y-98576592D01*
X101897850Y-98415858D01*
X101818671Y-98267725D01*
X101712115Y-98137885D01*
X101582275Y-98031329D01*
X101434142Y-97952150D01*
X101273408Y-97903392D01*
X101106250Y-97886928D01*
X100668750Y-97886928D01*
X100501592Y-97903392D01*
X100340858Y-97952150D01*
X100192725Y-98031329D01*
X100100000Y-98107426D01*
X100007275Y-98031329D01*
X99859142Y-97952150D01*
X99698408Y-97903392D01*
X99531250Y-97886928D01*
X99274231Y-97886928D01*
X97300401Y-95913100D01*
X101843202Y-91370300D01*
X101905339Y-91370300D01*
X102105298Y-91330526D01*
X102293656Y-91252505D01*
X102463174Y-91139237D01*
X102540555Y-91061856D01*
X103775600Y-92296902D01*
X103775600Y-92296902D01*
G37*
X103775600Y-92296902D02*
X103799399Y-92325901D01*
X103915124Y-92420874D01*
X103932505Y-92430165D01*
X103897100Y-92608161D01*
X103897100Y-92670298D01*
X103039803Y-93527596D01*
X103010799Y-93551399D01*
X102955671Y-93618574D01*
X102915826Y-93667124D01*
X102895146Y-93705814D01*
X102845254Y-93799154D01*
X102801797Y-93942415D01*
X102790800Y-94054068D01*
X102790800Y-94054078D01*
X102787124Y-94091400D01*
X102790800Y-94128723D01*
X102790801Y-100705668D01*
X102787124Y-100743000D01*
X102801798Y-100891985D01*
X102845254Y-101035246D01*
X102915826Y-101167276D01*
X102985156Y-101251754D01*
X103010800Y-101283001D01*
X103039798Y-101306799D01*
X104005100Y-102272102D01*
X104005100Y-102512308D01*
X101750650Y-102512308D01*
X101626168Y-102524568D01*
X101506470Y-102560878D01*
X101396156Y-102619843D01*
X101299465Y-102699195D01*
X101220113Y-102795886D01*
X101161148Y-102906200D01*
X101124838Y-103025898D01*
X101113630Y-103139700D01*
X100181402Y-103139700D01*
X99464400Y-102422699D01*
X99464400Y-102360561D01*
X99424626Y-102160602D01*
X99346605Y-101972244D01*
X99233337Y-101802726D01*
X99189681Y-101759070D01*
X99197500Y-101751250D01*
X99197500Y-100927000D01*
X98410750Y-100927000D01*
X98252000Y-101085750D01*
X98248928Y-101275000D01*
X98261188Y-101399482D01*
X98272975Y-101438338D01*
X98127502Y-101467274D01*
X97939144Y-101545295D01*
X97769626Y-101658563D01*
X97625463Y-101802726D01*
X97512195Y-101972244D01*
X97434174Y-102160602D01*
X97394400Y-102360561D01*
X97394400Y-102414308D01*
X96050650Y-102414308D01*
X95926168Y-102426568D01*
X95806470Y-102462878D01*
X95696156Y-102521843D01*
X95599465Y-102601195D01*
X95520113Y-102697886D01*
X95461148Y-102808200D01*
X95424838Y-102927898D01*
X95412578Y-103052380D01*
X95412578Y-104550980D01*
X95424838Y-104675462D01*
X95461148Y-104795160D01*
X95520113Y-104905474D01*
X95599465Y-105002165D01*
X95696156Y-105081517D01*
X95806470Y-105140482D01*
X95926168Y-105176792D01*
X96050650Y-105189052D01*
X96516105Y-105189052D01*
X96565026Y-105280576D01*
X96636201Y-105367302D01*
X96660000Y-105396301D01*
X96688998Y-105420099D01*
X97316282Y-106047383D01*
X97354774Y-106240898D01*
X97413493Y-106382657D01*
X97344616Y-106419473D01*
X97247925Y-106498825D01*
X97200000Y-106557222D01*
X97152075Y-106498825D01*
X97055384Y-106419473D01*
X96945070Y-106360508D01*
X96825372Y-106324198D01*
X96700890Y-106311938D01*
X96337670Y-106315010D01*
X96178920Y-106473760D01*
X96178920Y-107522780D01*
X96198920Y-107522780D01*
X96198920Y-107776780D01*
X96178920Y-107776780D01*
X96178920Y-107796780D01*
X95924920Y-107796780D01*
X95924920Y-107776780D01*
X94926700Y-107776780D01*
X94767950Y-107935530D01*
X94766166Y-108175925D01*
X94604326Y-108284063D01*
X94560389Y-108328000D01*
X94002802Y-108328000D01*
X92624812Y-106950010D01*
X94764878Y-106950010D01*
X94767950Y-107364030D01*
X94926700Y-107522780D01*
X95924920Y-107522780D01*
X95924920Y-106473760D01*
X95766170Y-106315010D01*
X95402950Y-106311938D01*
X95278468Y-106324198D01*
X95158770Y-106360508D01*
X95048456Y-106419473D01*
X94951765Y-106498825D01*
X94872413Y-106595516D01*
X94813448Y-106705830D01*
X94777138Y-106825528D01*
X94764878Y-106950010D01*
X92624812Y-106950010D01*
X89833599Y-104158798D01*
X89931252Y-104124157D01*
X90181355Y-103975178D01*
X90397588Y-103780269D01*
X90571641Y-103546920D01*
X90696825Y-103284099D01*
X90741476Y-103136890D01*
X90620155Y-102907000D01*
X89427000Y-102907000D01*
X89427000Y-102927000D01*
X89173000Y-102927000D01*
X89173000Y-102907000D01*
X89153000Y-102907000D01*
X89153000Y-102653000D01*
X89173000Y-102653000D01*
X89173000Y-102633000D01*
X89427000Y-102633000D01*
X89427000Y-102653000D01*
X90620155Y-102653000D01*
X90741476Y-102423110D01*
X90696825Y-102275901D01*
X90571641Y-102013080D01*
X90397588Y-101779731D01*
X90181355Y-101584822D01*
X90064477Y-101515201D01*
X90129014Y-101480706D01*
X90355134Y-101295134D01*
X90540706Y-101069014D01*
X90678599Y-100811034D01*
X90763513Y-100531111D01*
X90792185Y-100240000D01*
X90763513Y-99948889D01*
X90678599Y-99668966D01*
X90649967Y-99615400D01*
X90745478Y-99615400D01*
X90782800Y-99619076D01*
X90820122Y-99615400D01*
X90820133Y-99615400D01*
X90931786Y-99604403D01*
X91075047Y-99560946D01*
X91207076Y-99490374D01*
X91322801Y-99395401D01*
X91346604Y-99366397D01*
X93122402Y-97590600D01*
X93184539Y-97590600D01*
X93384498Y-97550826D01*
X93572856Y-97472805D01*
X93742374Y-97359537D01*
X93886537Y-97215374D01*
X93999805Y-97045856D01*
X94077826Y-96857498D01*
X94117600Y-96657539D01*
X94117600Y-96595402D01*
X94270202Y-96442800D01*
X95278489Y-96442800D01*
X95322426Y-96486737D01*
X95491944Y-96600005D01*
X95680302Y-96678026D01*
X95880261Y-96717800D01*
X95955499Y-96717800D01*
X98236928Y-98999231D01*
X98236928Y-99256250D01*
X98253392Y-99423408D01*
X98302150Y-99584142D01*
X98381329Y-99732275D01*
X98472667Y-99843572D01*
X98435815Y-99873815D01*
X98356463Y-99970506D01*
X98297498Y-100080820D01*
X98261188Y-100200518D01*
X98248928Y-100325000D01*
X98252000Y-100514250D01*
X98410750Y-100673000D01*
X99197500Y-100673000D01*
X99197500Y-100653000D01*
X99451500Y-100653000D01*
X99451500Y-100673000D01*
X99471500Y-100673000D01*
X99471500Y-100927000D01*
X99451500Y-100927000D01*
X99451500Y-101751250D01*
X99610250Y-101910000D01*
X99762000Y-101913072D01*
X99886482Y-101900812D01*
X100006180Y-101864502D01*
X100116494Y-101805537D01*
X100183070Y-101750900D01*
X100204725Y-101768671D01*
X100352858Y-101847850D01*
X100513592Y-101896608D01*
X100680750Y-101913072D01*
X101118250Y-101913072D01*
X101285408Y-101896608D01*
X101446142Y-101847850D01*
X101594275Y-101768671D01*
X101724115Y-101662115D01*
X101830671Y-101532275D01*
X101909850Y-101384142D01*
X101958608Y-101223408D01*
X101975072Y-101056250D01*
X101975072Y-100543750D01*
X101958608Y-100376592D01*
X101909850Y-100215858D01*
X101830671Y-100067725D01*
X101724115Y-99937885D01*
X101671952Y-99895076D01*
X101712115Y-99862115D01*
X101818671Y-99732275D01*
X101897850Y-99584142D01*
X101946608Y-99423408D01*
X101963072Y-99256250D01*
X101963072Y-98743750D01*
X101946608Y-98576592D01*
X101897850Y-98415858D01*
X101818671Y-98267725D01*
X101712115Y-98137885D01*
X101582275Y-98031329D01*
X101434142Y-97952150D01*
X101273408Y-97903392D01*
X101106250Y-97886928D01*
X100668750Y-97886928D01*
X100501592Y-97903392D01*
X100340858Y-97952150D01*
X100192725Y-98031329D01*
X100100000Y-98107426D01*
X100007275Y-98031329D01*
X99859142Y-97952150D01*
X99698408Y-97903392D01*
X99531250Y-97886928D01*
X99274231Y-97886928D01*
X97300401Y-95913100D01*
X101843202Y-91370300D01*
X101905339Y-91370300D01*
X102105298Y-91330526D01*
X102293656Y-91252505D01*
X102463174Y-91139237D01*
X102540555Y-91061856D01*
X103775600Y-92296902D01*
G36*
X110827000Y-101053000D02*
G01*
X110847000Y-101053000D01*
X110847000Y-101307000D01*
X110827000Y-101307000D01*
X110827000Y-101327000D01*
X110573000Y-101327000D01*
X110573000Y-101307000D01*
X110553000Y-101307000D01*
X110553000Y-101053000D01*
X110573000Y-101053000D01*
X110573000Y-101033000D01*
X110827000Y-101033000D01*
X110827000Y-101053000D01*
X110827000Y-101053000D01*
G37*
X110827000Y-101053000D02*
X110847000Y-101053000D01*
X110847000Y-101307000D01*
X110827000Y-101307000D01*
X110827000Y-101327000D01*
X110573000Y-101327000D01*
X110573000Y-101307000D01*
X110553000Y-101307000D01*
X110553000Y-101053000D01*
X110573000Y-101053000D01*
X110573000Y-101033000D01*
X110827000Y-101033000D01*
X110827000Y-101053000D01*
G36*
X93298099Y-88754200D02*
G01*
X90484115Y-88754200D01*
X90494512Y-88734749D01*
X90574394Y-88471413D01*
X90601367Y-88197554D01*
X90599304Y-88176606D01*
X90819573Y-88165355D01*
X91085199Y-88098270D01*
X91326813Y-87983505D01*
X91392977Y-87744100D01*
X90514241Y-86865364D01*
X90500099Y-86879507D01*
X90320494Y-86699902D01*
X90334636Y-86685759D01*
X90320494Y-86671617D01*
X90500099Y-86492012D01*
X90514241Y-86506154D01*
X90528384Y-86492012D01*
X90707989Y-86671617D01*
X90693846Y-86685759D01*
X91572582Y-87564495D01*
X91811987Y-87498331D01*
X91926752Y-87256717D01*
X91993837Y-86991091D01*
X92007812Y-86717482D01*
X91968140Y-86446403D01*
X91876346Y-86188273D01*
X91859474Y-86160000D01*
X95892298Y-86160000D01*
X93298099Y-88754200D01*
X93298099Y-88754200D01*
G37*
X93298099Y-88754200D02*
X90484115Y-88754200D01*
X90494512Y-88734749D01*
X90574394Y-88471413D01*
X90601367Y-88197554D01*
X90599304Y-88176606D01*
X90819573Y-88165355D01*
X91085199Y-88098270D01*
X91326813Y-87983505D01*
X91392977Y-87744100D01*
X90514241Y-86865364D01*
X90500099Y-86879507D01*
X90320494Y-86699902D01*
X90334636Y-86685759D01*
X90320494Y-86671617D01*
X90500099Y-86492012D01*
X90514241Y-86506154D01*
X90528384Y-86492012D01*
X90707989Y-86671617D01*
X90693846Y-86685759D01*
X91572582Y-87564495D01*
X91811987Y-87498331D01*
X91926752Y-87256717D01*
X91993837Y-86991091D01*
X92007812Y-86717482D01*
X91968140Y-86446403D01*
X91876346Y-86188273D01*
X91859474Y-86160000D01*
X95892298Y-86160000D01*
X93298099Y-88754200D01*
M02*
