G04 #@! TF.GenerationSoftware,KiCad,Pcbnew,(5.1.2)-1*
G04 #@! TF.CreationDate,2021-01-06T23:16:40+09:00*
G04 #@! TF.ProjectId,ssl,73736c2e-6b69-4636-9164-5f7063625858,v1.3*
G04 #@! TF.SameCoordinates,Original*
G04 #@! TF.FileFunction,Soldermask,Bot*
G04 #@! TF.FilePolarity,Negative*
%FSLAX46Y46*%
G04 Gerber Fmt 4.6, Leading zero omitted, Abs format (unit mm)*
G04 Created by KiCad (PCBNEW (5.1.2)-1) date 2021-01-06 23:16:40*
%MOMM*%
%LPD*%
G04 APERTURE LIST*
%ADD10C,0.100000*%
G04 APERTURE END LIST*
D10*
G36*
X100251874Y-117169683D02*
G01*
X100409019Y-117234775D01*
X100409021Y-117234776D01*
X100550449Y-117329276D01*
X100670724Y-117449551D01*
X100670725Y-117449553D01*
X100765225Y-117590981D01*
X100830317Y-117748126D01*
X100863500Y-117914951D01*
X100863500Y-118085049D01*
X100830317Y-118251874D01*
X100765225Y-118409019D01*
X100765224Y-118409021D01*
X100670724Y-118550449D01*
X100550449Y-118670724D01*
X100409021Y-118765224D01*
X100409020Y-118765225D01*
X100409019Y-118765225D01*
X100251874Y-118830317D01*
X100085049Y-118863500D01*
X99914951Y-118863500D01*
X99748126Y-118830317D01*
X99590981Y-118765225D01*
X99590980Y-118765225D01*
X99590979Y-118765224D01*
X99449551Y-118670724D01*
X99329276Y-118550449D01*
X99234776Y-118409021D01*
X99234775Y-118409019D01*
X99169683Y-118251874D01*
X99136500Y-118085049D01*
X99136500Y-117914951D01*
X99169683Y-117748126D01*
X99234775Y-117590981D01*
X99329275Y-117449553D01*
X99329276Y-117449551D01*
X99449551Y-117329276D01*
X99590979Y-117234776D01*
X99590981Y-117234775D01*
X99748126Y-117169683D01*
X99914951Y-117136500D01*
X100085049Y-117136500D01*
X100251874Y-117169683D01*
X100251874Y-117169683D01*
G37*
G36*
X112424549Y-111071116D02*
G01*
X112535734Y-111093232D01*
X112745203Y-111179997D01*
X112933720Y-111305960D01*
X113094040Y-111466280D01*
X113220003Y-111654797D01*
X113220004Y-111654799D01*
X113306768Y-111864267D01*
X113351000Y-112086635D01*
X113351000Y-112313365D01*
X113328884Y-112424549D01*
X113306768Y-112535734D01*
X113220003Y-112745203D01*
X113094040Y-112933720D01*
X112933720Y-113094040D01*
X112745203Y-113220003D01*
X112535734Y-113306768D01*
X112439048Y-113326000D01*
X112313365Y-113351000D01*
X112086635Y-113351000D01*
X111960952Y-113326000D01*
X111864266Y-113306768D01*
X111654797Y-113220003D01*
X111466280Y-113094040D01*
X111305960Y-112933720D01*
X111179997Y-112745203D01*
X111093232Y-112535734D01*
X111071116Y-112424549D01*
X111049000Y-112313365D01*
X111049000Y-112086635D01*
X111093232Y-111864267D01*
X111179996Y-111654799D01*
X111179997Y-111654797D01*
X111305960Y-111466280D01*
X111466280Y-111305960D01*
X111654797Y-111179997D01*
X111864266Y-111093232D01*
X111975451Y-111071116D01*
X112086635Y-111049000D01*
X112313365Y-111049000D01*
X112424549Y-111071116D01*
X112424549Y-111071116D01*
G37*
G36*
X88124549Y-111071116D02*
G01*
X88235734Y-111093232D01*
X88445203Y-111179997D01*
X88633720Y-111305960D01*
X88794040Y-111466280D01*
X88920003Y-111654797D01*
X88920004Y-111654799D01*
X89006768Y-111864267D01*
X89051000Y-112086635D01*
X89051000Y-112313365D01*
X89028884Y-112424549D01*
X89006768Y-112535734D01*
X88920003Y-112745203D01*
X88794040Y-112933720D01*
X88633720Y-113094040D01*
X88445203Y-113220003D01*
X88235734Y-113306768D01*
X88139048Y-113326000D01*
X88013365Y-113351000D01*
X87786635Y-113351000D01*
X87660952Y-113326000D01*
X87564266Y-113306768D01*
X87354797Y-113220003D01*
X87166280Y-113094040D01*
X87005960Y-112933720D01*
X86879997Y-112745203D01*
X86793232Y-112535734D01*
X86771116Y-112424549D01*
X86749000Y-112313365D01*
X86749000Y-112086635D01*
X86793232Y-111864267D01*
X86879996Y-111654799D01*
X86879997Y-111654797D01*
X87005960Y-111466280D01*
X87166280Y-111305960D01*
X87354797Y-111179997D01*
X87564266Y-111093232D01*
X87675451Y-111071116D01*
X87786635Y-111049000D01*
X88013365Y-111049000D01*
X88124549Y-111071116D01*
X88124549Y-111071116D01*
G37*
G36*
X101129591Y-112278085D02*
G01*
X101163569Y-112288393D01*
X101194890Y-112305134D01*
X101222339Y-112327661D01*
X101244866Y-112355110D01*
X101261607Y-112386431D01*
X101271915Y-112420409D01*
X101276000Y-112461890D01*
X101276000Y-113138110D01*
X101271915Y-113179591D01*
X101261607Y-113213569D01*
X101244866Y-113244890D01*
X101222339Y-113272339D01*
X101194890Y-113294866D01*
X101163569Y-113311607D01*
X101129591Y-113321915D01*
X101088110Y-113326000D01*
X100486890Y-113326000D01*
X100445409Y-113321915D01*
X100411431Y-113311607D01*
X100380110Y-113294866D01*
X100352661Y-113272339D01*
X100330134Y-113244890D01*
X100313393Y-113213569D01*
X100303085Y-113179591D01*
X100299000Y-113138110D01*
X100299000Y-112461890D01*
X100303085Y-112420409D01*
X100313393Y-112386431D01*
X100330134Y-112355110D01*
X100352661Y-112327661D01*
X100380110Y-112305134D01*
X100411431Y-112288393D01*
X100445409Y-112278085D01*
X100486890Y-112274000D01*
X101088110Y-112274000D01*
X101129591Y-112278085D01*
X101129591Y-112278085D01*
G37*
G36*
X99554591Y-112278085D02*
G01*
X99588569Y-112288393D01*
X99619890Y-112305134D01*
X99647339Y-112327661D01*
X99669866Y-112355110D01*
X99686607Y-112386431D01*
X99696915Y-112420409D01*
X99701000Y-112461890D01*
X99701000Y-113138110D01*
X99696915Y-113179591D01*
X99686607Y-113213569D01*
X99669866Y-113244890D01*
X99647339Y-113272339D01*
X99619890Y-113294866D01*
X99588569Y-113311607D01*
X99554591Y-113321915D01*
X99513110Y-113326000D01*
X98911890Y-113326000D01*
X98870409Y-113321915D01*
X98836431Y-113311607D01*
X98805110Y-113294866D01*
X98777661Y-113272339D01*
X98755134Y-113244890D01*
X98738393Y-113213569D01*
X98728085Y-113179591D01*
X98724000Y-113138110D01*
X98724000Y-112461890D01*
X98728085Y-112420409D01*
X98738393Y-112386431D01*
X98755134Y-112355110D01*
X98777661Y-112327661D01*
X98805110Y-112305134D01*
X98836431Y-112288393D01*
X98870409Y-112278085D01*
X98911890Y-112274000D01*
X99513110Y-112274000D01*
X99554591Y-112278085D01*
X99554591Y-112278085D01*
G37*
G36*
X108551977Y-108918855D02*
G01*
X108585955Y-108929163D01*
X108617276Y-108945904D01*
X108649490Y-108972342D01*
X108689341Y-109012193D01*
X108689347Y-109012198D01*
X109087802Y-109410653D01*
X109087807Y-109410659D01*
X109127658Y-109450510D01*
X109154096Y-109482724D01*
X109170837Y-109514045D01*
X109181145Y-109548023D01*
X109184625Y-109583364D01*
X109181145Y-109618705D01*
X109170837Y-109652683D01*
X109154096Y-109684004D01*
X109127658Y-109716218D01*
X109087807Y-109756069D01*
X109087802Y-109756075D01*
X108742381Y-110101496D01*
X108742375Y-110101501D01*
X108702524Y-110141352D01*
X108670310Y-110167790D01*
X108638989Y-110184531D01*
X108605011Y-110194839D01*
X108569670Y-110198319D01*
X108534329Y-110194839D01*
X108500351Y-110184531D01*
X108469030Y-110167790D01*
X108436816Y-110141352D01*
X108396965Y-110101501D01*
X108396959Y-110101496D01*
X107998504Y-109703041D01*
X107998499Y-109703035D01*
X107958648Y-109663184D01*
X107932210Y-109630970D01*
X107915469Y-109599649D01*
X107905161Y-109565671D01*
X107901681Y-109530330D01*
X107905161Y-109494989D01*
X107915469Y-109461011D01*
X107932210Y-109429690D01*
X107958648Y-109397476D01*
X107998499Y-109357625D01*
X107998504Y-109357619D01*
X108343925Y-109012198D01*
X108343931Y-109012193D01*
X108383782Y-108972342D01*
X108415996Y-108945904D01*
X108447317Y-108929163D01*
X108481295Y-108918855D01*
X108516636Y-108915375D01*
X108551977Y-108918855D01*
X108551977Y-108918855D01*
G37*
G36*
X91418705Y-108818855D02*
G01*
X91452683Y-108829163D01*
X91484004Y-108845904D01*
X91516218Y-108872342D01*
X91556069Y-108912193D01*
X91556075Y-108912198D01*
X91901496Y-109257619D01*
X91901501Y-109257625D01*
X91941352Y-109297476D01*
X91967790Y-109329690D01*
X91984531Y-109361011D01*
X91994839Y-109394989D01*
X91998319Y-109430330D01*
X91994839Y-109465671D01*
X91984531Y-109499649D01*
X91967790Y-109530970D01*
X91941352Y-109563184D01*
X91901501Y-109603035D01*
X91901496Y-109603041D01*
X91503041Y-110001496D01*
X91503035Y-110001501D01*
X91463184Y-110041352D01*
X91430970Y-110067790D01*
X91399649Y-110084531D01*
X91365671Y-110094839D01*
X91330330Y-110098319D01*
X91294989Y-110094839D01*
X91261011Y-110084531D01*
X91229690Y-110067790D01*
X91197476Y-110041352D01*
X91157625Y-110001501D01*
X91157619Y-110001496D01*
X90812198Y-109656075D01*
X90812193Y-109656069D01*
X90772342Y-109616218D01*
X90745904Y-109584004D01*
X90729163Y-109552683D01*
X90718855Y-109518705D01*
X90715375Y-109483364D01*
X90718855Y-109448023D01*
X90729163Y-109414045D01*
X90745904Y-109382724D01*
X90772342Y-109350510D01*
X90812193Y-109310659D01*
X90812198Y-109310653D01*
X91210653Y-108912198D01*
X91210659Y-108912193D01*
X91250510Y-108872342D01*
X91282724Y-108845904D01*
X91314045Y-108829163D01*
X91348023Y-108818855D01*
X91383364Y-108815375D01*
X91418705Y-108818855D01*
X91418705Y-108818855D01*
G37*
G36*
X109665671Y-107805161D02*
G01*
X109699649Y-107815469D01*
X109730970Y-107832210D01*
X109763184Y-107858648D01*
X109803035Y-107898499D01*
X109803041Y-107898504D01*
X110201496Y-108296959D01*
X110201501Y-108296965D01*
X110241352Y-108336816D01*
X110267790Y-108369030D01*
X110284531Y-108400351D01*
X110294839Y-108434329D01*
X110298319Y-108469670D01*
X110294839Y-108505011D01*
X110284531Y-108538989D01*
X110267790Y-108570310D01*
X110241352Y-108602524D01*
X110201501Y-108642375D01*
X110201496Y-108642381D01*
X109856075Y-108987802D01*
X109856069Y-108987807D01*
X109816218Y-109027658D01*
X109784004Y-109054096D01*
X109752683Y-109070837D01*
X109718705Y-109081145D01*
X109683364Y-109084625D01*
X109648023Y-109081145D01*
X109614045Y-109070837D01*
X109582724Y-109054096D01*
X109550510Y-109027658D01*
X109510659Y-108987807D01*
X109510653Y-108987802D01*
X109112198Y-108589347D01*
X109112193Y-108589341D01*
X109072342Y-108549490D01*
X109045904Y-108517276D01*
X109029163Y-108485955D01*
X109018855Y-108451977D01*
X109015375Y-108416636D01*
X109018855Y-108381295D01*
X109029163Y-108347317D01*
X109045904Y-108315996D01*
X109072342Y-108283782D01*
X109112193Y-108243931D01*
X109112198Y-108243925D01*
X109457619Y-107898504D01*
X109457625Y-107898499D01*
X109497476Y-107858648D01*
X109529690Y-107832210D01*
X109561011Y-107815469D01*
X109594989Y-107805161D01*
X109630330Y-107801681D01*
X109665671Y-107805161D01*
X109665671Y-107805161D01*
G37*
G36*
X90305011Y-107705161D02*
G01*
X90338989Y-107715469D01*
X90370310Y-107732210D01*
X90402524Y-107758648D01*
X90442375Y-107798499D01*
X90442381Y-107798504D01*
X90787802Y-108143925D01*
X90787807Y-108143931D01*
X90827658Y-108183782D01*
X90854096Y-108215996D01*
X90870837Y-108247317D01*
X90881145Y-108281295D01*
X90884625Y-108316636D01*
X90881145Y-108351977D01*
X90870837Y-108385955D01*
X90854096Y-108417276D01*
X90827658Y-108449490D01*
X90787807Y-108489341D01*
X90787802Y-108489347D01*
X90389347Y-108887802D01*
X90389341Y-108887807D01*
X90349490Y-108927658D01*
X90317276Y-108954096D01*
X90285955Y-108970837D01*
X90251977Y-108981145D01*
X90216636Y-108984625D01*
X90181295Y-108981145D01*
X90147317Y-108970837D01*
X90115996Y-108954096D01*
X90083782Y-108927658D01*
X90043931Y-108887807D01*
X90043925Y-108887802D01*
X89698504Y-108542381D01*
X89698499Y-108542375D01*
X89658648Y-108502524D01*
X89632210Y-108470310D01*
X89615469Y-108438989D01*
X89605161Y-108405011D01*
X89601681Y-108369670D01*
X89605161Y-108334329D01*
X89615469Y-108300351D01*
X89632210Y-108269030D01*
X89658648Y-108236816D01*
X89698499Y-108196965D01*
X89698504Y-108196959D01*
X90096959Y-107798504D01*
X90096965Y-107798499D01*
X90136816Y-107758648D01*
X90169030Y-107732210D01*
X90200351Y-107715469D01*
X90234329Y-107705161D01*
X90269670Y-107701681D01*
X90305011Y-107705161D01*
X90305011Y-107705161D01*
G37*
G36*
X102451890Y-108498550D02*
G01*
X101051950Y-108498550D01*
X101051950Y-106997010D01*
X102451890Y-106997010D01*
X102451890Y-108498550D01*
X102451890Y-108498550D01*
G37*
G36*
X104748050Y-108498550D02*
G01*
X103348110Y-108498550D01*
X103348110Y-106997010D01*
X104748050Y-106997010D01*
X104748050Y-108498550D01*
X104748050Y-108498550D01*
G37*
G36*
X99048050Y-108400550D02*
G01*
X97648110Y-108400550D01*
X97648110Y-106899010D01*
X99048050Y-106899010D01*
X99048050Y-108400550D01*
X99048050Y-108400550D01*
G37*
G36*
X96751890Y-108400550D02*
G01*
X95351950Y-108400550D01*
X95351950Y-106899010D01*
X96751890Y-106899010D01*
X96751890Y-108400550D01*
X96751890Y-108400550D01*
G37*
G36*
X104100350Y-104699980D02*
G01*
X101699650Y-104699980D01*
X101699650Y-103099380D01*
X104100350Y-103099380D01*
X104100350Y-104699980D01*
X104100350Y-104699980D01*
G37*
G36*
X110810443Y-102825519D02*
G01*
X110876627Y-102832037D01*
X111046466Y-102883557D01*
X111202991Y-102967222D01*
X111238729Y-102996552D01*
X111340186Y-103079814D01*
X111423448Y-103181271D01*
X111452778Y-103217009D01*
X111536443Y-103373534D01*
X111587963Y-103543373D01*
X111605359Y-103720000D01*
X111587963Y-103896627D01*
X111536443Y-104066466D01*
X111452778Y-104222991D01*
X111423448Y-104258729D01*
X111340186Y-104360186D01*
X111238729Y-104443448D01*
X111202991Y-104472778D01*
X111046466Y-104556443D01*
X110876627Y-104607963D01*
X110810442Y-104614482D01*
X110744260Y-104621000D01*
X110655740Y-104621000D01*
X110589558Y-104614482D01*
X110523373Y-104607963D01*
X110353534Y-104556443D01*
X110197009Y-104472778D01*
X110161271Y-104443448D01*
X110059814Y-104360186D01*
X109976552Y-104258729D01*
X109947222Y-104222991D01*
X109863557Y-104066466D01*
X109812037Y-103896627D01*
X109794641Y-103720000D01*
X109812037Y-103543373D01*
X109863557Y-103373534D01*
X109947222Y-103217009D01*
X109976552Y-103181271D01*
X110059814Y-103079814D01*
X110161271Y-102996552D01*
X110197009Y-102967222D01*
X110353534Y-102883557D01*
X110523373Y-102832037D01*
X110589558Y-102825518D01*
X110655740Y-102819000D01*
X110744260Y-102819000D01*
X110810443Y-102825519D01*
X110810443Y-102825519D01*
G37*
G36*
X98400350Y-104601980D02*
G01*
X95999650Y-104601980D01*
X95999650Y-103001380D01*
X98400350Y-103001380D01*
X98400350Y-104601980D01*
X98400350Y-104601980D01*
G37*
G36*
X89410442Y-101885518D02*
G01*
X89476627Y-101892037D01*
X89646466Y-101943557D01*
X89802991Y-102027222D01*
X89838729Y-102056552D01*
X89940186Y-102139814D01*
X90023448Y-102241271D01*
X90052778Y-102277009D01*
X90136443Y-102433534D01*
X90187963Y-102603373D01*
X90205359Y-102780000D01*
X90187963Y-102956627D01*
X90136443Y-103126466D01*
X90052778Y-103282991D01*
X90023448Y-103318729D01*
X89940186Y-103420186D01*
X89838729Y-103503448D01*
X89802991Y-103532778D01*
X89646466Y-103616443D01*
X89476627Y-103667963D01*
X89410442Y-103674482D01*
X89344260Y-103681000D01*
X89255740Y-103681000D01*
X89189558Y-103674482D01*
X89123373Y-103667963D01*
X88953534Y-103616443D01*
X88797009Y-103532778D01*
X88761271Y-103503448D01*
X88659814Y-103420186D01*
X88576552Y-103318729D01*
X88547222Y-103282991D01*
X88463557Y-103126466D01*
X88412037Y-102956627D01*
X88394641Y-102780000D01*
X88412037Y-102603373D01*
X88463557Y-102433534D01*
X88547222Y-102277009D01*
X88576552Y-102241271D01*
X88659814Y-102139814D01*
X88761271Y-102056552D01*
X88797009Y-102027222D01*
X88953534Y-101943557D01*
X89123373Y-101892037D01*
X89189558Y-101885518D01*
X89255740Y-101879000D01*
X89344260Y-101879000D01*
X89410442Y-101885518D01*
X89410442Y-101885518D01*
G37*
G36*
X110810443Y-100285519D02*
G01*
X110876627Y-100292037D01*
X111046466Y-100343557D01*
X111202991Y-100427222D01*
X111230478Y-100449780D01*
X111340186Y-100539814D01*
X111423448Y-100641271D01*
X111452778Y-100677009D01*
X111452779Y-100677011D01*
X111534724Y-100830317D01*
X111536443Y-100833534D01*
X111587963Y-101003373D01*
X111605359Y-101180000D01*
X111587963Y-101356627D01*
X111536443Y-101526466D01*
X111452778Y-101682991D01*
X111423448Y-101718729D01*
X111340186Y-101820186D01*
X111252634Y-101892037D01*
X111202991Y-101932778D01*
X111046466Y-102016443D01*
X110876627Y-102067963D01*
X110810443Y-102074481D01*
X110744260Y-102081000D01*
X110655740Y-102081000D01*
X110589558Y-102074482D01*
X110523373Y-102067963D01*
X110353534Y-102016443D01*
X110197009Y-101932778D01*
X110147366Y-101892037D01*
X110059814Y-101820186D01*
X109976552Y-101718729D01*
X109947222Y-101682991D01*
X109863557Y-101526466D01*
X109812037Y-101356627D01*
X109794641Y-101180000D01*
X109812037Y-101003373D01*
X109863557Y-100833534D01*
X109865277Y-100830317D01*
X109947221Y-100677011D01*
X109947222Y-100677009D01*
X109976552Y-100641271D01*
X110059814Y-100539814D01*
X110169522Y-100449780D01*
X110197009Y-100427222D01*
X110353534Y-100343557D01*
X110523373Y-100292037D01*
X110589557Y-100285519D01*
X110655740Y-100279000D01*
X110744260Y-100279000D01*
X110810443Y-100285519D01*
X110810443Y-100285519D01*
G37*
G36*
X99666591Y-100278085D02*
G01*
X99700569Y-100288393D01*
X99731890Y-100305134D01*
X99759339Y-100327661D01*
X99781866Y-100355110D01*
X99798607Y-100386431D01*
X99808915Y-100420409D01*
X99813000Y-100461890D01*
X99813000Y-101138110D01*
X99808915Y-101179591D01*
X99798607Y-101213569D01*
X99781866Y-101244890D01*
X99759339Y-101272339D01*
X99731890Y-101294866D01*
X99700569Y-101311607D01*
X99666591Y-101321915D01*
X99625110Y-101326000D01*
X99023890Y-101326000D01*
X98982409Y-101321915D01*
X98948431Y-101311607D01*
X98917110Y-101294866D01*
X98889661Y-101272339D01*
X98867134Y-101244890D01*
X98850393Y-101213569D01*
X98840085Y-101179591D01*
X98836000Y-101138110D01*
X98836000Y-100461890D01*
X98840085Y-100420409D01*
X98850393Y-100386431D01*
X98867134Y-100355110D01*
X98889661Y-100327661D01*
X98917110Y-100305134D01*
X98948431Y-100288393D01*
X98982409Y-100278085D01*
X99023890Y-100274000D01*
X99625110Y-100274000D01*
X99666591Y-100278085D01*
X99666591Y-100278085D01*
G37*
G36*
X101241591Y-100278085D02*
G01*
X101275569Y-100288393D01*
X101306890Y-100305134D01*
X101334339Y-100327661D01*
X101356866Y-100355110D01*
X101373607Y-100386431D01*
X101383915Y-100420409D01*
X101388000Y-100461890D01*
X101388000Y-101138110D01*
X101383915Y-101179591D01*
X101373607Y-101213569D01*
X101356866Y-101244890D01*
X101334339Y-101272339D01*
X101306890Y-101294866D01*
X101275569Y-101311607D01*
X101241591Y-101321915D01*
X101200110Y-101326000D01*
X100598890Y-101326000D01*
X100557409Y-101321915D01*
X100523431Y-101311607D01*
X100492110Y-101294866D01*
X100464661Y-101272339D01*
X100442134Y-101244890D01*
X100425393Y-101213569D01*
X100415085Y-101179591D01*
X100411000Y-101138110D01*
X100411000Y-100461890D01*
X100415085Y-100420409D01*
X100425393Y-100386431D01*
X100442134Y-100355110D01*
X100464661Y-100327661D01*
X100492110Y-100305134D01*
X100523431Y-100288393D01*
X100557409Y-100278085D01*
X100598890Y-100274000D01*
X101200110Y-100274000D01*
X101241591Y-100278085D01*
X101241591Y-100278085D01*
G37*
G36*
X113379591Y-100303085D02*
G01*
X113413569Y-100313393D01*
X113444890Y-100330134D01*
X113472339Y-100352661D01*
X113494866Y-100380110D01*
X113511607Y-100411431D01*
X113521915Y-100445409D01*
X113526000Y-100486890D01*
X113526000Y-101088110D01*
X113521915Y-101129591D01*
X113511607Y-101163569D01*
X113494866Y-101194890D01*
X113472339Y-101222339D01*
X113444890Y-101244866D01*
X113413569Y-101261607D01*
X113379591Y-101271915D01*
X113338110Y-101276000D01*
X112661890Y-101276000D01*
X112620409Y-101271915D01*
X112586431Y-101261607D01*
X112555110Y-101244866D01*
X112527661Y-101222339D01*
X112505134Y-101194890D01*
X112488393Y-101163569D01*
X112478085Y-101129591D01*
X112474000Y-101088110D01*
X112474000Y-100486890D01*
X112478085Y-100445409D01*
X112488393Y-100411431D01*
X112505134Y-100380110D01*
X112527661Y-100352661D01*
X112555110Y-100330134D01*
X112586431Y-100313393D01*
X112620409Y-100303085D01*
X112661890Y-100299000D01*
X113338110Y-100299000D01*
X113379591Y-100303085D01*
X113379591Y-100303085D01*
G37*
G36*
X87579591Y-100303085D02*
G01*
X87613569Y-100313393D01*
X87644890Y-100330134D01*
X87672339Y-100352661D01*
X87694866Y-100380110D01*
X87711607Y-100411431D01*
X87721915Y-100445409D01*
X87726000Y-100486890D01*
X87726000Y-101088110D01*
X87721915Y-101129591D01*
X87711607Y-101163569D01*
X87694866Y-101194890D01*
X87672339Y-101222339D01*
X87644890Y-101244866D01*
X87613569Y-101261607D01*
X87579591Y-101271915D01*
X87538110Y-101276000D01*
X86861890Y-101276000D01*
X86820409Y-101271915D01*
X86786431Y-101261607D01*
X86755110Y-101244866D01*
X86727661Y-101222339D01*
X86705134Y-101194890D01*
X86688393Y-101163569D01*
X86678085Y-101129591D01*
X86674000Y-101088110D01*
X86674000Y-100486890D01*
X86678085Y-100445409D01*
X86688393Y-100411431D01*
X86705134Y-100380110D01*
X86727661Y-100352661D01*
X86755110Y-100330134D01*
X86786431Y-100313393D01*
X86820409Y-100303085D01*
X86861890Y-100299000D01*
X87538110Y-100299000D01*
X87579591Y-100303085D01*
X87579591Y-100303085D01*
G37*
G36*
X89410443Y-99345519D02*
G01*
X89476627Y-99352037D01*
X89646466Y-99403557D01*
X89802991Y-99487222D01*
X89832704Y-99511607D01*
X89940186Y-99599814D01*
X90023226Y-99701000D01*
X90052778Y-99737009D01*
X90136443Y-99893534D01*
X90187963Y-100063373D01*
X90205359Y-100240000D01*
X90187963Y-100416627D01*
X90136443Y-100586466D01*
X90052778Y-100742991D01*
X90034531Y-100765225D01*
X89940186Y-100880186D01*
X89838729Y-100963448D01*
X89802991Y-100992778D01*
X89646466Y-101076443D01*
X89476627Y-101127963D01*
X89410443Y-101134481D01*
X89344260Y-101141000D01*
X89255740Y-101141000D01*
X89189557Y-101134481D01*
X89123373Y-101127963D01*
X88953534Y-101076443D01*
X88797009Y-100992778D01*
X88761271Y-100963448D01*
X88659814Y-100880186D01*
X88565469Y-100765225D01*
X88547222Y-100742991D01*
X88463557Y-100586466D01*
X88412037Y-100416627D01*
X88394641Y-100240000D01*
X88412037Y-100063373D01*
X88463557Y-99893534D01*
X88547222Y-99737009D01*
X88576774Y-99701000D01*
X88659814Y-99599814D01*
X88767296Y-99511607D01*
X88797009Y-99487222D01*
X88953534Y-99403557D01*
X89123373Y-99352037D01*
X89189557Y-99345519D01*
X89255740Y-99339000D01*
X89344260Y-99339000D01*
X89410443Y-99345519D01*
X89410443Y-99345519D01*
G37*
G36*
X118251874Y-99169683D02*
G01*
X118409019Y-99234775D01*
X118409021Y-99234776D01*
X118550449Y-99329276D01*
X118670724Y-99449551D01*
X118765224Y-99590979D01*
X118765225Y-99590981D01*
X118830317Y-99748126D01*
X118863500Y-99914951D01*
X118863500Y-100085049D01*
X118830317Y-100251874D01*
X118765225Y-100409019D01*
X118765224Y-100409021D01*
X118670724Y-100550449D01*
X118550449Y-100670724D01*
X118409021Y-100765224D01*
X118409020Y-100765225D01*
X118409019Y-100765225D01*
X118251874Y-100830317D01*
X118085049Y-100863500D01*
X117914951Y-100863500D01*
X117748126Y-100830317D01*
X117590981Y-100765225D01*
X117590980Y-100765225D01*
X117590979Y-100765224D01*
X117449551Y-100670724D01*
X117329276Y-100550449D01*
X117234776Y-100409021D01*
X117234775Y-100409019D01*
X117169683Y-100251874D01*
X117136500Y-100085049D01*
X117136500Y-99914951D01*
X117169683Y-99748126D01*
X117234775Y-99590981D01*
X117234776Y-99590979D01*
X117329276Y-99449551D01*
X117449551Y-99329276D01*
X117590979Y-99234776D01*
X117590981Y-99234775D01*
X117748126Y-99169683D01*
X117914951Y-99136500D01*
X118085049Y-99136500D01*
X118251874Y-99169683D01*
X118251874Y-99169683D01*
G37*
G36*
X82251874Y-99169683D02*
G01*
X82409019Y-99234775D01*
X82409021Y-99234776D01*
X82550449Y-99329276D01*
X82670724Y-99449551D01*
X82765224Y-99590979D01*
X82765225Y-99590981D01*
X82830317Y-99748126D01*
X82863500Y-99914951D01*
X82863500Y-100085049D01*
X82830317Y-100251874D01*
X82765225Y-100409019D01*
X82765224Y-100409021D01*
X82670724Y-100550449D01*
X82550449Y-100670724D01*
X82409021Y-100765224D01*
X82409020Y-100765225D01*
X82409019Y-100765225D01*
X82251874Y-100830317D01*
X82085049Y-100863500D01*
X81914951Y-100863500D01*
X81748126Y-100830317D01*
X81590981Y-100765225D01*
X81590980Y-100765225D01*
X81590979Y-100765224D01*
X81449551Y-100670724D01*
X81329276Y-100550449D01*
X81234776Y-100409021D01*
X81234775Y-100409019D01*
X81169683Y-100251874D01*
X81136500Y-100085049D01*
X81136500Y-99914951D01*
X81169683Y-99748126D01*
X81234775Y-99590981D01*
X81234776Y-99590979D01*
X81329276Y-99449551D01*
X81449551Y-99329276D01*
X81590979Y-99234776D01*
X81590981Y-99234775D01*
X81748126Y-99169683D01*
X81914951Y-99136500D01*
X82085049Y-99136500D01*
X82251874Y-99169683D01*
X82251874Y-99169683D01*
G37*
G36*
X87579591Y-98728085D02*
G01*
X87613569Y-98738393D01*
X87644890Y-98755134D01*
X87672339Y-98777661D01*
X87694866Y-98805110D01*
X87711607Y-98836431D01*
X87721915Y-98870409D01*
X87726000Y-98911890D01*
X87726000Y-99513110D01*
X87721915Y-99554591D01*
X87711607Y-99588569D01*
X87694866Y-99619890D01*
X87672339Y-99647339D01*
X87644890Y-99669866D01*
X87613569Y-99686607D01*
X87579591Y-99696915D01*
X87538110Y-99701000D01*
X86861890Y-99701000D01*
X86820409Y-99696915D01*
X86786431Y-99686607D01*
X86755110Y-99669866D01*
X86727661Y-99647339D01*
X86705134Y-99619890D01*
X86688393Y-99588569D01*
X86678085Y-99554591D01*
X86674000Y-99513110D01*
X86674000Y-98911890D01*
X86678085Y-98870409D01*
X86688393Y-98836431D01*
X86705134Y-98805110D01*
X86727661Y-98777661D01*
X86755110Y-98755134D01*
X86786431Y-98738393D01*
X86820409Y-98728085D01*
X86861890Y-98724000D01*
X87538110Y-98724000D01*
X87579591Y-98728085D01*
X87579591Y-98728085D01*
G37*
G36*
X113379591Y-98728085D02*
G01*
X113413569Y-98738393D01*
X113444890Y-98755134D01*
X113472339Y-98777661D01*
X113494866Y-98805110D01*
X113511607Y-98836431D01*
X113521915Y-98870409D01*
X113526000Y-98911890D01*
X113526000Y-99513110D01*
X113521915Y-99554591D01*
X113511607Y-99588569D01*
X113494866Y-99619890D01*
X113472339Y-99647339D01*
X113444890Y-99669866D01*
X113413569Y-99686607D01*
X113379591Y-99696915D01*
X113338110Y-99701000D01*
X112661890Y-99701000D01*
X112620409Y-99696915D01*
X112586431Y-99686607D01*
X112555110Y-99669866D01*
X112527661Y-99647339D01*
X112505134Y-99619890D01*
X112488393Y-99588569D01*
X112478085Y-99554591D01*
X112474000Y-99513110D01*
X112474000Y-98911890D01*
X112478085Y-98870409D01*
X112488393Y-98836431D01*
X112505134Y-98805110D01*
X112527661Y-98777661D01*
X112555110Y-98755134D01*
X112586431Y-98738393D01*
X112620409Y-98728085D01*
X112661890Y-98724000D01*
X113338110Y-98724000D01*
X113379591Y-98728085D01*
X113379591Y-98728085D01*
G37*
G36*
X110810442Y-97745518D02*
G01*
X110876627Y-97752037D01*
X111046466Y-97803557D01*
X111202991Y-97887222D01*
X111238729Y-97916552D01*
X111340186Y-97999814D01*
X111423448Y-98101271D01*
X111452778Y-98137009D01*
X111536443Y-98293534D01*
X111587963Y-98463373D01*
X111605359Y-98640000D01*
X111587963Y-98816627D01*
X111536443Y-98986466D01*
X111452778Y-99142991D01*
X111430872Y-99169683D01*
X111340186Y-99280186D01*
X111252634Y-99352037D01*
X111202991Y-99392778D01*
X111046466Y-99476443D01*
X110876627Y-99527963D01*
X110810442Y-99534482D01*
X110744260Y-99541000D01*
X110655740Y-99541000D01*
X110589558Y-99534482D01*
X110523373Y-99527963D01*
X110353534Y-99476443D01*
X110197009Y-99392778D01*
X110147366Y-99352037D01*
X110059814Y-99280186D01*
X109969128Y-99169683D01*
X109947222Y-99142991D01*
X109863557Y-98986466D01*
X109812037Y-98816627D01*
X109794641Y-98640000D01*
X109812037Y-98463373D01*
X109863557Y-98293534D01*
X109947222Y-98137009D01*
X109976552Y-98101271D01*
X110059814Y-97999814D01*
X110161271Y-97916552D01*
X110197009Y-97887222D01*
X110353534Y-97803557D01*
X110523373Y-97752037D01*
X110589558Y-97745518D01*
X110655740Y-97739000D01*
X110744260Y-97739000D01*
X110810442Y-97745518D01*
X110810442Y-97745518D01*
G37*
G36*
X99654591Y-98478085D02*
G01*
X99688569Y-98488393D01*
X99719890Y-98505134D01*
X99747339Y-98527661D01*
X99769866Y-98555110D01*
X99786607Y-98586431D01*
X99796915Y-98620409D01*
X99801000Y-98661890D01*
X99801000Y-99338110D01*
X99796915Y-99379591D01*
X99786607Y-99413569D01*
X99769866Y-99444890D01*
X99747339Y-99472339D01*
X99719890Y-99494866D01*
X99688569Y-99511607D01*
X99654591Y-99521915D01*
X99613110Y-99526000D01*
X99011890Y-99526000D01*
X98970409Y-99521915D01*
X98936431Y-99511607D01*
X98905110Y-99494866D01*
X98877661Y-99472339D01*
X98855134Y-99444890D01*
X98838393Y-99413569D01*
X98828085Y-99379591D01*
X98824000Y-99338110D01*
X98824000Y-98661890D01*
X98828085Y-98620409D01*
X98838393Y-98586431D01*
X98855134Y-98555110D01*
X98877661Y-98527661D01*
X98905110Y-98505134D01*
X98936431Y-98488393D01*
X98970409Y-98478085D01*
X99011890Y-98474000D01*
X99613110Y-98474000D01*
X99654591Y-98478085D01*
X99654591Y-98478085D01*
G37*
G36*
X101229591Y-98478085D02*
G01*
X101263569Y-98488393D01*
X101294890Y-98505134D01*
X101322339Y-98527661D01*
X101344866Y-98555110D01*
X101361607Y-98586431D01*
X101371915Y-98620409D01*
X101376000Y-98661890D01*
X101376000Y-99338110D01*
X101371915Y-99379591D01*
X101361607Y-99413569D01*
X101344866Y-99444890D01*
X101322339Y-99472339D01*
X101294890Y-99494866D01*
X101263569Y-99511607D01*
X101229591Y-99521915D01*
X101188110Y-99526000D01*
X100586890Y-99526000D01*
X100545409Y-99521915D01*
X100511431Y-99511607D01*
X100480110Y-99494866D01*
X100452661Y-99472339D01*
X100430134Y-99444890D01*
X100413393Y-99413569D01*
X100403085Y-99379591D01*
X100399000Y-99338110D01*
X100399000Y-98661890D01*
X100403085Y-98620409D01*
X100413393Y-98586431D01*
X100430134Y-98555110D01*
X100452661Y-98527661D01*
X100480110Y-98505134D01*
X100511431Y-98488393D01*
X100545409Y-98478085D01*
X100586890Y-98474000D01*
X101188110Y-98474000D01*
X101229591Y-98478085D01*
X101229591Y-98478085D01*
G37*
G36*
X90201000Y-98601000D02*
G01*
X88399000Y-98601000D01*
X88399000Y-96799000D01*
X90201000Y-96799000D01*
X90201000Y-98601000D01*
X90201000Y-98601000D01*
G37*
G36*
X111601000Y-97001000D02*
G01*
X109799000Y-97001000D01*
X109799000Y-95199000D01*
X111601000Y-95199000D01*
X111601000Y-97001000D01*
X111601000Y-97001000D01*
G37*
G36*
X90151977Y-91118855D02*
G01*
X90185955Y-91129163D01*
X90217276Y-91145904D01*
X90249490Y-91172342D01*
X90289341Y-91212193D01*
X90289347Y-91212198D01*
X90687802Y-91610653D01*
X90687807Y-91610659D01*
X90727658Y-91650510D01*
X90754096Y-91682724D01*
X90770837Y-91714045D01*
X90781145Y-91748023D01*
X90784625Y-91783364D01*
X90781145Y-91818705D01*
X90770837Y-91852683D01*
X90754096Y-91884004D01*
X90727658Y-91916218D01*
X90687807Y-91956069D01*
X90687802Y-91956075D01*
X90342381Y-92301496D01*
X90342375Y-92301501D01*
X90302524Y-92341352D01*
X90270310Y-92367790D01*
X90238989Y-92384531D01*
X90205011Y-92394839D01*
X90169670Y-92398319D01*
X90134329Y-92394839D01*
X90100351Y-92384531D01*
X90069030Y-92367790D01*
X90036816Y-92341352D01*
X89996965Y-92301501D01*
X89996959Y-92301496D01*
X89598504Y-91903041D01*
X89598499Y-91903035D01*
X89558648Y-91863184D01*
X89532210Y-91830970D01*
X89515469Y-91799649D01*
X89505161Y-91765671D01*
X89501681Y-91730330D01*
X89505161Y-91694989D01*
X89515469Y-91661011D01*
X89532210Y-91629690D01*
X89558648Y-91597476D01*
X89598499Y-91557625D01*
X89598504Y-91557619D01*
X89943925Y-91212198D01*
X89943931Y-91212193D01*
X89983782Y-91172342D01*
X90015996Y-91145904D01*
X90047317Y-91129163D01*
X90081295Y-91118855D01*
X90116636Y-91115375D01*
X90151977Y-91118855D01*
X90151977Y-91118855D01*
G37*
G36*
X86333394Y-90029583D02*
G01*
X86486645Y-90076071D01*
X86627882Y-90151564D01*
X86674016Y-90189426D01*
X86720656Y-90227702D01*
X86972298Y-90479344D01*
X86973606Y-90480938D01*
X87048436Y-90572118D01*
X87123929Y-90713355D01*
X87123930Y-90713358D01*
X87170418Y-90866604D01*
X87178401Y-90947666D01*
X87186114Y-91025981D01*
X87180992Y-91077981D01*
X87170418Y-91185357D01*
X87140287Y-91284682D01*
X87123929Y-91338607D01*
X87048436Y-91479844D01*
X86946840Y-91603640D01*
X86823044Y-91705236D01*
X86742995Y-91748023D01*
X86681807Y-91780729D01*
X86528557Y-91827218D01*
X86445129Y-91835434D01*
X86369181Y-91842914D01*
X86293233Y-91835434D01*
X86209804Y-91827218D01*
X86056558Y-91780730D01*
X86056555Y-91780729D01*
X85915318Y-91705236D01*
X85848635Y-91650510D01*
X85822544Y-91629098D01*
X85570902Y-91377456D01*
X85539020Y-91338607D01*
X85494764Y-91284682D01*
X85419271Y-91143445D01*
X85372783Y-90990194D01*
X85357086Y-90830819D01*
X85372783Y-90671444D01*
X85419271Y-90518193D01*
X85494764Y-90376956D01*
X85526330Y-90338493D01*
X85596360Y-90253160D01*
X85681693Y-90183130D01*
X85720156Y-90151564D01*
X85861393Y-90076071D01*
X86014644Y-90029583D01*
X86174019Y-90013886D01*
X86333394Y-90029583D01*
X86333394Y-90029583D01*
G37*
G36*
X109118705Y-90418855D02*
G01*
X109152683Y-90429163D01*
X109184004Y-90445904D01*
X109216218Y-90472342D01*
X109256069Y-90512193D01*
X109256075Y-90512198D01*
X109601496Y-90857619D01*
X109601501Y-90857625D01*
X109641352Y-90897476D01*
X109667790Y-90929690D01*
X109684531Y-90961011D01*
X109694839Y-90994989D01*
X109698319Y-91030330D01*
X109694839Y-91065671D01*
X109684531Y-91099649D01*
X109667790Y-91130970D01*
X109641352Y-91163184D01*
X109601501Y-91203035D01*
X109601496Y-91203041D01*
X109203041Y-91601496D01*
X109203035Y-91601501D01*
X109163184Y-91641352D01*
X109130970Y-91667790D01*
X109099649Y-91684531D01*
X109065671Y-91694839D01*
X109030330Y-91698319D01*
X108994989Y-91694839D01*
X108961011Y-91684531D01*
X108929690Y-91667790D01*
X108897476Y-91641352D01*
X108857625Y-91601501D01*
X108857619Y-91601496D01*
X108512198Y-91256075D01*
X108512193Y-91256069D01*
X108472342Y-91216218D01*
X108445904Y-91184004D01*
X108429163Y-91152683D01*
X108418855Y-91118705D01*
X108415375Y-91083364D01*
X108418855Y-91048023D01*
X108429163Y-91014045D01*
X108445904Y-90982724D01*
X108472342Y-90950510D01*
X108512193Y-90910659D01*
X108512198Y-90910653D01*
X108910653Y-90512198D01*
X108910659Y-90512193D01*
X108950510Y-90472342D01*
X108982724Y-90445904D01*
X109014045Y-90429163D01*
X109048023Y-90418855D01*
X109083364Y-90415375D01*
X109118705Y-90418855D01*
X109118705Y-90418855D01*
G37*
G36*
X91265671Y-90005161D02*
G01*
X91299649Y-90015469D01*
X91330970Y-90032210D01*
X91363184Y-90058648D01*
X91403035Y-90098499D01*
X91403041Y-90098504D01*
X91801496Y-90496959D01*
X91801501Y-90496965D01*
X91841352Y-90536816D01*
X91867790Y-90569030D01*
X91884531Y-90600351D01*
X91894839Y-90634329D01*
X91898319Y-90669670D01*
X91894839Y-90705011D01*
X91884531Y-90738989D01*
X91867790Y-90770310D01*
X91841352Y-90802524D01*
X91801501Y-90842375D01*
X91801496Y-90842381D01*
X91456075Y-91187802D01*
X91456069Y-91187807D01*
X91416218Y-91227658D01*
X91384004Y-91254096D01*
X91352683Y-91270837D01*
X91318705Y-91281145D01*
X91283364Y-91284625D01*
X91248023Y-91281145D01*
X91214045Y-91270837D01*
X91182724Y-91254096D01*
X91150510Y-91227658D01*
X91110659Y-91187807D01*
X91110653Y-91187802D01*
X90712198Y-90789347D01*
X90712193Y-90789341D01*
X90672342Y-90749490D01*
X90645904Y-90717276D01*
X90629163Y-90685955D01*
X90618855Y-90651977D01*
X90615375Y-90616636D01*
X90618855Y-90581295D01*
X90629163Y-90547317D01*
X90645904Y-90515996D01*
X90672342Y-90483782D01*
X90712193Y-90443931D01*
X90712198Y-90443925D01*
X91057619Y-90098504D01*
X91057625Y-90098499D01*
X91097476Y-90058648D01*
X91129690Y-90032210D01*
X91161011Y-90015469D01*
X91194989Y-90005161D01*
X91230330Y-90001681D01*
X91265671Y-90005161D01*
X91265671Y-90005161D01*
G37*
G36*
X108005011Y-89305161D02*
G01*
X108038989Y-89315469D01*
X108070310Y-89332210D01*
X108102524Y-89358648D01*
X108142375Y-89398499D01*
X108142381Y-89398504D01*
X108487802Y-89743925D01*
X108487807Y-89743931D01*
X108527658Y-89783782D01*
X108554096Y-89815996D01*
X108570837Y-89847317D01*
X108581145Y-89881295D01*
X108584625Y-89916636D01*
X108581145Y-89951977D01*
X108570837Y-89985955D01*
X108554096Y-90017276D01*
X108527658Y-90049490D01*
X108487807Y-90089341D01*
X108487802Y-90089347D01*
X108089347Y-90487802D01*
X108089341Y-90487807D01*
X108049490Y-90527658D01*
X108017276Y-90554096D01*
X107985955Y-90570837D01*
X107951977Y-90581145D01*
X107916636Y-90584625D01*
X107881295Y-90581145D01*
X107847317Y-90570837D01*
X107815996Y-90554096D01*
X107783782Y-90527658D01*
X107743931Y-90487807D01*
X107743925Y-90487802D01*
X107398504Y-90142381D01*
X107398499Y-90142375D01*
X107358648Y-90102524D01*
X107332210Y-90070310D01*
X107315469Y-90038989D01*
X107305161Y-90005011D01*
X107301681Y-89969670D01*
X107305161Y-89934329D01*
X107315469Y-89900351D01*
X107332210Y-89869030D01*
X107358648Y-89836816D01*
X107398499Y-89796965D01*
X107398504Y-89796959D01*
X107796959Y-89398504D01*
X107796965Y-89398499D01*
X107836816Y-89358648D01*
X107869030Y-89332210D01*
X107900351Y-89315469D01*
X107934329Y-89305161D01*
X107969670Y-89301681D01*
X108005011Y-89305161D01*
X108005011Y-89305161D01*
G37*
G36*
X87747608Y-88615369D02*
G01*
X87900859Y-88661857D01*
X88042096Y-88737350D01*
X88098137Y-88783342D01*
X88134870Y-88813488D01*
X88386512Y-89065130D01*
X88413143Y-89097580D01*
X88462650Y-89157904D01*
X88538143Y-89299141D01*
X88538144Y-89299144D01*
X88584632Y-89452390D01*
X88592848Y-89535819D01*
X88600328Y-89611767D01*
X88592848Y-89687715D01*
X88584632Y-89771143D01*
X88551217Y-89881295D01*
X88538143Y-89924393D01*
X88462650Y-90065630D01*
X88361054Y-90189426D01*
X88237258Y-90291022D01*
X88096021Y-90366515D01*
X87942771Y-90413004D01*
X87859343Y-90421220D01*
X87783395Y-90428700D01*
X87707447Y-90421220D01*
X87624018Y-90413004D01*
X87470772Y-90366516D01*
X87470769Y-90366515D01*
X87329532Y-90291022D01*
X87252377Y-90227702D01*
X87236758Y-90214884D01*
X86985116Y-89963242D01*
X86917864Y-89881295D01*
X86908978Y-89870468D01*
X86833485Y-89729231D01*
X86786997Y-89575980D01*
X86771300Y-89416605D01*
X86786997Y-89257230D01*
X86833485Y-89103979D01*
X86908978Y-88962742D01*
X86940544Y-88924279D01*
X87010574Y-88838946D01*
X87095907Y-88768916D01*
X87134370Y-88737350D01*
X87275607Y-88661857D01*
X87428858Y-88615369D01*
X87588233Y-88599672D01*
X87747608Y-88615369D01*
X87747608Y-88615369D01*
G37*
G36*
X112424549Y-86771116D02*
G01*
X112535734Y-86793232D01*
X112745203Y-86879997D01*
X112933720Y-87005960D01*
X113094040Y-87166280D01*
X113198848Y-87323137D01*
X113220004Y-87354799D01*
X113230273Y-87379591D01*
X113300250Y-87548529D01*
X113306768Y-87564267D01*
X113351000Y-87786635D01*
X113351000Y-88013365D01*
X113346064Y-88038178D01*
X113306768Y-88235734D01*
X113220003Y-88445203D01*
X113094040Y-88633720D01*
X112933720Y-88794040D01*
X112745203Y-88920003D01*
X112535734Y-89006768D01*
X112424549Y-89028884D01*
X112313365Y-89051000D01*
X112086635Y-89051000D01*
X111975451Y-89028884D01*
X111864266Y-89006768D01*
X111654797Y-88920003D01*
X111466280Y-88794040D01*
X111305960Y-88633720D01*
X111179997Y-88445203D01*
X111093232Y-88235734D01*
X111053936Y-88038178D01*
X111049000Y-88013365D01*
X111049000Y-87786635D01*
X111093232Y-87564267D01*
X111099751Y-87548529D01*
X111169727Y-87379591D01*
X111179996Y-87354799D01*
X111201152Y-87323137D01*
X111305960Y-87166280D01*
X111466280Y-87005960D01*
X111654797Y-86879997D01*
X111864266Y-86793232D01*
X111975451Y-86771116D01*
X112086635Y-86749000D01*
X112313365Y-86749000D01*
X112424549Y-86771116D01*
X112424549Y-86771116D01*
G37*
G36*
X89161821Y-87201156D02*
G01*
X89315072Y-87247644D01*
X89456309Y-87323137D01*
X89502443Y-87360999D01*
X89549083Y-87399275D01*
X89800725Y-87650917D01*
X89827356Y-87683367D01*
X89876863Y-87743691D01*
X89952356Y-87884928D01*
X89952357Y-87884931D01*
X89998845Y-88038177D01*
X90007061Y-88121606D01*
X90014541Y-88197554D01*
X90007061Y-88273502D01*
X89998845Y-88356930D01*
X89968714Y-88456255D01*
X89952356Y-88510180D01*
X89876863Y-88651417D01*
X89775267Y-88775213D01*
X89651471Y-88876809D01*
X89570661Y-88920003D01*
X89510234Y-88952302D01*
X89356984Y-88998791D01*
X89275981Y-89006768D01*
X89197608Y-89014487D01*
X89119235Y-89006768D01*
X89038231Y-88998791D01*
X88884985Y-88952303D01*
X88884982Y-88952302D01*
X88743745Y-88876809D01*
X88683421Y-88827302D01*
X88650971Y-88800671D01*
X88399329Y-88549029D01*
X88367447Y-88510180D01*
X88323191Y-88456255D01*
X88247698Y-88315018D01*
X88201210Y-88161767D01*
X88185513Y-88002392D01*
X88201210Y-87843017D01*
X88247698Y-87689766D01*
X88323191Y-87548529D01*
X88356938Y-87507408D01*
X88424787Y-87424733D01*
X88530339Y-87338110D01*
X88548583Y-87323137D01*
X88689820Y-87247644D01*
X88843071Y-87201156D01*
X89002446Y-87185459D01*
X89161821Y-87201156D01*
X89161821Y-87201156D01*
G37*
G36*
X90576035Y-85786942D02*
G01*
X90729286Y-85833430D01*
X90870523Y-85908923D01*
X90926564Y-85954915D01*
X90963297Y-85985061D01*
X91214939Y-86236703D01*
X91241570Y-86269153D01*
X91291077Y-86329477D01*
X91366570Y-86470714D01*
X91366571Y-86470717D01*
X91413059Y-86623963D01*
X91421275Y-86707392D01*
X91428755Y-86783340D01*
X91421275Y-86859288D01*
X91413059Y-86942716D01*
X91382928Y-87042041D01*
X91366570Y-87095966D01*
X91291077Y-87237203D01*
X91189481Y-87360999D01*
X91065685Y-87462595D01*
X91005310Y-87494866D01*
X90924448Y-87538088D01*
X90771198Y-87584577D01*
X90687770Y-87592793D01*
X90611822Y-87600273D01*
X90535874Y-87592793D01*
X90452445Y-87584577D01*
X90299199Y-87538089D01*
X90299196Y-87538088D01*
X90157959Y-87462595D01*
X90080804Y-87399275D01*
X90065185Y-87386457D01*
X89813543Y-87134815D01*
X89781661Y-87095966D01*
X89737405Y-87042041D01*
X89661912Y-86900804D01*
X89615424Y-86747553D01*
X89599727Y-86588178D01*
X89615424Y-86428803D01*
X89661912Y-86275552D01*
X89737405Y-86134315D01*
X89768971Y-86095852D01*
X89839001Y-86010519D01*
X89924334Y-85940489D01*
X89962797Y-85908923D01*
X90104034Y-85833430D01*
X90257285Y-85786942D01*
X90416660Y-85771245D01*
X90576035Y-85786942D01*
X90576035Y-85786942D01*
G37*
G36*
X99554591Y-86478085D02*
G01*
X99588569Y-86488393D01*
X99619890Y-86505134D01*
X99647339Y-86527661D01*
X99669866Y-86555110D01*
X99686607Y-86586431D01*
X99696915Y-86620409D01*
X99701000Y-86661890D01*
X99701000Y-87338110D01*
X99696915Y-87379591D01*
X99686607Y-87413569D01*
X99669866Y-87444890D01*
X99647339Y-87472339D01*
X99619890Y-87494866D01*
X99588569Y-87511607D01*
X99554591Y-87521915D01*
X99513110Y-87526000D01*
X98911890Y-87526000D01*
X98870409Y-87521915D01*
X98836431Y-87511607D01*
X98805110Y-87494866D01*
X98777661Y-87472339D01*
X98755134Y-87444890D01*
X98738393Y-87413569D01*
X98728085Y-87379591D01*
X98724000Y-87338110D01*
X98724000Y-86661890D01*
X98728085Y-86620409D01*
X98738393Y-86586431D01*
X98755134Y-86555110D01*
X98777661Y-86527661D01*
X98805110Y-86505134D01*
X98836431Y-86488393D01*
X98870409Y-86478085D01*
X98911890Y-86474000D01*
X99513110Y-86474000D01*
X99554591Y-86478085D01*
X99554591Y-86478085D01*
G37*
G36*
X101129591Y-86478085D02*
G01*
X101163569Y-86488393D01*
X101194890Y-86505134D01*
X101222339Y-86527661D01*
X101244866Y-86555110D01*
X101261607Y-86586431D01*
X101271915Y-86620409D01*
X101276000Y-86661890D01*
X101276000Y-87338110D01*
X101271915Y-87379591D01*
X101261607Y-87413569D01*
X101244866Y-87444890D01*
X101222339Y-87472339D01*
X101194890Y-87494866D01*
X101163569Y-87511607D01*
X101129591Y-87521915D01*
X101088110Y-87526000D01*
X100486890Y-87526000D01*
X100445409Y-87521915D01*
X100411431Y-87511607D01*
X100380110Y-87494866D01*
X100352661Y-87472339D01*
X100330134Y-87444890D01*
X100313393Y-87413569D01*
X100303085Y-87379591D01*
X100299000Y-87338110D01*
X100299000Y-86661890D01*
X100303085Y-86620409D01*
X100313393Y-86586431D01*
X100330134Y-86555110D01*
X100352661Y-86527661D01*
X100380110Y-86505134D01*
X100411431Y-86488393D01*
X100445409Y-86478085D01*
X100486890Y-86474000D01*
X101088110Y-86474000D01*
X101129591Y-86478085D01*
X101129591Y-86478085D01*
G37*
G36*
X100251874Y-81169683D02*
G01*
X100409019Y-81234775D01*
X100409021Y-81234776D01*
X100550449Y-81329276D01*
X100670724Y-81449551D01*
X100670725Y-81449553D01*
X100765225Y-81590981D01*
X100830317Y-81748126D01*
X100863500Y-81914951D01*
X100863500Y-82085049D01*
X100830317Y-82251874D01*
X100765225Y-82409019D01*
X100765224Y-82409021D01*
X100670724Y-82550449D01*
X100550449Y-82670724D01*
X100409021Y-82765224D01*
X100409020Y-82765225D01*
X100409019Y-82765225D01*
X100251874Y-82830317D01*
X100085049Y-82863500D01*
X99914951Y-82863500D01*
X99748126Y-82830317D01*
X99590981Y-82765225D01*
X99590980Y-82765225D01*
X99590979Y-82765224D01*
X99449551Y-82670724D01*
X99329276Y-82550449D01*
X99234776Y-82409021D01*
X99234775Y-82409019D01*
X99169683Y-82251874D01*
X99136500Y-82085049D01*
X99136500Y-81914951D01*
X99169683Y-81748126D01*
X99234775Y-81590981D01*
X99329275Y-81449553D01*
X99329276Y-81449551D01*
X99449551Y-81329276D01*
X99590979Y-81234776D01*
X99590981Y-81234775D01*
X99748126Y-81169683D01*
X99914951Y-81136500D01*
X100085049Y-81136500D01*
X100251874Y-81169683D01*
X100251874Y-81169683D01*
G37*
M02*
