M48
; DRILL file {KiCad (5.1.2)-1} date 2021/01/06 23:16:42
; FORMAT={-:-/ absolute / metric / decimal}
; #@! TF.CreationDate,2021-01-06T23:16:42+09:00
; #@! TF.GenerationSoftware,Kicad,Pcbnew,(5.1.2)-1
FMAT,2
METRIC
T1C0.400
T2C0.762
T3C1.000
T4C1.025
T5C2.200
%
G90
G05
T1
X86.143Y-99.212
X87.2Y-103.6
X88.734Y-107.042
X92.169Y-91.462
X93.083Y-96.556
X93.14Y-102.868
X95.264Y-109.088
X95.982Y-95.683
X97.733Y-109.167
X98.044Y-113.369
X98.35Y-105.939
X98.429Y-102.462
X101.803Y-90.335
X103.93Y-109.97
X104.288Y-99.543
X104.765Y-104.015
X104.932Y-92.71
X104.937Y-90.862
X107.407Y-109.623
X107.706Y-102.273
X107.861Y-101.09
X109.2Y-86.3
X109.977Y-91.586
X114.058Y-99.066
X114.657Y-104.241
T2
X86.272Y-90.928
X87.686Y-89.514
X89.1Y-88.1
X90.514Y-86.686
T3
X110.7Y-96.1
X110.7Y-98.64
X110.7Y-101.18
X110.7Y-103.72
X89.3Y-97.7
X89.3Y-100.24
X89.3Y-102.78
T4
X82.0Y-100.0
X100.0Y-118.0
X118.0Y-100.0
X100.0Y-82.0
T5
X112.2Y-112.2
X112.2Y-87.9
X87.9Y-112.2
T0
M30
